<svg xmlns="http://www.w3.org/2000/svg" viewBox="0 0 89.67 89.67"><defs><style>.cls-1{fill:#ff5959;}.cls-2{font-size:10.28px;font-family:Helvetica-Bold, Helvetica;font-weight:700;}.cls-2,.cls-3{fill:#fff;}</style></defs><title>MySQL Icon</title><g id="Layer_2" data-name="Layer 2"><g id="Layer_1-2" data-name="Layer 1"><rect class="cls-1" width="89.67" height="89.67" rx="13.38" ry="13.38"/><text class="cls-2" transform="translate(27.13 77.35)">MySQL</text><path class="cls-3" d="M67.2,50.3a16.71,16.71,0,0,0-7,1c-.54.22-1.41.22-1.48.9.29.29.33.76.58,1.16a8.46,8.46,0,0,0,1.88,2.2c.76.58,1.52,1.16,2.31,1.66,1.41.87,3,1.37,4.37,2.24.79.51,1.59,1.16,2.38,1.7.4.29.65.76,1.16.94V62c-.25-.32-.33-.79-.58-1.16s-.72-.69-1.08-1A17.12,17.12,0,0,0,66,56.15c-1.16-.79-3.68-1.88-4.15-3.21l-.07-.07a14.67,14.67,0,0,0,2.49-.58c1.23-.32,2.35-.25,3.61-.58.58-.14,1.16-.32,1.73-.51v-.32c-.65-.65-1.12-1.52-1.81-2.13a48.12,48.12,0,0,0-6-4.44c-1.12-.72-2.56-1.19-3.75-1.81-.43-.22-1.16-.32-1.41-.69A14.58,14.58,0,0,1,55.17,39c-1-2-2.06-4.19-3-6.28a38.44,38.44,0,0,0-1.84-4.12,36.39,36.39,0,0,0-14-13.5,17.35,17.35,0,0,0-4.62-1.48c-.9,0-1.81-.11-2.71-.14a14.38,14.38,0,0,1-1.66-1.26c-2.06-1.3-7.36-4.12-8.88-.4-1,2.35,1.44,4.66,2.27,5.85a17,17,0,0,1,1.84,2.71c.25.61.32,1.26.58,1.91a43.34,43.34,0,0,0,1.88,4.84,17.44,17.44,0,0,0,1.34,2.24c.29.4.79.58.9,1.23a10.33,10.33,0,0,0-.83,2.71c-1.3,4.08-.79,9.13,1,12.13.58.9,1.95,2.89,3.79,2.13,1.62-.65,1.26-2.71,1.73-4.51.11-.43,0-.72.25-1,0,0,0,.07,0,.07.51,1,1,2,1.48,3A20.61,20.61,0,0,0,39.51,50c.87.65,1.55,1.77,2.64,2.17V52h-.07a4,4,0,0,0-.83-.72,17.53,17.53,0,0,1-1.88-2.17,46.44,46.44,0,0,1-4-6.57c-.58-1.12-1.08-2.35-1.55-3.47-.22-.43-.22-1.08-.58-1.3a13.59,13.59,0,0,0-1.73,2.45,20.36,20.36,0,0,0-1,5.45c-.14,0-.07,0-.14.07-1.16-.29-1.55-1.48-2-2.49A15.61,15.61,0,0,1,28,33.66c.25-.76,1.34-3.14.9-3.86-.22-.69-.94-1.08-1.34-1.62a14.55,14.55,0,0,1-1.3-2.31c-.87-2-1.3-4.26-2.24-6.28a19.22,19.22,0,0,0-1.81-2.78,17.87,17.87,0,0,1-2-2.82c-.18-.4-.43-1-.14-1.48a.58.58,0,0,1,.51-.47c.47-.4,1.81.11,2.27.32a18.41,18.41,0,0,1,3.57,1.81c.51.36,1,1,1.7,1.23h.76c1.16.25,2.45.07,3.54.4a23.07,23.07,0,0,1,5.2,2.49A32,32,0,0,1,48.89,30.62c.43.83.61,1.59,1,2.45.76,1.77,1.7,3.57,2.45,5.31a23.73,23.73,0,0,0,2.56,4.84c.54.76,2.71,1.16,3.68,1.55a25.61,25.61,0,0,1,2.49,1c1.23.76,2.45,1.62,3.61,2.45.58.43,2.38,1.34,2.49,2.06Z"/><path class="cls-3" d="M30.37,18.93a5.71,5.71,0,0,0-1.48.18v.07H29a11.63,11.63,0,0,0,1.16,1.48c.29.58.54,1.16.83,1.73l.07-.07a2,2,0,0,0,.76-1.81,8.08,8.08,0,0,1-.43-.76c-.22-.36-.69-.54-1-.83Z"/></g></g></svg>