<svg xmlns="http://www.w3.org/2000/svg" viewBox="0 0 89.67 89.67"><defs><style>.cls-1{fill:#ff5959;}.cls-2{font-size:10.28px;font-family:Helvetica-Bold, Helvetica;font-weight:700;}.cls-2,.cls-3{fill:#fff;}.cls-4{fill:#ccc;}.cls-5{fill:#b3b3b3;}</style></defs><title>MongoDB Icon</title><g id="Layer_2" data-name="Layer 2"><g id="Layer_1-2" data-name="Layer 1"><rect class="cls-1" width="89.67" height="89.67" rx="13.38" ry="13.38"/><text class="cls-2" transform="translate(20.57 77.35)">MongoDB</text><path class="cls-3" d="M45.35,62l-1.44-.49s.18-7.33-2.45-7.85c-1.75-2,.28-86.26,6.59-.28,0,0-2.17,1.09-2.56,2.95A27,27,0,0,0,45.35,62Z"/><path class="cls-4" d="M45.35,62l-1.44-.49s.18-7.33-2.45-7.85c-1.75-2,.28-86.26,6.59-.28,0,0-2.17,1.09-2.56,2.95A27,27,0,0,0,45.35,62Z"/><path class="cls-3" d="M46.13,54.92s12.59-8.28,9.64-25.49c-2.84-12.52-9.54-16.62-10.27-18.2a17.69,17.69,0,0,1-1.58-3.09L44.44,43s-1.09,10.66,1.68,12"/><path class="cls-3" d="M46.13,54.92s12.59-8.28,9.64-25.49c-2.84-12.52-9.54-16.62-10.27-18.2a17.69,17.69,0,0,1-1.58-3.09L44.44,43s-1.09,10.66,1.68,12"/><path class="cls-3" d="M43.18,55.37S31.36,47.31,32.06,33.11s9-21.18,10.62-22.44A3.26,3.26,0,0,0,43.85,8c.74,1.58.6,23.6.7,26.19.32,10-.56,19.29-1.37,21.18Z"/><path class="cls-5" d="M43.18,55.37S31.36,47.31,32.06,33.11s9-21.18,10.62-22.44A3.26,3.26,0,0,0,43.85,8c.74,1.58.6,23.6.7,26.19.32,10-.56,19.29-1.37,21.18Z"/></g></g></svg>