<?xml version="1.0" standalone="no"?>
<!DOCTYPE svg PUBLIC "-//W3C//DTD SVG 1.1//EN" "http://www.w3.org/Graphics/SVG/1.1/DTD/svg11.dtd" >
<svg>
<metadata>
Created by FontForge 20110222 at Mon Apr 28 23:47:26 2014
 By Orthosie Webhosting
Copyright 1990-2003 Bitstream Inc. All rights reserved.
</metadata>
<defs>
<font id="CharterBold" horiz-adv-x="0" >
  <font-face 
    font-family="CharterBold"
    font-weight="400"
    font-stretch="normal"
    units-per-em="2048"
    panose-1="2 4 7 3 5 5 6 2 2 3"
    ascent="1638"
    descent="-410"
    x-height="995"
    cap-height="1374"
    bbox="-2217 -1012 3424 2469"
    underline-thickness="186"
    underline-position="-130"
    unicode-range="U+0020-FE48"
  />
<missing-glyph horiz-adv-x="1229" 
d="M102 -362v1806h1024v-1806h-1024zM217 -248h795v1577h-795v-1577z" />
    <glyph glyph-name=".notdef" horiz-adv-x="1229" 
d="M102 -362v1806h1024v-1806h-1024zM217 -248h795v1577h-795v-1577z" />
    <glyph glyph-name=".null" 
 />
    <glyph glyph-name="nonmarkingreturn" horiz-adv-x="596" 
 />
    <glyph glyph-name="space" unicode=" " horiz-adv-x="596" 
 />
    <glyph glyph-name="exclam" unicode="!" horiz-adv-x="696" 
d="M496 1137l-93 -731h-108l-92 726q-6 46 -8 70t-2 37q0 77 40.5 119.5t114.5 42.5t115 -44t41 -124q0 -19 -2 -43.5t-6 -52.5zM348 297q64 0 109 -46t45 -112q0 -64 -45 -108.5t-109 -44.5q-63 0 -108 45t-45 108q0 66 45 112t108 46z" />
    <glyph glyph-name="quotedbl" unicode="&#x22;" horiz-adv-x="694" 
d="M496 856l-74 458q-1 8 -1.5 16.5t-0.5 23.5q0 51 25.5 79.5t70.5 28.5t70.5 -28t25.5 -78q0 -13 -3 -36q-1 -4 -1 -5l-73 -459h-39zM160 856l-74 459q-1 7 -1.5 15.5t-0.5 23.5q0 52 24.5 80t69.5 28q47 0 71.5 -27.5t24.5 -80.5q0 -16 -0.5 -24.5t-1.5 -15.5l-73 -458
h-39z" />
    <glyph glyph-name="numbersign" unicode="#" horiz-adv-x="1507" 
d="M662 852l-91 -277h265l94 277h-268zM725 1454l129 -37l-152 -438h273l155 475l130 -39l-152 -436h274v-127h-315l-90 -277h321v-122h-364l-160 -502l-131 35l154 467h-267l-163 -502l-129 37l157 465h-280v122h319l90 277h-309v127h350z" />
    <glyph glyph-name="dollar" unicode="$" horiz-adv-x="1190" 
d="M659 559v-430q88 14 139.5 73t51.5 146q0 81 -47.5 133t-143.5 78zM555 1243q-81 -16 -125.5 -68t-44.5 -131q0 -75 42.5 -125.5t127.5 -76.5v401zM555 1520h109v-150q80 -1 170.5 -15.5t189.5 -41.5v-338h-133l-37 229q-31 19 -77.5 30.5t-112.5 16.5v-438
q223 -58 325.5 -153.5t102.5 -245.5q0 -161 -117 -272.5t-318 -139.5v-211h-112v209q-127 6 -231 22t-189 41v355h137l41 -242q51 -26 110.5 -39.5t130.5 -15.5l1 467q-208 54 -305 149.5t-97 245.5q0 155 109 257t303 128v152z" />
    <glyph glyph-name="percent" unicode="%" horiz-adv-x="1819" 
d="M1421 741q-69 0 -105 -85.5t-36 -249.5q0 -167 36 -252.5t105 -85.5q71 0 106.5 84.5t35.5 253.5q0 165 -36 250t-106 85zM1425 834q158 0 250 -115.5t92 -312.5q0 -201 -91.5 -316t-250.5 -115q-158 0 -249 114.5t-91 316.5q0 199 91.5 313.5t248.5 114.5zM410 1307
q-69 0 -104.5 -85.5t-35.5 -250.5q0 -169 35 -253.5t105 -84.5t106.5 86t36.5 252q0 165 -36.5 250.5t-106.5 85.5zM1272 1374h143l-856 -1374h-143zM416 1399q158 0 250 -115t92 -313q0 -200 -92 -315t-250 -115q-159 0 -249.5 114t-90.5 316q0 199 91 313.5t249 114.5z
" />
    <glyph glyph-name="ampersand" unicode="&#x26;" horiz-adv-x="1518" 
d="M477 664q-54 -42 -82 -93.5t-28 -109.5q0 -143 83.5 -231.5t217.5 -88.5q60 0 114 22t105 66zM727 739l322 -338q42 54 70 112t42 120l-24 35l-109 18v94h428v-94l-143 -27q-34 -101 -80.5 -186t-106.5 -156l187 -204l170 -15v-98h-430v49l-86 98q-99 -86 -205.5 -129
t-222.5 -43q-188 0 -309 114.5t-121 289.5q0 130 71 218t213 134q-94 76 -140 155.5t-46 168.5q0 152 120 249t310 97q177 0 286 -88t109 -228q0 -125 -74.5 -210t-230.5 -136zM649 811q78 59 112 118.5t34 137.5q0 100 -46.5 158.5t-125.5 58.5q-72 0 -119 -48.5
t-47 -123.5q0 -65 43 -133t149 -168z" />
    <glyph glyph-name="quotesingle" unicode="'" horiz-adv-x="358" 
d="M160 856l-74 459q-1 7 -1.5 15.5t-0.5 23.5q0 52 24.5 80t69.5 28q47 0 71.5 -27.5t24.5 -80.5q0 -16 -0.5 -24.5t-1.5 -15.5l-73 -458h-39z" />
    <glyph glyph-name="parenleft" unicode="(" horiz-adv-x="877" 
d="M791 1470v-104q-188 -25 -275.5 -214.5t-87.5 -569.5q0 -369 89.5 -558t273.5 -210v-105q-287 11 -446 240.5t-159 634.5q0 413 157 643.5t448 242.5z" />
    <glyph glyph-name="parenright" unicode=")" horiz-adv-x="877" 
d="M76 1470q284 -14 441 -244t157 -636q0 -407 -157 -637.5t-441 -243.5v105q186 24 274 212.5t88 565.5q0 375 -88.5 564t-273.5 210v104z" />
    <glyph glyph-name="asterisk" unicode="*" horiz-adv-x="1024" 
d="M256 1225l219 -158l-10 -29l-268 2l-88 129zM477 1010l25 -21l-84 -254l-152 -43l-4 158zM545 1008l215 -158l-6 -158l-152 43l-84 256zM766 1225l149 -56l-90 -129l-266 -2l-10 31zM512 1470l98 -124l-82 -256h-34l-80 256z" />
    <glyph glyph-name="plus" unicode="+" horiz-adv-x="1706" 
d="M938 1221v-527h514v-166h-514v-528h-170v528h-514v166h514v527h170z" />
    <glyph glyph-name="comma" unicode="," horiz-adv-x="592" 
d="M63 -358v94q111 20 169.5 86t58.5 172v20h-127q-22 24 -32.5 51t-10.5 60q0 63 39 101t102 38q87 0 138 -58t51 -159q0 -159 -107.5 -272.5t-280.5 -132.5z" />
    <glyph glyph-name="hyphen" unicode="-" horiz-adv-x="668" 
d="M74 594h520v-201h-520v201z" />
    <glyph glyph-name="period" unicode="." horiz-adv-x="592" 
d="M295 309q67 0 115.5 -48t48.5 -116q0 -67 -48 -114t-116 -47q-66 0 -113 47t-47 114q0 69 46.5 116.5t113.5 47.5z" />
    <glyph glyph-name="slash" unicode="/" horiz-adv-x="1006" 
d="M811 1374h154l-867 -1564h-153z" />
    <glyph glyph-name="zero" unicode="0" horiz-adv-x="1190" 
d="M602 1284q-120 0 -181 -149t-61 -441q0 -301 60.5 -451.5t181.5 -150.5t181.5 149t60.5 447t-60.5 447t-181.5 149zM600 1399q242 0 382 -190.5t140 -522.5t-139.5 -521.5t-382.5 -189.5q-242 0 -380 189.5t-138 521.5q0 333 138.5 523t379.5 190z" />
    <glyph glyph-name="one" unicode="1" horiz-adv-x="1190" 
d="M666 1395h133v-1252l22 -32l193 -9v-102h-711v102l205 13l24 37v1007l-18 25l-291 -43v104z" />
    <glyph glyph-name="two" unicode="2" horiz-adv-x="1190" 
d="M354 209h574l37 180h125v-389h-992v162q386 300 526 477t140 342q0 135 -67 211t-185 76q-28 0 -58.5 -6.5t-60.5 -18.5v-264q-34 -18 -66 -27.5t-63 -9.5q-67 0 -107 39t-40 104q0 135 135 224.5t346 89.5q203 0 326 -109.5t123 -290.5q0 -173 -150.5 -348t-542.5 -442z
" />
    <glyph glyph-name="three" unicode="3" horiz-adv-x="1190" 
d="M684 723q184 -14 285.5 -100t101.5 -228q0 -182 -159 -300t-412 -118q-179 0 -296.5 74.5t-117.5 181.5q0 61 40 97.5t105 36.5q16 0 35 -4t45 -13l66 -221q40 -15 75 -23t66 -8q116 0 195.5 82.5t79.5 202.5q0 114 -77.5 183t-205.5 69q-28 0 -60 -2.5t-67 -7.5v147
q11 -1 23.5 -1.5t35.5 -0.5q143 0 222 66.5t79 185.5q0 107 -70.5 175.5t-183.5 68.5q-26 0 -55 -6.5t-59 -18.5v-240q-24 -15 -50 -21.5t-59 -6.5q-65 0 -106 39.5t-41 101.5q0 118 130 200.5t326 82.5q199 0 322 -96.5t123 -249.5q0 -123 -85.5 -206.5t-250.5 -121.5z" />
    <glyph glyph-name="four" unicode="4" horiz-adv-x="1190" 
d="M688 1104l-450 -572h450v572zM727 1386h201v-854h231v-161h-231v-434h-240v434h-637v166z" />
    <glyph glyph-name="five" unicode="5" horiz-adv-x="1190" 
d="M197 1374h804v-213h-639v-346q68 23 129 34t119 11q212 0 338.5 -110t126.5 -291q0 -210 -162 -343.5t-419 -133.5q-169 0 -275 69.5t-106 175.5q0 55 43.5 92t109.5 37q14 0 30.5 -3t45.5 -11l70 -231q21 -6 44 -8.5t52 -2.5q125 0 210 85.5t85 211.5q0 138 -95.5 217.5
t-263.5 79.5q-61 0 -123.5 -7t-123.5 -21v708z" />
    <glyph glyph-name="six" unicode="6" horiz-adv-x="1190" 
d="M371 711q-1 -23 -2.5 -67t-1.5 -56q0 -236 69 -362t197 -126q103 0 166 92t63 246q0 150 -73.5 237t-198.5 87q-60 0 -115 -13t-104 -38zM960 1462l1 -151l-87 8q-202 -15 -327.5 -142t-163.5 -356q79 52 160.5 78.5t165.5 26.5q181 0 302.5 -128t121.5 -321
q0 -221 -147.5 -362.5t-377.5 -141.5q-237 0 -374.5 165.5t-137.5 453.5q0 395 235.5 632t628.5 238z" />
    <glyph glyph-name="seven" unicode="7" horiz-adv-x="1190" 
d="M156 1374h981v-133l-664 -1253v-58h-219l659 1217h-591l-31 -191h-135v418z" />
    <glyph glyph-name="eight" unicode="8" horiz-adv-x="1190" 
d="M455 643q-67 -60 -97 -120.5t-30 -133.5q0 -128 77 -211.5t195 -83.5q110 0 178 60.5t68 156.5q0 99 -81 170.5t-310 161.5zM807 729q152 -54 224.5 -141t72.5 -215q0 -183 -141.5 -293.5t-380.5 -110.5q-221 0 -358.5 111.5t-137.5 286.5q0 119 70.5 202t205.5 123
q-107 49 -162 130t-55 190q0 177 130 284t346 107q191 0 309.5 -99.5t118.5 -256.5q0 -104 -61.5 -185t-180.5 -133zM711 776q52 50 79 113.5t27 138.5q0 112 -60 182t-157 70q-85 0 -141 -58.5t-56 -148.5q0 -92 72 -162t236 -135z" />
    <glyph glyph-name="nine" unicode="9" horiz-adv-x="1190" 
d="M264 -109l-55 136l92 16q197 90 320 212t180 282q-77 -41 -151 -60.5t-146 -19.5q-182 0 -300 124t-118 318q0 225 147.5 362.5t389.5 137.5q226 0 360.5 -146.5t134.5 -394.5q0 -325 -226.5 -582t-627.5 -385zM829 657q11 55 16 104t5 97q0 198 -68.5 309t-187.5 111
q-104 0 -170 -92.5t-66 -243.5q0 -158 76.5 -244t216.5 -86q44 0 87.5 11.5t90.5 33.5z" />
    <glyph glyph-name="colon" unicode=":" horiz-adv-x="696" 
d="M354 309q67 0 114.5 -47.5t47.5 -116.5q0 -67 -47.5 -114t-114.5 -47q-65 0 -112 47.5t-47 113.5q0 69 46.5 116.5t112.5 47.5zM354 999q67 0 114.5 -47t47.5 -114t-47.5 -114.5t-114.5 -47.5q-66 0 -112.5 47t-46.5 115q0 67 46.5 114t112.5 47z" />
    <glyph glyph-name="semicolon" unicode=";" horiz-adv-x="696" 
d="M139 -358v94q108 20 164.5 87t56.5 175v16h-122q-23 25 -34 52t-11 59q0 63 38.5 101t102.5 38q86 0 136 -58t50 -159q0 -159 -106 -272.5t-275 -132.5zM354 999q67 0 113.5 -47t46.5 -114q0 -68 -46.5 -115t-113.5 -47q-66 0 -113.5 47.5t-47.5 114.5t47.5 114t113.5 47
z" />
    <glyph glyph-name="less" unicode="&#x3c;" horiz-adv-x="1706" 
d="M1442 991l-934 -381l934 -381v-182l-1178 483v160l1178 486v-185z" />
    <glyph glyph-name="equal" unicode="=" horiz-adv-x="1706" 
d="M1452 487v-165h-1198v165h1198zM1452 901v-168h-1198v168h1198z" />
    <glyph glyph-name="greater" unicode="&#x3e;" horiz-adv-x="1706" 
d="M1442 690v-160l-1178 -483v182l934 381l-934 381v185z" />
    <glyph glyph-name="question" unicode="?" horiz-adv-x="997" 
d="M401 297q66 0 111 -46t45 -114q0 -62 -46 -106.5t-112 -44.5q-61 0 -105 45.5t-44 111.5q0 64 44.5 109t106.5 45zM465 582v-187h-133v277q147 51 222 139.5t75 210.5q0 121 -71 189.5t-196 68.5h-6l-92 -231q-8 -2 -16 -2h-25q-72 0 -111.5 33t-39.5 94q0 97 101 161
t261 64q208 0 334.5 -103.5t126.5 -273.5q0 -150 -108 -260.5t-322 -179.5z" />
    <glyph glyph-name="at" unicode="@" horiz-adv-x="1878" 
d="M1085 274q-80 -81 -150 -120t-136 -39q-113 0 -183.5 91t-70.5 238q0 99 28.5 188t83.5 163q72 98 175.5 154.5t211.5 56.5q48 0 96 -13.5t101 -40.5l35 47h139q-21 -54 -45 -166q-7 -32 -10 -46l-74 -349q-8 -41 -12 -71.5t-4 -55.5q0 -30 19.5 -49.5t49.5 -19.5
q43 0 87.5 27.5t82.5 76.5q63 80 98 188t35 222q0 254 -156 407.5t-415 153.5q-152 0 -283 -51t-235 -150q-123 -117 -183.5 -262t-60.5 -324q0 -330 193 -530.5t510 -200.5q131 0 262 38t258 112l37 -82q-156 -89 -311.5 -134.5t-299.5 -45.5q-167 0 -314.5 59t-264.5 172
q-112 109 -168.5 255.5t-56.5 328.5q0 204 73 376t217 306q123 113 284.5 173t342.5 60q304 0 490 -180t186 -473q0 -115 -28 -216.5t-83 -187.5q-71 -112 -178 -178.5t-211 -66.5q-82 0 -122 39.5t-40 119.5zM1092 905q-13 2 -22.5 3t-16.5 1q-125 0 -210 -123.5
t-85 -308.5q0 -107 37.5 -162t109.5 -55q46 0 92.5 32t94.5 97l73 408z" />
    <glyph glyph-name="A" unicode="A" horiz-adv-x="1333" 
d="M608 1108l-178 -506h361zM563 1389h215l471 -1268l121 -21v-100h-553v100l129 13l15 26l-123 348h-447l-123 -346l21 -26l129 -15v-100h-441v100l123 19z" />
    <glyph glyph-name="B" unicode="B" horiz-adv-x="1286" 
d="M479 117l7 -1q62 -3 92 -3q180 0 262 65.5t82 210.5q0 131 -77 195.5t-231 64.5q-45 0 -75 -1t-60 -3v-528zM480 764q8 -1 20 -1.5t35 -0.5q160 0 235.5 64.5t75.5 201.5q0 120 -70 178t-215 58q-24 0 -76 -4h-6zM59 1374h615q226 0 340 -80.5t114 -240.5
q0 -121 -74 -202.5t-218 -119.5q176 -3 274 -90t98 -240q0 -194 -133 -297.5t-383 -103.5h-633v100l121 11l33 32v1092l-33 29l-121 10v100z" />
    <glyph glyph-name="C" unicode="C" horiz-adv-x="1307" 
d="M1231 49q-103 -37 -210.5 -55.5t-219.5 -18.5q-109 0 -205 23.5t-172 69.5q-160 95 -250 258.5t-90 359.5q0 157 54.5 291t158.5 233q97 94 226.5 141.5t289.5 47.5q103 0 207.5 -19t210.5 -57v-342h-150l-41 219l-28 35q-42 15 -82.5 23t-79.5 8q-214 0 -339.5 -155.5
t-125.5 -422.5q0 -274 131 -429t361 -155q25 0 56.5 5t67.5 14l31 31l49 247h150v-352z" />
    <glyph glyph-name="D" unicode="D" horiz-adv-x="1466" 
d="M487 1260v-1145h119q244 0 364 142t120 431t-120 430.5t-364 141.5h-119zM657 1374q351 0 544.5 -180t193.5 -508q0 -180 -63.5 -320.5t-188.5 -236.5q-87 -67 -201.5 -98t-284.5 -31h-598v100l125 11l33 32v1088l-33 33l-125 10v100h598z" />
    <glyph glyph-name="E" unicode="E" horiz-adv-x="1221" 
d="M59 0v100l125 11l33 32v1092l-33 29l-125 10v100h1033v-321h-142l-35 180l-22 27h-410v-488h267l28 29l21 147h121v-475h-121l-21 148l-28 28h-267v-532h478l24 33l33 217h141v-367h-1100z" />
    <glyph glyph-name="F" unicode="F" horiz-adv-x="1130" 
d="M61 0v100l123 11l33 32v1092l-33 29l-131 10v100h1028v-344h-141l-31 199l-26 26h-396v-510h275l29 27l20 150h121v-478h-121l-20 150l-29 27h-275v-478l35 -32l144 -11v-100h-605z" />
    <glyph glyph-name="G" unicode="G" horiz-adv-x="1454" 
d="M815 676h598v-101l-119 -10l-32 -28v-478q-121 -42 -235 -63t-224 -21q-321 0 -521 200t-200 521q0 318 204.5 509.5t542.5 191.5q102 0 210.5 -17t222.5 -51v-348h-150l-39 217l-31 37q-40 17 -82 25t-88 8q-230 0 -361.5 -152.5t-131.5 -419.5q0 -274 134.5 -428.5
t373.5 -154.5q16 0 45 1.5t67 4.5v418l-32 28l-152 10v101z" />
    <glyph glyph-name="H" unicode="H" horiz-adv-x="1556" 
d="M61 1374h580v-100l-123 -10l-33 -33v-449h592v449l-30 33l-123 10v100h577v-100l-119 -10l-32 -33v-1088l32 -32l119 -11v-100h-577v100l123 11l30 32v516h-592v-516l33 -32l123 -11v-100h-580v100l119 11l33 32v1088l-33 33l-119 10v100z" />
    <glyph glyph-name="I" unicode="I" horiz-adv-x="725" 
d="M61 0v100l136 11l34 32v1092l-34 29l-136 10v100h613v-100l-137 -10l-33 -29v-1092l33 -32l137 -11v-100h-613z" />
    <glyph glyph-name="J" unicode="J" horiz-adv-x="952" 
d="M524 1235l-32 29l-144 10v100h602v-100l-125 -10l-32 -29v-698q0 -292 -114.5 -427t-361.5 -135q-71 0 -144 12.5t-148 37.5v368h149l47 -270l29 -27q5 0 16.5 -1t16.5 -1q130 0 185.5 99.5t55.5 341.5v700z" />
    <glyph glyph-name="K" unicode="K" horiz-adv-x="1331" 
d="M61 0v100l125 11l31 32v1092l-31 29l-125 10v100h582v-100l-121 -10l-33 -29v-537h58l444 539l-12 27l-115 10v100h461v-100l-143 -14l-389 -465l436 -682l147 -13v-100h-424v72l-344 530h-119v-459l33 -32l121 -11v-100h-582z" />
    <glyph glyph-name="L" unicode="L" horiz-adv-x="1112" 
d="M55 0v100l125 11l35 32v1092l-29 29l-131 10v100h590v-100l-125 -10l-33 -29v-1116h394l26 33l31 249h152v-401h-1035z" />
    <glyph glyph-name="M" unicode="M" horiz-adv-x="1808" 
d="M51 0v100l131 15l29 37v1085l-25 27l-135 12v98h537v-57l319 -940l318 938v59h542v-98l-139 -12l-22 -29v-1092l22 -32l139 -11v-100h-567v100l127 11l21 32v1100l-426 -1243h-148l-416 1233v-1081l31 -37l127 -15v-100h-465z" />
    <glyph glyph-name="N" unicode="N" horiz-adv-x="1489" 
d="M53 0v98l121 17l37 37v1083l-29 29l-129 10v100h469v-55l627 -973v877l-37 39l-125 12v100h467v-100l-121 -12l-35 -39v-1223h-229l-709 1100v-948l33 -37l127 -17v-98h-467z" />
    <glyph glyph-name="O" unicode="O" horiz-adv-x="1540" 
d="M778 1274q-176 0 -282.5 -158.5t-106.5 -425.5q0 -271 106.5 -434.5t278.5 -163.5q174 0 280.5 159.5t106.5 424.5q0 274 -104.5 436t-278.5 162zM84 694q0 168 53 302t158 231q97 89 216.5 133.5t262.5 44.5q132 0 244.5 -40t206.5 -120q118 -102 180.5 -246t62.5 -317
q0 -163 -55.5 -299t-163.5 -236q-93 -87 -212 -133.5t-249 -46.5q-317 0 -510.5 200t-193.5 527z" />
    <glyph glyph-name="P" unicode="P" horiz-adv-x="1202" 
d="M487 629q2 0 7 -1q46 -3 67 -3q159 0 239.5 82t80.5 245q0 147 -74 225t-213 78h-107v-626zM59 0v100l121 11l37 32v1092l-31 29l-135 10v100h553q293 0 426 -99t133 -314q0 -216 -141 -335.5t-395 -119.5q-24 0 -59 1.5t-81 4.5v-369l31 -32l146 -11v-100h-605z" />
    <glyph glyph-name="Q" unicode="Q" horiz-adv-x="1540" 
d="M389 694q0 -267 109.5 -429.5t285.5 -162.5q171 0 275 159.5t104 424.5q0 267 -108 427.5t-285 160.5q-172 0 -276.5 -158t-104.5 -422zM930 -4q5 -123 72 -180.5t204 -57.5q44 0 91 6.5t98 18.5v-105q-100 -21 -183.5 -32t-154.5 -11q-213 0 -314.5 84.5t-101.5 262.5v6
q-257 40 -409 229.5t-152 470.5q0 118 29.5 224t89.5 200q89 138 239.5 216.5t327.5 78.5q139 0 253 -39t206 -119q121 -104 185.5 -250.5t64.5 -318.5q0 -267 -149 -454t-396 -230z" />
    <glyph glyph-name="R" unicode="R" horiz-adv-x="1374" 
d="M483 1257l1 -534q13 -1 28.5 -1.5t44.5 -0.5q166 0 245 67t79 207q0 128 -78 195t-225 67h-95zM63 1374h623q236 0 358.5 -89t122.5 -261q0 -141 -89 -229.5t-263 -120.5q76 -18 128.5 -48.5t86.5 -78.5q43 -62 86 -204q21 -67 33 -99q31 -81 82.5 -112.5t159.5 -31.5h26
v-98q-57 -8 -108.5 -12t-96.5 -4q-63 0 -118.5 16.5t-94.5 46.5q-93 72 -146 237q-7 23 -11 36q-58 175 -125 228.5t-199 53.5h-35v-461l33 -32l125 -11v-100h-578v100l121 11l33 32v1092l-33 29l-121 10v100z" />
    <glyph glyph-name="S" unicode="S" horiz-adv-x="1163" 
d="M121 45v371h155l33 -246l27 -31q45 -14 89.5 -21t90.5 -7q120 0 192 53t72 141q0 78 -50.5 138.5t-168.5 119.5q-19 10 -58 28q-140 65 -210 124q-69 58 -106 131t-37 149q0 176 134.5 290t348.5 114q93 0 189 -17.5t196 -52.5v-332h-148l-34 213l-29 29q-29 15 -66 22
t-84 7q-109 0 -175 -54t-66 -141q0 -64 37.5 -115.5t128.5 -105.5q22 -14 122.5 -58.5t169.5 -88.5q89 -57 137 -137t48 -171q0 -188 -149 -304t-394 -116q-100 0 -201 17.5t-194 50.5z" />
    <glyph glyph-name="T" unicode="T" horiz-adv-x="1235" 
d="M33 1374h1181v-362h-141l-35 219l-30 26h-246v-1114l35 -32l133 -11v-100h-613v100l134 11l34 32v1114h-245l-31 -26l-35 -219h-141v362z" />
    <glyph glyph-name="U" unicode="U" horiz-adv-x="1444" 
d="M41 1374h588v-100l-127 -10l-29 -29v-717q0 -205 78 -293t256 -88q164 0 237.5 93.5t73.5 306.5v690l-31 35l-131 12v100h465v-100l-125 -12l-28 -35v-711q0 -285 -128 -413t-413 -128q-149 0 -261.5 43.5t-176.5 124.5q-49 64 -69.5 146.5t-20.5 236.5v709l-29 29
l-129 10v100z" />
    <glyph glyph-name="V" unicode="V" horiz-adv-x="1300" 
d="M-43 1374h563v-100l-119 -10l-22 -31l340 -934l330 934l-23 31l-123 10v100h449v-100l-133 -27l-455 -1247h-207l-465 1249l-135 25v100z" />
    <glyph glyph-name="W" unicode="W" horiz-adv-x="1937" 
d="M465 0l-332 1245l-129 29v100h537v-100l-127 -12l-17 -29l230 -850l295 991h206l304 -1014l215 861l-25 28l-135 25v100h446v-100l-129 -29l-313 -1245h-199l-317 1049l-311 -1049h-199z" />
    <glyph glyph-name="X" unicode="X" horiz-adv-x="1305" 
d="M29 1374h579v-98l-123 -10l-16 -27l233 -381l267 375l-19 29l-112 14v98h458v-98l-127 -16l-381 -517l394 -618l137 -27v-98h-594v98l129 17l14 26l-250 410l-290 -406l12 -34l133 -13v-98h-473v98l131 21l399 547l-372 589l-129 21v98z" />
    <glyph glyph-name="Y" unicode="Y" horiz-adv-x="1249" 
d="M-23 1374h560v-100l-115 -10l-19 -25l281 -520l293 502l-16 32l-123 21v100h446v-100l-121 -23l-389 -661v-449l33 -28l139 -11v-102h-614v102l137 11l35 28v400l-395 712l-132 21v100z" />
    <glyph glyph-name="Z" unicode="Z" horiz-adv-x="1212" 
d="M127 1374h987v-112l-717 -1141h525l20 29l39 247h145v-397h-1036v113l717 1142h-463l-39 -24l-33 -219h-145v362z" />
    <glyph glyph-name="bracketleft" unicode="[" horiz-adv-x="907" 
d="M279 1450h550v-115h-315v-1493h315v-112h-550v1720z" />
    <glyph glyph-name="backslash" unicode="\" horiz-adv-x="1006" 
d="M-14 1374h153l856 -1564h-153z" />
    <glyph glyph-name="bracketright" unicode="]" horiz-adv-x="907" 
d="M86 1450h553v-1720h-553v112h315v1495h-315v113z" />
    <glyph glyph-name="asciicircum" unicode="^" horiz-adv-x="2048" 
d="M1130 1462l502 -565h-104l-506 397l-506 -397h-104l503 565h215z" />
    <glyph glyph-name="underscore" unicode="_" horiz-adv-x="1024" 
d="M1024 -311v-172h-1024v172h1024z" />
    <glyph glyph-name="grave" unicode="`" horiz-adv-x="1024" 
d="M176 1520h254l199 -390h-140z" />
    <glyph glyph-name="a" unicode="a" horiz-adv-x="1114" 
d="M702 201v334q-202 -45 -276 -98t-74 -144q0 -71 41 -112.5t111 -41.5q39 0 88.5 15.5t109.5 46.5zM702 117q-104 -71 -189 -103t-163 -32q-118 0 -193 74.5t-75 191.5q0 144 110 222t513 169v61q0 111 -47 162t-148 51q-22 0 -46 -3t-52 -9v-192h-189q-49 0 -71.5 18
t-22.5 57q0 96 129 167t317 71q211 0 297 -81t86 -282v-530l27 -29l109 -10v-90h-365z" />
    <glyph glyph-name="b" unicode="b" horiz-adv-x="1182" 
d="M420 111q11 -1 25 -1.5t40 -0.5q186 0 273.5 95.5t87.5 297.5q0 173 -77 265.5t-220 92.5q-26 0 -57.5 -4t-71.5 -12v-733zM322 1513h98v-585q84 47 157 69.5t140 22.5q177 0 290 -130t113 -335q0 -178 -82.5 -307.5t-240.5 -200.5q-56 -24 -141.5 -35.5t-206.5 -11.5
h-56l-227 4v1333h-148v80z" />
    <glyph glyph-name="c" unicode="c" horiz-adv-x="975" 
d="M950 92q-101 -55 -196 -81.5t-191 -26.5q-220 0 -355.5 139t-135.5 364q0 233 148.5 382t379.5 149q151 0 244.5 -62.5t93.5 -160.5q0 -61 -41.5 -100.5t-105.5 -39.5q-35 0 -64.5 9.5t-56.5 29.5v217q-17 4 -29.5 5.5t-22.5 1.5q-114 0 -191 -107.5t-77 -273.5
q0 -182 85 -287t231 -105q66 0 138 23.5t146 69.5v-146z" />
    <glyph glyph-name="d" unicode="d" horiz-adv-x="1221" 
d="M797 195v684q-46 15 -83 22.5t-69 7.5q-134 0 -214.5 -106t-80.5 -285q0 -170 73 -266t202 -96q34 0 76.5 9.5t95.5 29.5zM797 1335h-150v82l305 96h95v-1382l28 -33l105 -8v-90h-383v115q-94 -69 -172 -101t-152 -32q-174 0 -285.5 137.5t-111.5 355.5q0 245 146.5 397
t381.5 152q44 0 92 -5t101 -15v331z" />
    <glyph glyph-name="e" unicode="e" horiz-adv-x="1073" 
d="M739 631v22q0 125 -46 191.5t-132 66.5q-94 0 -151 -74.5t-62 -205.5h391zM1008 254v-152q-105 -60 -212 -90t-214 -30q-229 0 -367.5 141t-138.5 373q0 233 141.5 380.5t364.5 147.5q202 0 314 -121.5t112 -341.5v-39h-670v-6q0 -175 88 -275t242 -100q81 0 165 28
t175 85z" />
    <glyph glyph-name="f" unicode="f" horiz-adv-x="698" 
d="M63 0v94l103 10l29 33v711h-132v78l132 61q0 149 51.5 260t156.5 189q56 41 119.5 63.5t128.5 22.5q88 0 140.5 -41t52.5 -109q0 -42 -30.5 -74.5t-88.5 -52.5l-199 176q-40 -41 -60 -119t-20 -192v-16v-123h279v-123h-279v-713l33 -31l137 -10v-94h-553z" />
    <glyph glyph-name="g" unicode="g" horiz-adv-x="1128" 
d="M406 39q-43 -35 -65 -78t-22 -92q0 -85 69 -145t169 -60q106 0 175 55.5t69 137.5q0 64 -45.5 97.5t-175.5 55.5zM547 922q-79 0 -125.5 -64.5t-46.5 -173.5q0 -113 46 -180.5t122 -67.5q74 0 120 68.5t46 181.5q0 105 -45.5 170.5t-116.5 65.5zM834 958h303v-116h-222
q23 -40 34.5 -79t11.5 -79q0 -152 -119 -246t-316 -94q-23 0 -35.5 0.5t-23.5 1.5q-9 -22 -12.5 -40.5t-3.5 -35.5q0 -12 1.5 -26t4.5 -29l139 -18q253 -37 350.5 -99.5t97.5 -179.5q0 -152 -157 -257t-393 -105q-198 0 -311 75.5t-113 204.5q0 96 56 156t154 70
q-13 28 -19.5 53.5t-6.5 48.5q0 49 27 95.5t86 98.5q-123 35 -188.5 115t-65.5 193q0 159 118.5 255.5t319.5 96.5q68 0 139 -15t144 -45z" />
    <glyph glyph-name="h" unicode="h" horiz-adv-x="1223" 
d="M336 1513h98v-618q123 67 205.5 96t144.5 29q142 0 211.5 -84.5t69.5 -255.5v-549l27 -31l108 -8v-92h-502v92l88 8l29 31v490q0 114 -44.5 167.5t-139.5 53.5q-39 0 -87.5 -9t-109.5 -26v-676l31 -31l90 -8v-92h-506v92l105 8l28 31v1206h-149v80z" />
    <glyph glyph-name="i" unicode="i" horiz-adv-x="625" 
d="M354 1016h99v-885l30 -31l115 -8v-92h-537v92l111 8l29 31v707h-135v82zM332 1483q67 0 110 -42.5t43 -107.5q0 -68 -42.5 -111.5t-108.5 -43.5q-64 0 -107 43t-43 108q0 66 42.5 110t105.5 44z" />
    <glyph glyph-name="j" unicode="j" horiz-adv-x="608" 
d="M195 1329q0 69 41.5 111.5t109.5 42.5q64 0 107 -44.5t43 -111.5q0 -62 -45 -105.5t-109 -43.5q-63 0 -105 42.5t-42 108.5zM223 838h-145v82l309 96h86v-815q0 -186 -25.5 -292.5t-85.5 -182.5q-59 -77 -150 -120.5t-189 -43.5q-85 0 -136 40.5t-51 106.5q0 48 33 84.5
t86 46.5l201 -186q35 48 51 144t16 261v779z" />
    <glyph glyph-name="k" unicode="k" horiz-adv-x="1133" 
d="M51 0v90l107 10l28 31v1206h-149v80l315 96h86v-983h45l293 342l-14 23l-90 10v90h418v-90l-134 -16l-233 -260l326 -529l120 -10v-90h-393v80l-237 383h-101v-336l27 -29l102 -8v-90h-516z" />
    <glyph glyph-name="l" unicode="l" horiz-adv-x="623" 
d="M47 0v90l119 12l29 29v1204h-148v82l309 96h90v-1378l31 -33l119 -12v-90h-549z" />
    <glyph glyph-name="m" unicode="m" horiz-adv-x="1827" 
d="M1026 881q119 68 211.5 103.5t151.5 35.5q142 0 213 -85t71 -255v-549l27 -31l108 -8v-92h-503v92l88 8l28 31v490q0 117 -44.5 169t-143.5 52q-36 0 -78.5 -9.5t-95.5 -29.5v-672l26 -31l93 -8v-92h-484v92l84 8l29 35v498q0 109 -44 159t-140 50q-40 0 -83 -9t-89 -26
v-676l28 -31l86 -8v-92h-502v92l105 8l29 31v707h-134v82l289 96h99v-121q110 65 191 95t144 30q79 0 139 -35t101 -104z" />
    <glyph glyph-name="n" unicode="n" horiz-adv-x="1239" 
d="M63 0v92l105 8l29 31v707h-140v82l295 96h99v-121q117 65 202 95t148 30q140 0 209 -84t69 -256v-549l27 -31l108 -8v-92h-501v92l88 8l28 31v490q0 114 -44 167.5t-140 53.5q-37 0 -85.5 -9t-108.5 -26v-676l28 -31l90 -8v-92h-506z" />
    <glyph glyph-name="o" unicode="o" horiz-adv-x="1182" 
d="M598 913q-112 0 -175 -107t-63 -300q0 -196 62.5 -305t173.5 -109q116 0 179 106t63 302q0 195 -63.5 304t-176.5 109zM606 1022q236 0 375 -142.5t139 -385.5q0 -230 -145 -370t-385 -140q-231 0 -372.5 141.5t-141.5 372.5q0 237 145 380.5t385 143.5z" />
    <glyph glyph-name="p" unicode="p" horiz-adv-x="1210" 
d="M436 123q33 -7 65.5 -10.5t65.5 -3.5q138 0 219.5 107t81.5 288q0 161 -71.5 251.5t-198.5 90.5q-33 0 -72.5 -9.5t-89.5 -29.5v-684zM47 -449v95l111 10l28 31v1151h-139v82l297 96h92v-123q97 67 175 98t149 31q167 0 277 -136.5t110 -346.5q0 -246 -147 -392.5
t-396 -146.5q-42 0 -83.5 2.5t-83.5 7.5l-1 -327l31 -29l127 -8v-95h-547z" />
    <glyph glyph-name="q" unicode="q" horiz-adv-x="1178" 
d="M784 899q-33 6 -56.5 8t-45.5 2q-160 0 -245 -102.5t-85 -294.5q0 -170 76 -264t213 -94q33 0 69.5 3.5t73.5 10.5v731zM1042 995q-3 -54 -4.5 -83t-1.5 -35v-1194l31 -29l102 -8v-92h-546v94l131 8l30 29v403q-87 -49 -162.5 -72.5t-142.5 -23.5q-176 0 -289.5 133.5
t-113.5 343.5q0 263 169.5 408t477.5 145q62 0 138.5 -6.5t180.5 -20.5z" />
    <glyph glyph-name="r" unicode="r" horiz-adv-x="862" 
d="M59 0v92l109 8l29 31v707h-148v82l301 96h99l-9 -209q53 56 113 108.5t126 99.5q17 3 27.5 4t18.5 1q33 0 66.5 -8.5t68.5 -26.5l-26 -283h-107q-23 38 -55.5 56t-77.5 18q-26 0 -62.5 -14.5t-82.5 -42.5v-588l30 -31l146 -8v-92h-566z" />
    <glyph glyph-name="s" unicode="s" horiz-adv-x="915" 
d="M809 973v-273h-123l-20 154l-25 23q-34 16 -68 24t-67 8q-74 0 -115 -32.5t-41 -90.5q0 -48 32 -83t159 -97l4 -2q295 -142 295 -289q0 -157 -111.5 -247.5t-306.5 -90.5q-76 0 -160.5 13t-177.5 39v303h123l24 -176l21 -23q40 -21 83 -32t89 -11q81 0 127.5 39.5
t46.5 108.5q0 87 -177 167q-60 27 -93 44q-127 63 -178.5 124.5t-51.5 145.5q0 137 109.5 221t292.5 84q78 0 155 -12.5t154 -38.5z" />
    <glyph glyph-name="t" unicode="t" horiz-adv-x="733" 
d="M172 848h-133v78l151 86l107 213h129v-254h303v-123h-303v-510q0 -115 37 -157t133 -42q38 0 70.5 3.5t62.5 10.5v-98q-88 -32 -167.5 -48.5t-145.5 -16.5q-54 0 -95.5 11t-74.5 34q-41 27 -57.5 67.5t-16.5 149.5v596z" />
    <glyph glyph-name="u" unicode="u" horiz-adv-x="1229" 
d="M336 1022h98v-635q0 -122 45.5 -175.5t149.5 -53.5q35 0 77.5 7.5t98.5 24.5v654h-133v82l291 96h94v-891l28 -31l107 -8v-92h-387v113q-107 -70 -188.5 -100.5t-155.5 -30.5q-142 0 -211.5 86t-69.5 264v512h-133v82z" />
    <glyph glyph-name="v" unicode="v" horiz-adv-x="1051" 
d="M-12 997h520v-94l-107 -10l-22 -27l213 -598l233 596l-16 29l-104 10v94h389v-94l-119 -14l-352 -889h-185l-327 891l-123 12v94z" />
    <glyph glyph-name="w" unicode="w" horiz-adv-x="1636" 
d="M-2 997h508v-94l-100 -14l-23 -29l166 -590l239 727h205l224 -727l180 592l-15 29l-108 12v94h387v-94l-115 -14l-278 -889h-207l-227 735l-244 -735h-205l-264 891l-123 12v94z" />
    <glyph glyph-name="x" unicode="x" horiz-adv-x="1087" 
d="M29 997h493v-86l-78 -12l-10 -22l164 -244l178 256l-104 18v90h377v-94l-113 -14l-262 -340l305 -440l108 -19v-90h-479v80l72 18l8 21l-180 274l-193 -282l105 -21v-90h-397v90l120 23l287 366l-285 408l-116 16v94z" />
    <glyph glyph-name="y" unicode="y" horiz-adv-x="1055" 
d="M-8 995h520v-88l-104 -12l-21 -29l221 -579l223 577l-18 31l-108 12v88h393v-88l-111 -18l-395 -961q-73 -176 -175 -276.5t-206 -100.5q-72 0 -124 45.5t-52 106.5q0 44 27.5 81.5t78.5 63.5l178 -122q42 33 82.5 96.5t77.5 152.5l-364 914l-123 18v88z" />
    <glyph glyph-name="z" unicode="z" horiz-adv-x="1014" 
d="M94 0v127l529 758h-332l-27 -29l-18 -170h-135v309h811v-106l-543 -774h379l30 32l29 189h135v-336h-858z" />
    <glyph glyph-name="braceleft" unicode="{" horiz-adv-x="1010" 
d="M862 1444v-105q-144 -4 -198 -57t-54 -199v-129q0 -162 -70.5 -247t-226.5 -111q153 -25 225 -110t72 -242v-150q0 -154 52.5 -206t199.5 -54v-108q-10 0 -30.5 -1t-30.5 -1q-238 0 -332 84.5t-94 295.5v166q0 151 -53 210t-187 59h-41v116h41q135 0 187.5 57t52.5 206
v172q0 192 100.5 273t343.5 81h43z" />
    <glyph glyph-name="bar" unicode="|" horiz-adv-x="1024" 
d="M602 1565v-2048h-178v2048h178z" />
    <glyph glyph-name="braceright" unicode="}" horiz-adv-x="1010" 
d="M127 1444h43q246 0 346 -80t100 -274v-172q0 -148 52 -205.5t182 -57.5h45v-116h-41q-133 0 -185.5 -59t-52.5 -210v-166q0 -210 -95 -295t-333 -85q-10 0 -30.5 1t-30.5 1v108q148 2 201 54t53 206v150q0 158 71 243t224 109q-157 27 -226 111t-69 247v129
q0 145 -54.5 198.5t-199.5 58.5v104z" />
    <glyph glyph-name="asciitilde" unicode="~" horiz-adv-x="1706" 
d="M1530 600q-103 -71 -197.5 -106t-183.5 -35q-44 0 -92.5 8.5t-98.5 26.5q-25 8 -76 26q-212 74 -319 74q-82 0 -174 -38t-211 -122v187q106 72 202 107.5t185 35.5q62 0 125.5 -12t168.5 -48q13 -4 42 -15q164 -58 250 -58q85 0 177 37t202 116v-184z" />
    <glyph glyph-name="Euro" horiz-adv-x="1190" 
d="M1126 49q-105 -38 -196.5 -56t-177.5 -18q-230 0 -368 134t-175 393h-189l23 100h155q0 17 -0.5 35.5t-0.5 50.5q0 16 2 68q1 27 2 43h-181l23 102h174q46 238 190 368t361 130q81 0 169 -18.5t189 -57.5v-332h-135l-39 219l-32 35q-40 21 -75.5 30t-74.5 9
q-123 0 -189.5 -89.5t-93.5 -293.5h410l-25 -102l-393 -1q-1 -21 -1.5 -44.5t-0.5 -65.5q0 -18 0.5 -39.5t1.5 -46.5h342l-24 -100h-312q11 -195 89 -302.5t208 -107.5q21 0 54 6t76 17l32 30l51 246h131v-342z" />
    <glyph glyph-name="Euro" unicode="&#x20ac;" horiz-adv-x="1190" 
d="M1126 49q-105 -38 -196.5 -56t-177.5 -18q-230 0 -368 134t-175 393h-189l23 100h155q0 17 -0.5 35.5t-0.5 50.5q0 16 2 68q1 27 2 43h-181l23 102h174q46 238 190 368t361 130q81 0 169 -18.5t189 -57.5v-332h-135l-39 219l-32 35q-40 21 -75.5 30t-74.5 9
q-123 0 -189.5 -89.5t-93.5 -293.5h410l-25 -102l-393 -1q-1 -21 -1.5 -44.5t-0.5 -65.5q0 -18 0.5 -39.5t1.5 -46.5h342l-24 -100h-312q11 -195 89 -302.5t208 -107.5q21 0 54 6t76 17l32 30l51 246h131v-342z" />
    <glyph glyph-name="nonbreakingspace" unicode="&#xa0;" horiz-adv-x="1190" 
 />
    <glyph glyph-name="exclamdown" unicode="&#xa1;" horiz-adv-x="696" 
d="M199 250l94 731h106l95 -728q5 -39 7.5 -65.5t2.5 -46.5q0 -71 -43.5 -114t-114.5 -43q-72 0 -112.5 45t-40.5 125q0 31 1 52t5 44zM348 1090q-63 0 -108 46t-45 111q0 64 45 109t108 45t108.5 -45t45.5 -109q0 -65 -45 -111t-109 -46z" />
    <glyph glyph-name="cent" unicode="&#xa2;" horiz-adv-x="1190" 
d="M625 928q-116 -33 -180 -141t-64 -271q0 -151 65.5 -257.5t178.5 -137.5v807zM625 1253h112v-204q76 -2 149 -16.5t144 -43.5v-295h-121l-30 201q-33 19 -68 28t-74 9v-815q37 0 72.5 7.5t69.5 22.5l30 213h121v-309q-55 -21 -126.5 -33.5t-165.5 -17.5l-1 -209h-112v211
q-227 18 -365.5 160t-138.5 356q0 220 135.5 362t368.5 164v209z" />
    <glyph glyph-name="sterling" unicode="&#xa3;" horiz-adv-x="1190" 
d="M862 1032v238q-17 5 -35.5 7.5t-40.5 2.5q-127 0 -184 -99.5t-57 -324.5q0 -35 4 -114v-7h371v-123h-369q0 -147 -51 -246.5t-156 -158.5l4 -16q46 6 84 10t62 4h608v-205h-1014v147q115 30 164 118t49 274q0 12 -1 36.5t-1 36.5h-143v123l141 1q-3 29 -4.5 59t-1.5 59
q0 255 121.5 396t341.5 141q150 0 249 -68t99 -168q0 -62 -44 -100.5t-114 -38.5q-13 0 -33.5 4t-48.5 12z" />
    <glyph glyph-name="currency" unicode="&#xa4;" horiz-adv-x="1190" 
d="M1126 49q-105 -38 -196.5 -56t-177.5 -18q-230 0 -368 134t-175 393h-189l23 100h155q0 17 -0.5 35.5t-0.5 50.5q0 16 2 68q1 27 2 43h-181l23 102h174q46 238 190 368t361 130q81 0 169 -18.5t189 -57.5v-332h-135l-39 219l-32 35q-40 21 -75.5 30t-74.5 9
q-123 0 -189.5 -89.5t-93.5 -293.5h410l-25 -102l-393 -1q-1 -21 -1.5 -44.5t-0.5 -65.5q0 -18 0.5 -39.5t1.5 -46.5h342l-24 -100h-312q11 -195 89 -302.5t208 -107.5q21 0 54 6t76 17l32 30l51 246h131v-342z" />
    <glyph glyph-name="yen" unicode="&#xa5;" horiz-adv-x="1219" 
d="M-14 1374h538v-100l-110 -10l-19 -25l269 -520l276 502l-16 32l-115 23v98h426v-100l-115 -23l-207 -370h271v-103h-332l-109 -196h441v-101h-436v-340l32 -28l142 -11v-102h-611v102l140 11l34 28v340h-440v101h420l-100 196h-320v103h258l-192 372l-125 21v100z" />
    <glyph glyph-name="brokenbar" unicode="&#xa6;" horiz-adv-x="1024" 
d="M602 408v-758h-178v758h178zM602 1432v-758h-178v758h178z" />
    <glyph glyph-name="section" unicode="&#xa7;" horiz-adv-x="1024" 
d="M442 850q-83 -32 -127.5 -85.5t-44.5 -121.5q0 -82 67.5 -147.5t244.5 -145.5q85 51 125.5 103.5t40.5 113.5q0 80 -73 147.5t-233 135.5zM866 1423v-278h-108l-23 168q-49 27 -95 41t-89 14q-86 0 -141.5 -45.5t-55.5 -116.5q0 -95 207 -193q54 -25 84 -40
q149 -75 217 -157.5t68 -188.5q0 -108 -66.5 -198t-181.5 -136q109 -57 158 -121t49 -149q0 -142 -113 -228t-303 -86q-80 0 -161.5 16.5t-166.5 49.5l-2 280h119l27 -186q48 -26 95 -38.5t93 -12.5q88 0 143.5 45.5t55.5 116.5q0 110 -254 230q-54 25 -84 40
q-121 58 -182.5 142.5t-61.5 193.5q0 110 60 189.5t182 131.5q-105 55 -153 119t-48 150q0 138 112 217.5t308 79.5q75 0 152 -12.5t159 -37.5z" />
    <glyph glyph-name="dieresis" unicode="&#xa8;" horiz-adv-x="1024" 
d="M723 1454q53 0 91 -39.5t38 -95.5q0 -55 -38 -94t-91 -39q-55 0 -92 38.5t-37 94.5q0 57 37.5 96t91.5 39zM301 1454q53 0 91 -39.5t38 -95.5q0 -55 -37.5 -94t-91.5 -39t-92.5 39t-38.5 94q0 56 38.5 95.5t92.5 39.5z" />
    <glyph glyph-name="copyright" unicode="&#xa9;" horiz-adv-x="1794" 
d="M1229 1122v-248h-109l-30 164q-30 19 -61 28t-64 9q-136 0 -222 -106t-86 -275q0 -170 84.5 -276.5t219.5 -106.5q32 0 64.5 8t66.5 23l28 176h109v-256q-68 -25 -144 -38t-159 -13q-217 0 -354.5 134.5t-137.5 346.5q0 214 140.5 349t365.5 135q74 0 146 -13.5
t143 -40.5zM909 1401q-136 0 -262 -54.5t-223 -154.5q-98 -101 -148.5 -227t-50.5 -269q0 -144 51.5 -270.5t149.5 -226.5q101 -103 223 -156t258 -53t259 53.5t220 155.5q99 103 151 231t52 266q0 141 -52.5 272t-147.5 228q-96 97 -222 151t-258 54zM909 1493
q154 0 300 -62.5t255 -175.5q107 -109 165.5 -257.5t58.5 -309.5q0 -154 -62.5 -300t-177.5 -263q-112 -112 -252 -169.5t-299 -57.5q-148 0 -288.5 61t-252.5 174q-112 114 -170.5 257t-58.5 304q0 159 58.5 303.5t168.5 259.5q111 114 254.5 175t300.5 61z" />
    <glyph glyph-name="ordfeminine" unicode="&#xaa;" horiz-adv-x="836" 
d="M526 817v234q-150 -31 -206 -68.5t-56 -101.5q0 -50 31 -78.5t84 -28.5q29 0 66 11t81 32zM526 758q-79 -50 -142 -72t-122 -22q-87 0 -144 52.5t-57 133.5q0 101 84.5 156t382.5 116v43q0 78 -34.5 114t-110.5 36q-19 0 -37.5 -2t-36.5 -6v-136h-141q-38 0 -55 13
t-17 41q0 67 97.5 116.5t238.5 49.5q158 0 222.5 -56.5t64.5 -197.5v-371l20 -21l82 -6v-63h-274z" />
    <glyph glyph-name="guillemotleft" unicode="&#xab;" horiz-adv-x="920" 
d="M827 872v-172l-221 -208l221 -209v-172l-354 295v172zM426 872v-172l-221 -208l221 -209v-172l-354 295v172z" />
    <glyph glyph-name="logicalnot" unicode="&#xac;" horiz-adv-x="1706" 
d="M1452 862v-502h-166v336h-1032v166h1198z" />
    <glyph glyph-name="sfthyphen" unicode="&#xad;" horiz-adv-x="668" 
d="M74 594h520v-201h-520v201z" />
    <glyph glyph-name="registered" unicode="&#xae;" horiz-adv-x="1794" 
d="M801 1061v-334q7 -1 16 -1.5t25 -0.5q105 0 160 43.5t55 126.5q0 81 -55.5 124.5t-159.5 43.5q-16 0 -24.5 -0.5t-16.5 -1.5zM500 1145h450q158 0 238 -56t80 -165q0 -91 -62 -150t-182 -82q144 -30 212 -218q6 -17 9 -25q27 -73 62.5 -98t105.5 -25h10v-76
q-43 -6 -74 -9t-51 -3q-49 0 -88.5 10t-70.5 31q-64 41 -101 162q-11 36 -18 55q-28 80 -72.5 112.5t-124.5 32.5h-22v-295l117 -20v-78h-412v78l102 18v705l-108 24v72zM909 1401q-136 0 -262 -54t-223 -155q-98 -102 -148.5 -229t-50.5 -269q0 -141 50 -266t145 -223
q104 -107 226.5 -161t260.5 -54q136 0 259 53.5t220 155.5q99 101 151 229.5t52 267.5q0 140 -51 269t-143 225q-96 100 -223.5 155.5t-262.5 55.5zM909 1493q154 0 300 -62.5t255 -175.5q107 -109 165.5 -257.5t58.5 -309.5q0 -154 -62.5 -300t-177.5 -263
q-112 -112 -252 -169.5t-299 -57.5q-148 0 -288.5 61t-252.5 174q-112 114 -170.5 257t-58.5 304q0 159 58.5 303.5t168.5 259.5q111 114 254.5 175t300.5 61z" />
    <glyph glyph-name="macron" unicode="&#xaf;" horiz-adv-x="1024" 
d="M176 1382h678v-145h-678v145z" />
    <glyph glyph-name="degree" unicode="&#xb0;" horiz-adv-x="674" 
d="M522 1165q0 77 -53.5 131t-130.5 54t-131.5 -54t-54.5 -131q0 -76 54.5 -131t131.5 -55t130.5 54.5t53.5 131.5zM338 1460q123 0 209 -87t86 -210q0 -121 -87 -208t-210 -87t-208 85.5t-85 209.5q0 125 86 211t209 86z" />
    <glyph glyph-name="plusminus" unicode="&#xb1;" horiz-adv-x="1706" 
d="M1452 182v-168h-1198v168h1198zM938 1206v-334h514v-165h-514v-334h-170v334h-514v165h514v334h170z" />
    <glyph glyph-name="twosuperior" unicode="&#xb2;" horiz-adv-x="784" 
d="M233 674h379l25 108h82v-233h-653v96q256 183 347 288t91 204q0 81 -44 126.5t-122 45.5q-20 0 -40 -4t-38 -11v-157q-25 -12 -46 -17.5t-40 -5.5q-44 0 -70 23.5t-26 62.5q0 81 89 135t228 54q134 0 214.5 -66.5t80.5 -173.5q0 -105 -99 -210t-358 -265z" />
    <glyph glyph-name="threesuperior" unicode="&#xb3;" horiz-adv-x="784" 
d="M451 983q122 -9 189 -60.5t67 -136.5q0 -109 -105 -180t-272 -71q-117 0 -195 44.5t-78 108.5q0 37 26 58.5t71 21.5q13 0 24.5 -2t26.5 -6l43 -133q28 -10 51 -14.5t43 -4.5q77 0 128.5 49t51.5 121q0 69 -50.5 110.5t-135.5 41.5q-14 0 -35 -1.5t-49 -4.5v88h41
q94 0 146.5 39t52.5 110q0 65 -47.5 106.5t-120.5 41.5q-15 0 -33.5 -3.5t-42.5 -11.5v-145q-17 -9 -33 -12.5t-39 -3.5q-44 0 -71 23t-27 61q0 71 85.5 120t215.5 49q132 0 213.5 -57.5t81.5 -148.5q0 -74 -56.5 -124t-166.5 -73z" />
    <glyph glyph-name="acute" unicode="&#xb4;" horiz-adv-x="1024" 
d="M621 1520h253l-315 -390h-137z" />
    <glyph glyph-name="mu" unicode="&#xb5;" horiz-adv-x="1184" 
d="M68 373l108 512h207l-100 -467q-10 -46 -15.5 -82t-5.5 -57q0 -64 37 -101t102 -37q87 0 139 53.5t76 167.5l111 523h209l-113 -533l-3 -15q-15 -70 -15 -110q0 -42 22.5 -66t63.5 -24q40 0 71 21.5t58 68.5q9 17 23 49q25 60 51 60q11 0 16.5 -7.5t5.5 -23.5
q0 -28 -17 -85.5t-40 -100.5q-41 -72 -95.5 -108t-123.5 -36q-84 0 -129.5 55t-47.5 156q-42 -104 -109.5 -157.5t-156.5 -53.5q-99 0 -156.5 58t-68.5 168q-23 -124 -48 -315q-39 -306 -134 -306q-47 0 -73 26.5t-26 74.5q0 52 69 282.5t108 409.5z" />
    <glyph glyph-name="paragraph" unicode="&#xb6;" horiz-adv-x="1006" 
d="M535 1374h401v-88l-125 -20v-1428h-117v1438h-143v-739h-35q-241 0 -359 102t-118 311q0 222 118 323t378 101z" />
    <glyph glyph-name="periodcentered" unicode="&#xb7;" horiz-adv-x="592" 
d="M295 850q67 0 115.5 -48t48.5 -116q0 -66 -48.5 -114t-115.5 -48q-66 0 -113 47.5t-47 114.5q0 68 47 116t113 48z" />
    <glyph glyph-name="cedilla" unicode="&#xb8;" horiz-adv-x="1024" 
d="M467 0h98v-116q5 0 12.5 0.5t20.5 0.5q79 0 122.5 -41t43.5 -114q0 -91 -67 -146t-179 -55q-39 0 -79 5.5t-87 16.5v97q45 -9 74.5 -13t50.5 -4q63 0 95 19.5t32 56.5q0 32 -24.5 50t-67.5 18q-12 0 -40 -4h-5v229z" />
    <glyph glyph-name="onesuperior" unicode="&#xb9;" horiz-adv-x="784" 
d="M440 1386h88v-751l15 -21l127 -4v-61h-469v61l135 8l16 21v606l-12 15l-193 -27v63z" />
    <glyph glyph-name="ordmasculine" unicode="&#xba;" horiz-adv-x="887" 
d="M449 1315q-84 0 -131.5 -75t-47.5 -210q0 -137 47 -213t129 -76q88 0 135.5 74t47.5 211t-48 213t-132 76zM455 1391q177 0 281 -99.5t104 -269.5q0 -162 -108.5 -260t-289.5 -98q-172 0 -278.5 99t-106.5 261q0 167 108.5 267t289.5 100z" />
    <glyph glyph-name="guillemotright" unicode="&#xbb;" horiz-adv-x="920" 
d="M88 872l352 -294v-172l-352 -295v172l221 209l-221 208v172zM489 872l355 -294v-172l-355 -295v172l222 209l-222 208v172z" />
    <glyph glyph-name="onequarter" unicode="&#xbc;" horiz-adv-x="1841" 
d="M1526 618l-285 -319h285v319zM1550 776h125v-477h148v-92h-148v-242h-149v242h-402v94zM1286 1374h144l-875 -1374h-145zM420 1384h84v-700l14 -18l121 -4v-58h-449v58l129 6l17 20v565l-12 15l-183 -25v57z" />
    <glyph glyph-name="onehalf" unicode="&#xbd;" horiz-adv-x="1841" 
d="M1315 117h360l25 100h78v-217h-625v90q244 169 332 268t88 191q0 75 -42 118.5t-116 43.5q-15 0 -32.5 -3.5t-43.5 -11.5v-147q-20 -10 -40.5 -15.5t-41.5 -5.5q-41 0 -66.5 22t-25.5 58q0 75 85 124.5t218 49.5q128 0 205.5 -61t77.5 -162q0 -96 -94.5 -194t-341.5 -248
zM1286 1374h144l-875 -1374h-145zM420 1384h84v-700l14 -18l121 -4v-58h-449v58l129 6l17 20v565l-12 15l-183 -25v57z" />
    <glyph glyph-name="threequarters" unicode="&#xbe;" horiz-adv-x="1841" 
d="M1526 618l-285 -319h285v319zM1550 776h125v-477h148v-92h-148v-242h-149v242h-402v94zM1286 1374h144l-875 -1374h-145zM430 1010q116 -8 180 -56.5t64 -128.5q0 -101 -100 -167t-259 -66q-113 0 -187.5 41.5t-74.5 101.5q0 34 25.5 54t66.5 20q13 0 25 -2t27 -6
l41 -125q25 -8 47.5 -12.5t40.5 -4.5q73 0 123.5 46.5t50.5 113.5q0 64 -49 103t-129 39q-15 -1 -35 -2.5t-45 -3.5v81h37q90 0 140 36.5t50 103.5q0 61 -44.5 99t-115.5 38q-17 0 -35.5 -3.5t-37.5 -10.5v-134q-15 -8 -31 -12t-37 -4q-41 0 -66.5 22t-25.5 58
q0 66 81.5 111.5t204.5 45.5q127 0 204 -53.5t77 -140.5q0 -68 -54.5 -114.5t-158.5 -67.5z" />
    <glyph glyph-name="questiondown" unicode="&#xbf;" horiz-adv-x="997" 
d="M506 989h133v-276q-145 -51 -220 -140t-75 -211t69.5 -190t194.5 -68h6l93 232q7 1 15.5 1.5t25.5 0.5q71 0 111 -33.5t40 -93.5q0 -98 -101 -162.5t-261 -64.5q-207 0 -333 104.5t-126 273.5q0 151 107 261.5t321 179.5v186zM569 1399q64 0 109 -45t45 -109
q0 -65 -45 -111.5t-109 -46.5t-108.5 46t-44.5 112q0 65 44.5 109.5t108.5 44.5z" />
    <glyph glyph-name="Agrave" unicode="&#xc0;" horiz-adv-x="1333" 
d="M608 1108l-178 -506h361zM563 1389h215l471 -1268l121 -21v-100h-553v100l129 13l15 26l-123 348h-447l-123 -346l21 -26l129 -15v-100h-441v100l123 19zM332 1903h254l199 -390h-140z" />
    <glyph glyph-name="Aacute" unicode="&#xc1;" horiz-adv-x="1333" 
d="M608 1108l-178 -506h361zM563 1389h215l471 -1268l121 -21v-100h-553v100l129 13l15 26l-123 348h-447l-123 -346l21 -26l129 -15v-100h-441v100l123 19zM777 1903h253l-315 -390h-137z" />
    <glyph glyph-name="Acircumflex" unicode="&#xc2;" horiz-adv-x="1333" 
d="M608 1108l-178 -506h361zM563 1389h215l471 -1268l121 -21v-100h-553v100l129 13l15 26l-123 348h-447l-123 -346l21 -26l129 -15v-100h-441v100l123 19zM578 1903h180l225 -390h-157l-158 256l-156 -256h-159z" />
    <glyph glyph-name="Atilde" unicode="&#xc3;" horiz-adv-x="1333" 
d="M608 1108l-178 -506h361zM563 1389h215l471 -1268l121 -21v-100h-553v100l129 13l15 26l-123 348h-447l-123 -346l21 -26l129 -15v-100h-441v100l123 19zM887 1862h111v-33q0 -115 -47.5 -179.5t-130.5 -64.5q-76 0 -176 48t-121 48q-37 0 -56.5 -28.5t-19.5 -81.5v-19
h-113v33q0 117 46.5 180.5t131.5 63.5q67 0 166.5 -48t128.5 -48q40 0 60 28t20 84v17z" />
    <glyph glyph-name="Adieresis" unicode="&#xc4;" horiz-adv-x="1333" 
d="M608 1108l-178 -506h361zM563 1389h215l471 -1268l121 -21v-100h-553v100l129 13l15 26l-123 348h-447l-123 -346l21 -26l129 -15v-100h-441v100l123 19zM879 1837q53 0 91 -39.5t38 -95.5q0 -55 -38 -94t-91 -39q-55 0 -92 38.5t-37 94.5q0 57 37.5 96t91.5 39z
M457 1837q53 0 91 -39.5t38 -95.5q0 -55 -37.5 -94t-91.5 -39t-92.5 39t-38.5 94q0 56 38.5 95.5t92.5 39.5z" />
    <glyph glyph-name="Aring" unicode="&#xc5;" horiz-adv-x="1333" 
d="M608 1108l-178 -506h361zM563 1389h215l471 -1268l121 -21v-100h-553v100l129 13l15 26l-123 348h-447l-123 -346l21 -26l129 -15v-100h-441v100l123 19zM647 1866q-54 0 -92.5 -40t-38.5 -97t38.5 -96.5t92.5 -39.5q56 0 94.5 39.5t38.5 96.5q0 56 -39 96.5t-94 40.5z
M647 1972q100 0 170 -71t70 -172q0 -102 -70 -172t-170 -70t-168.5 69.5t-68.5 172.5q0 101 69 172t168 71z" />
    <glyph glyph-name="AE" unicode="&#xc6;" horiz-adv-x="1823" 
d="M854 1262l-385 -639h385v639zM537 1374h1163v-321h-141l-33 180l-27 27h-385v-488h244l28 29l21 147h121v-475h-121l-21 148l-28 28h-244v-532h451l28 33l33 217h141v-367h-1071v100l125 11l33 32v359h-457l-215 -361l15 -26l122 -15v-100h-438v100l123 15l672 1118
l-23 31l-116 10v100z" />
    <glyph glyph-name="Ccedilla" unicode="&#xc7;" horiz-adv-x="1307" 
d="M1231 49q-103 -37 -210.5 -55.5t-219.5 -18.5q-109 0 -205 23.5t-172 69.5q-160 95 -250 258.5t-90 359.5q0 157 54.5 291t158.5 233q97 94 226.5 141.5t289.5 47.5q103 0 207.5 -19t210.5 -57v-342h-150l-41 219l-28 35q-42 15 -82.5 23t-79.5 8q-214 0 -339.5 -155.5
t-125.5 -422.5q0 -274 131 -429t361 -155q25 0 56.5 5t67.5 14l31 31l49 247h150v-352zM743 0h98v-116q5 0 12.5 0.5t20.5 0.5q79 0 122.5 -41t43.5 -114q0 -91 -67 -146t-179 -55q-39 0 -79 5.5t-87 16.5v97q45 -9 74.5 -13t50.5 -4q63 0 95 19.5t32 56.5q0 32 -24.5 50
t-67.5 18q-12 0 -40 -4h-5v229z" />
    <glyph glyph-name="Egrave" unicode="&#xc8;" horiz-adv-x="1221" 
d="M59 0v100l125 11l33 32v1092l-33 29l-125 10v100h1033v-321h-142l-35 180l-22 27h-410v-488h267l28 29l21 147h121v-475h-121l-21 148l-28 28h-267v-532h478l24 33l33 217h141v-367h-1100zM274 1903h254l199 -390h-140z" />
    <glyph glyph-name="Eacute" unicode="&#xc9;" horiz-adv-x="1221" 
d="M59 0v100l125 11l33 32v1092l-33 29l-125 10v100h1033v-321h-142l-35 180l-22 27h-410v-488h267l28 29l21 147h121v-475h-121l-21 148l-28 28h-267v-532h478l24 33l33 217h141v-367h-1100zM719 1903h253l-315 -390h-137z" />
    <glyph glyph-name="Ecircumflex" unicode="&#xca;" horiz-adv-x="1221" 
d="M59 0v100l125 11l33 32v1092l-33 29l-125 10v100h1033v-321h-142l-35 180l-22 27h-410v-488h267l28 29l21 147h121v-475h-121l-21 148l-28 28h-267v-532h478l24 33l33 217h141v-367h-1100zM520 1903h180l225 -390h-157l-158 256l-156 -256h-159z" />
    <glyph glyph-name="Edieresis" unicode="&#xcb;" horiz-adv-x="1221" 
d="M59 0v100l125 11l33 32v1092l-33 29l-125 10v100h1033v-321h-142l-35 180l-22 27h-410v-488h267l28 29l21 147h121v-475h-121l-21 148l-28 28h-267v-532h478l24 33l33 217h141v-367h-1100zM821 1837q53 0 91 -39.5t38 -95.5q0 -55 -38 -94t-91 -39q-55 0 -92 38.5
t-37 94.5q0 57 37.5 96t91.5 39zM399 1837q53 0 91 -39.5t38 -95.5q0 -55 -37.5 -94t-91.5 -39t-92.5 39t-38.5 94q0 56 38.5 95.5t92.5 39.5z" />
    <glyph glyph-name="Igrave" unicode="&#xcc;" horiz-adv-x="725" 
d="M61 0v100l136 11l34 32v1092l-34 29l-136 10v100h613v-100l-137 -10l-33 -29v-1092l33 -32l137 -11v-100h-613zM28 1903h254l199 -390h-140z" />
    <glyph glyph-name="Iacute" unicode="&#xcd;" horiz-adv-x="725" 
d="M61 0v100l136 11l34 32v1092l-34 29l-136 10v100h613v-100l-137 -10l-33 -29v-1092l33 -32l137 -11v-100h-613zM473 1903h253l-315 -390h-137z" />
    <glyph glyph-name="Icircumflex" unicode="&#xce;" horiz-adv-x="725" 
d="M61 0v100l136 11l34 32v1092l-34 29l-136 10v100h613v-100l-137 -10l-33 -29v-1092l33 -32l137 -11v-100h-613zM274 1903h180l225 -390h-157l-158 256l-156 -256h-159z" />
    <glyph glyph-name="Idieresis" unicode="&#xcf;" horiz-adv-x="725" 
d="M61 0v100l136 11l34 32v1092l-34 29l-136 10v100h613v-100l-137 -10l-33 -29v-1092l33 -32l137 -11v-100h-613zM575 1837q53 0 91 -39.5t38 -95.5q0 -55 -38 -94t-91 -39q-55 0 -92 38.5t-37 94.5q0 57 37.5 96t91.5 39zM153 1837q53 0 91 -39.5t38 -95.5
q0 -55 -37.5 -94t-91.5 -39t-92.5 39t-38.5 94q0 56 38.5 95.5t92.5 39.5z" />
    <glyph glyph-name="Eth" unicode="&#xd0;" horiz-adv-x="1466" 
d="M487 1260v-478h289v-125h-289v-542h119q243 0 363.5 142.5t120.5 430.5q0 289 -120 430.5t-364 141.5h-119zM59 1374h596q352 0 546 -180.5t194 -507.5q0 -330 -191.5 -508t-548.5 -178h-596v100l123 11l33 32v514h-184v125h184v449l-33 33l-123 10v100z" />
    <glyph glyph-name="Ntilde" unicode="&#xd1;" horiz-adv-x="1489" 
d="M53 0v98l121 17l37 37v1083l-29 29l-129 10v100h469v-55l627 -973v877l-37 39l-125 12v100h467v-100l-121 -12l-35 -39v-1223h-229l-709 1100v-948l33 -37l127 -17v-98h-467zM964 1862h111v-33q0 -115 -47.5 -179.5t-130.5 -64.5q-76 0 -176 48t-121 48
q-37 0 -56.5 -28.5t-19.5 -81.5v-19h-113v33q0 117 46.5 180.5t131.5 63.5q67 0 166.5 -48t128.5 -48q40 0 60 28t20 84v17z" />
    <glyph glyph-name="Ograve" unicode="&#xd2;" horiz-adv-x="1540" 
d="M778 1274q-176 0 -282.5 -158.5t-106.5 -425.5q0 -271 106.5 -434.5t278.5 -163.5q174 0 280.5 159.5t106.5 424.5q0 274 -104.5 436t-278.5 162zM84 694q0 168 53 302t158 231q97 89 216.5 133.5t262.5 44.5q132 0 244.5 -40t206.5 -120q118 -102 180.5 -246t62.5 -317
q0 -163 -55.5 -299t-163.5 -236q-93 -87 -212 -133.5t-249 -46.5q-317 0 -510.5 200t-193.5 527zM434 1903h254l199 -390h-140z" />
    <glyph glyph-name="Oacute" unicode="&#xd3;" horiz-adv-x="1540" 
d="M778 1274q-176 0 -282.5 -158.5t-106.5 -425.5q0 -271 106.5 -434.5t278.5 -163.5q174 0 280.5 159.5t106.5 424.5q0 274 -104.5 436t-278.5 162zM84 694q0 168 53 302t158 231q97 89 216.5 133.5t262.5 44.5q132 0 244.5 -40t206.5 -120q118 -102 180.5 -246t62.5 -317
q0 -163 -55.5 -299t-163.5 -236q-93 -87 -212 -133.5t-249 -46.5q-317 0 -510.5 200t-193.5 527zM879 1903h253l-315 -390h-137z" />
    <glyph glyph-name="Ocircumflex" unicode="&#xd4;" horiz-adv-x="1540" 
d="M778 1274q-176 0 -282.5 -158.5t-106.5 -425.5q0 -271 106.5 -434.5t278.5 -163.5q174 0 280.5 159.5t106.5 424.5q0 274 -104.5 436t-278.5 162zM84 694q0 168 53 302t158 231q97 89 216.5 133.5t262.5 44.5q132 0 244.5 -40t206.5 -120q118 -102 180.5 -246t62.5 -317
q0 -163 -55.5 -299t-163.5 -236q-93 -87 -212 -133.5t-249 -46.5q-317 0 -510.5 200t-193.5 527zM680 1903h180l225 -390h-157l-158 256l-156 -256h-159z" />
    <glyph glyph-name="Otilde" unicode="&#xd5;" horiz-adv-x="1540" 
d="M778 1274q-176 0 -282.5 -158.5t-106.5 -425.5q0 -271 106.5 -434.5t278.5 -163.5q174 0 280.5 159.5t106.5 424.5q0 274 -104.5 436t-278.5 162zM84 694q0 168 53 302t158 231q97 89 216.5 133.5t262.5 44.5q132 0 244.5 -40t206.5 -120q118 -102 180.5 -246t62.5 -317
q0 -163 -55.5 -299t-163.5 -236q-93 -87 -212 -133.5t-249 -46.5q-317 0 -510.5 200t-193.5 527zM989 1862h111v-33q0 -115 -47.5 -179.5t-130.5 -64.5q-76 0 -176 48t-121 48q-37 0 -56.5 -28.5t-19.5 -81.5v-19h-113v33q0 117 46.5 180.5t131.5 63.5q67 0 166.5 -48
t128.5 -48q40 0 60 28t20 84v17z" />
    <glyph glyph-name="Odieresis" unicode="&#xd6;" horiz-adv-x="1540" 
d="M778 1274q-176 0 -282.5 -158.5t-106.5 -425.5q0 -271 106.5 -434.5t278.5 -163.5q174 0 280.5 159.5t106.5 424.5q0 274 -104.5 436t-278.5 162zM84 694q0 168 53 302t158 231q97 89 216.5 133.5t262.5 44.5q132 0 244.5 -40t206.5 -120q118 -102 180.5 -246t62.5 -317
q0 -163 -55.5 -299t-163.5 -236q-93 -87 -212 -133.5t-249 -46.5q-317 0 -510.5 200t-193.5 527zM981 1837q53 0 91 -39.5t38 -95.5q0 -55 -38 -94t-91 -39q-55 0 -92 38.5t-37 94.5q0 57 37.5 96t91.5 39zM559 1837q53 0 91 -39.5t38 -95.5q0 -55 -37.5 -94t-91.5 -39
t-92.5 39t-38.5 94q0 56 38.5 95.5t92.5 39.5z" />
    <glyph glyph-name="multiply" unicode="&#xd7;" horiz-adv-x="1706" 
d="M862 729l461 459l117 -117l-459 -461l459 -458l-117 -119l-461 461l-459 -461l-116 119l458 458l-458 461l116 117z" />
    <glyph glyph-name="Oslash" unicode="&#xd8;" horiz-adv-x="1540" 
d="M1073 1102l-532 -914q52 -47 111 -70.5t126 -23.5q176 0 286 158.5t110 417.5q0 138 -24.5 242.5t-76.5 189.5zM993 1196q-47 40 -100 59t-115 19q-179 0 -290 -156.5t-111 -412.5q0 -119 22 -221t68 -193zM1194 1542l100 -57l-116 -201q150 -119 221 -265.5t71 -334.5
q0 -162 -57 -301t-166 -240q-93 -87 -215.5 -131.5t-267.5 -44.5q-85 0 -162 18t-149 54l-121 -209l-94 68l116 200q-132 103 -201 253t-69 333q0 327 190 524t506 197q77 0 151 -15.5t146 -46.5z" />
    <glyph glyph-name="Ugrave" unicode="&#xd9;" horiz-adv-x="1444" 
d="M41 1374h588v-100l-127 -10l-29 -29v-717q0 -205 78 -293t256 -88q164 0 237.5 93.5t73.5 306.5v690l-31 35l-131 12v100h465v-100l-125 -12l-28 -35v-711q0 -285 -128 -413t-413 -128q-149 0 -261.5 43.5t-176.5 124.5q-49 64 -69.5 146.5t-20.5 236.5v709l-29 29
l-129 10v100zM387 1903h254l199 -390h-140z" />
    <glyph glyph-name="Uacute" unicode="&#xda;" horiz-adv-x="1444" 
d="M41 1374h588v-100l-127 -10l-29 -29v-717q0 -205 78 -293t256 -88q164 0 237.5 93.5t73.5 306.5v690l-31 35l-131 12v100h465v-100l-125 -12l-28 -35v-711q0 -285 -128 -413t-413 -128q-149 0 -261.5 43.5t-176.5 124.5q-49 64 -69.5 146.5t-20.5 236.5v709l-29 29
l-129 10v100zM832 1903h253l-315 -390h-137z" />
    <glyph glyph-name="Ucircumflex" unicode="&#xdb;" horiz-adv-x="1444" 
d="M41 1374h588v-100l-127 -10l-29 -29v-717q0 -205 78 -293t256 -88q164 0 237.5 93.5t73.5 306.5v690l-31 35l-131 12v100h465v-100l-125 -12l-28 -35v-711q0 -285 -128 -413t-413 -128q-149 0 -261.5 43.5t-176.5 124.5q-49 64 -69.5 146.5t-20.5 236.5v709l-29 29
l-129 10v100zM633 1903h180l225 -390h-157l-158 256l-156 -256h-159z" />
    <glyph glyph-name="Udieresis" unicode="&#xdc;" horiz-adv-x="1444" 
d="M41 1374h588v-100l-127 -10l-29 -29v-717q0 -205 78 -293t256 -88q164 0 237.5 93.5t73.5 306.5v690l-31 35l-131 12v100h465v-100l-125 -12l-28 -35v-711q0 -285 -128 -413t-413 -128q-149 0 -261.5 43.5t-176.5 124.5q-49 64 -69.5 146.5t-20.5 236.5v709l-29 29
l-129 10v100zM934 1837q53 0 91 -39.5t38 -95.5q0 -55 -38 -94t-91 -39q-55 0 -92 38.5t-37 94.5q0 57 37.5 96t91.5 39zM512 1837q53 0 91 -39.5t38 -95.5q0 -55 -37.5 -94t-91.5 -39t-92.5 39t-38.5 94q0 56 38.5 95.5t92.5 39.5z" />
    <glyph glyph-name="Yacute" unicode="&#xdd;" horiz-adv-x="1249" 
d="M-23 1374h560v-100l-115 -10l-19 -25l281 -520l293 502l-16 32l-123 21v100h446v-100l-121 -23l-389 -661v-449l33 -28l139 -11v-102h-614v102l137 11l35 28v400l-395 712l-132 21v100zM734 1903h253l-315 -390h-137z" />
    <glyph glyph-name="Thorn" unicode="&#xde;" horiz-adv-x="1202" 
d="M494 385q29 -2 44 -3t27 -1q163 0 243.5 80.5t80.5 243.5q0 151 -80 227t-240 76q-22 0 -70 -4h-5v-619zM66 1374h596v-100l-136 -10l-32 -33v-109h116q291 0 426 -99t135 -312t-141 -331t-397 -118q-20 0 -55 1.5t-84 4.5v-125l32 -32l136 -11v-100h-596v100l122 11
l35 32v1092l-28 29l-129 10v100z" />
    <glyph glyph-name="germandbls" unicode="&#xdf;" horiz-adv-x="1315" 
d="M1102 965q-22 2 -34 3t-21 1q-88 0 -138.5 -40.5t-50.5 -109.5q0 -86 150 -175l12 -7q152 -91 203 -159.5t51 -162.5q0 -143 -110.5 -237t-282.5 -94q-59 0 -125.5 10t-141.5 31v292h127l17 -190q24 -15 52 -23t58 -8q77 0 123.5 42.5t46.5 111.5q0 108 -222 229
q-39 21 -60 33q-68 38 -105 98.5t-37 132.5q0 99 62.5 171t169.5 98q11 60 15.5 95t4.5 60q0 106 -51 170t-135 64q-127 0 -189.5 -122t-62.5 -368v-780l8 -31l66 -6v-94h-465v94l115 8l20 29v766q0 287 150.5 455t404.5 168q183 0 290 -99t107 -268q0 -45 -5.5 -91.5
t-16.5 -96.5z" />
    <glyph glyph-name="agrave" unicode="&#xe0;" horiz-adv-x="1114" 
d="M702 201v334q-202 -45 -276 -98t-74 -144q0 -71 41 -112.5t111 -41.5q39 0 88.5 15.5t109.5 46.5zM702 117q-104 -71 -189 -103t-163 -32q-118 0 -193 74.5t-75 191.5q0 144 110 222t513 169v61q0 111 -47 162t-148 51q-22 0 -46 -3t-52 -9v-192h-189q-49 0 -71.5 18
t-22.5 57q0 96 129 167t317 71q211 0 297 -81t86 -282v-530l27 -29l109 -10v-90h-365zM221 1520h254l199 -390h-140z" />
    <glyph glyph-name="aacute" unicode="&#xe1;" horiz-adv-x="1114" 
d="M702 201v334q-202 -45 -276 -98t-74 -144q0 -71 41 -112.5t111 -41.5q39 0 88.5 15.5t109.5 46.5zM702 117q-104 -71 -189 -103t-163 -32q-118 0 -193 74.5t-75 191.5q0 144 110 222t513 169v61q0 111 -47 162t-148 51q-22 0 -46 -3t-52 -9v-192h-189q-49 0 -71.5 18
t-22.5 57q0 96 129 167t317 71q211 0 297 -81t86 -282v-530l27 -29l109 -10v-90h-365zM666 1520h253l-315 -390h-137z" />
    <glyph glyph-name="acircumflex" unicode="&#xe2;" horiz-adv-x="1114" 
d="M702 201v334q-202 -45 -276 -98t-74 -144q0 -71 41 -112.5t111 -41.5q39 0 88.5 15.5t109.5 46.5zM702 117q-104 -71 -189 -103t-163 -32q-118 0 -193 74.5t-75 191.5q0 144 110 222t513 169v61q0 111 -47 162t-148 51q-22 0 -46 -3t-52 -9v-192h-189q-49 0 -71.5 18
t-22.5 57q0 96 129 167t317 71q211 0 297 -81t86 -282v-530l27 -29l109 -10v-90h-365zM467 1520h180l225 -390h-157l-158 256l-156 -256h-159z" />
    <glyph glyph-name="atilde" unicode="&#xe3;" horiz-adv-x="1114" 
d="M702 201v334q-202 -45 -276 -98t-74 -144q0 -71 41 -112.5t111 -41.5q39 0 88.5 15.5t109.5 46.5zM702 117q-104 -71 -189 -103t-163 -32q-118 0 -193 74.5t-75 191.5q0 144 110 222t513 169v61q0 111 -47 162t-148 51q-22 0 -46 -3t-52 -9v-192h-189q-49 0 -71.5 18
t-22.5 57q0 96 129 167t317 71q211 0 297 -81t86 -282v-530l27 -29l109 -10v-90h-365zM776 1479h111v-33q0 -115 -47.5 -179.5t-130.5 -64.5q-76 0 -176 48t-121 48q-37 0 -56.5 -28.5t-19.5 -81.5v-19h-113v33q0 117 46.5 180.5t131.5 63.5q67 0 166.5 -48t128.5 -48
q40 0 60 28t20 84v17z" />
    <glyph glyph-name="adieresis" unicode="&#xe4;" horiz-adv-x="1114" 
d="M702 201v334q-202 -45 -276 -98t-74 -144q0 -71 41 -112.5t111 -41.5q39 0 88.5 15.5t109.5 46.5zM702 117q-104 -71 -189 -103t-163 -32q-118 0 -193 74.5t-75 191.5q0 144 110 222t513 169v61q0 111 -47 162t-148 51q-22 0 -46 -3t-52 -9v-192h-189q-49 0 -71.5 18
t-22.5 57q0 96 129 167t317 71q211 0 297 -81t86 -282v-530l27 -29l109 -10v-90h-365zM768 1454q53 0 91 -39.5t38 -95.5q0 -55 -38 -94t-91 -39q-55 0 -92 38.5t-37 94.5q0 57 37.5 96t91.5 39zM346 1454q53 0 91 -39.5t38 -95.5q0 -55 -37.5 -94t-91.5 -39t-92.5 39
t-38.5 94q0 56 38.5 95.5t92.5 39.5z" />
    <glyph glyph-name="aring" unicode="&#xe5;" horiz-adv-x="1114" 
d="M702 535q-202 -45 -276 -98t-74 -144q0 -71 41 -112.5t111 -41.5q39 0 88.5 15.5t109.5 46.5v334zM958 659v-530l27 -29l109 -10v-90h-365l-27 117q-104 -71 -189 -103t-163 -32q-118 0 -193 74.5t-75 191.5q0 144 110 222t513 169v61q0 111 -47 162t-148 51
q-22 0 -46 -3t-52 -9v-192h-189q-49 0 -71.5 18t-22.5 57q0 96 129 167t317 71q211 0 297 -81t86 -282zM565 1497q-55 0 -93 -39t-38 -96t38.5 -97t92.5 -40q55 0 94 40.5t39 96.5t-38.5 95.5t-94.5 39.5zM565 1604q100 0 170 -70.5t70 -171.5t-70 -172.5t-170 -71.5
t-168.5 70.5t-68.5 173.5q0 100 69.5 171t167.5 71z" />
    <glyph glyph-name="ae" unicode="&#xe6;" horiz-adv-x="1573" 
d="M909 623h334v28q0 129 -40 195.5t-118 66.5q-85 0 -129.5 -74t-46.5 -216zM672 201v334q-200 -55 -263 -104.5t-63 -137.5q0 -71 38.5 -112.5t102.5 -41.5q36 0 81.5 15t103.5 47zM397 709h-182q-46 0 -66 17.5t-20 57.5q0 97 123 167.5t303 70.5q102 0 173 -27.5
t122 -85.5q59 56 130.5 84.5t152.5 28.5q175 0 273.5 -120.5t98.5 -336.5q0 -8 -1 -24.5t-1 -24.5h-590v-248q69 -62 144 -92.5t160 -30.5q73 0 141.5 26t144.5 83v-152q-90 -60 -183 -90t-190 -30q-113 0 -213.5 37.5t-183.5 111.5q-103 -75 -198 -112t-185 -37
q-123 0 -194.5 73t-71.5 199q0 140 107 218t481 167v61q0 113 -45.5 163t-147.5 50q-16 0 -37 -3t-45 -9v-192z" />
    <glyph glyph-name="ccedilla" unicode="&#xe7;" horiz-adv-x="975" 
d="M950 92q-101 -55 -196 -81.5t-191 -26.5q-220 0 -355.5 139t-135.5 364q0 233 148.5 382t379.5 149q151 0 244.5 -62.5t93.5 -160.5q0 -61 -41.5 -100.5t-105.5 -39.5q-35 0 -64.5 9.5t-56.5 29.5v217q-17 4 -29.5 5.5t-22.5 1.5q-114 0 -191 -107.5t-77 -273.5
q0 -182 85 -287t231 -105q66 0 138 23.5t146 69.5v-146zM496 0h98v-116q5 0 12.5 0.5t20.5 0.5q79 0 122.5 -41t43.5 -114q0 -91 -67 -146t-179 -55q-39 0 -79 5.5t-87 16.5v97q45 -9 74.5 -13t50.5 -4q63 0 95 19.5t32 56.5q0 32 -24.5 50t-67.5 18q-12 0 -40 -4h-5v229z
" />
    <glyph glyph-name="egrave" unicode="&#xe8;" horiz-adv-x="1073" 
d="M739 631v22q0 125 -46 191.5t-132 66.5q-94 0 -151 -74.5t-62 -205.5h391zM1008 254v-152q-105 -60 -212 -90t-214 -30q-229 0 -367.5 141t-138.5 373q0 233 141.5 380.5t364.5 147.5q202 0 314 -121.5t112 -341.5v-39h-670v-6q0 -175 88 -275t242 -100q81 0 165 28
t175 85zM201 1520h254l199 -390h-140z" />
    <glyph glyph-name="eacute" unicode="&#xe9;" horiz-adv-x="1073" 
d="M739 631v22q0 125 -46 191.5t-132 66.5q-94 0 -151 -74.5t-62 -205.5h391zM1008 254v-152q-105 -60 -212 -90t-214 -30q-229 0 -367.5 141t-138.5 373q0 233 141.5 380.5t364.5 147.5q202 0 314 -121.5t112 -341.5v-39h-670v-6q0 -175 88 -275t242 -100q81 0 165 28
t175 85zM646 1520h253l-315 -390h-137z" />
    <glyph glyph-name="ecircumflex" unicode="&#xea;" horiz-adv-x="1073" 
d="M739 631v22q0 125 -46 191.5t-132 66.5q-94 0 -151 -74.5t-62 -205.5h391zM1008 254v-152q-105 -60 -212 -90t-214 -30q-229 0 -367.5 141t-138.5 373q0 233 141.5 380.5t364.5 147.5q202 0 314 -121.5t112 -341.5v-39h-670v-6q0 -175 88 -275t242 -100q81 0 165 28
t175 85zM447 1520h180l225 -390h-157l-158 256l-156 -256h-159z" />
    <glyph glyph-name="edieresis" unicode="&#xeb;" horiz-adv-x="1073" 
d="M739 631v22q0 125 -46 191.5t-132 66.5q-94 0 -151 -74.5t-62 -205.5h391zM1008 254v-152q-105 -60 -212 -90t-214 -30q-229 0 -367.5 141t-138.5 373q0 233 141.5 380.5t364.5 147.5q202 0 314 -121.5t112 -341.5v-39h-670v-6q0 -175 88 -275t242 -100q81 0 165 28
t175 85zM748 1454q53 0 91 -39.5t38 -95.5q0 -55 -38 -94t-91 -39q-55 0 -92 38.5t-37 94.5q0 57 37.5 96t91.5 39zM326 1454q53 0 91 -39.5t38 -95.5q0 -55 -37.5 -94t-91.5 -39t-92.5 39t-38.5 94q0 56 38.5 95.5t92.5 39.5z" />
    <glyph glyph-name="igrave" unicode="&#xec;" horiz-adv-x="625" 
d="M354 1016h99v-885l30 -31l115 -8v-92h-537v92l111 8l29 31v707h-135v82zM-21 1520h254l199 -390h-140z" />
    <glyph glyph-name="iacute" unicode="&#xed;" horiz-adv-x="625" 
d="M354 1016h99v-885l30 -31l115 -8v-92h-537v92l111 8l29 31v707h-135v82zM424 1520h253l-315 -390h-137z" />
    <glyph glyph-name="icircumflex" unicode="&#xee;" horiz-adv-x="625" 
d="M354 1016h99v-885l30 -31l115 -8v-92h-537v92l111 8l29 31v707h-135v82zM225 1520h180l225 -390h-157l-158 256l-156 -256h-159z" />
    <glyph glyph-name="idieresis" unicode="&#xef;" horiz-adv-x="625" 
d="M354 1016h99v-885l30 -31l115 -8v-92h-537v92l111 8l29 31v707h-135v82zM526 1454q53 0 91 -39.5t38 -95.5q0 -55 -38 -94t-91 -39q-55 0 -92 38.5t-37 94.5q0 57 37.5 96t91.5 39zM104 1454q53 0 91 -39.5t38 -95.5q0 -55 -37.5 -94t-91.5 -39t-92.5 39t-38.5 94
q0 56 38.5 95.5t92.5 39.5z" />
    <glyph glyph-name="eth" unicode="&#xf0;" horiz-adv-x="1165" 
d="M764 868q-39 13 -72 19t-61 6q-133 0 -206 -103.5t-73 -293.5q0 -195 63.5 -300.5t180.5 -105.5q116 0 178 112.5t62 323.5q0 104 -18 188t-54 154zM708 986q-30 50 -65 98.5t-78 99.5l-246 -146l-49 90l224 132l-66 73l-166 8l-6 72l297 111l154 -154l219 127l51 -88
l-205 -121q167 -195 249.5 -379.5t82.5 -365.5q0 -255 -138 -408t-366 -153q-241 0 -384.5 140t-143.5 376q0 219 137 358t354 139q45 0 79.5 -2.5t65.5 -6.5z" />
    <glyph glyph-name="ntilde" unicode="&#xf1;" horiz-adv-x="1239" 
d="M63 0v92l105 8l29 31v707h-140v82l295 96h99v-121q117 65 202 95t148 30q140 0 209 -84t69 -256v-549l27 -31l108 -8v-92h-501v92l88 8l28 31v490q0 114 -44 167.5t-140 53.5q-37 0 -85.5 -9t-108.5 -26v-676l28 -31l90 -8v-92h-506zM840 1479h111v-33
q0 -115 -47.5 -179.5t-130.5 -64.5q-76 0 -176 48t-121 48q-37 0 -56.5 -28.5t-19.5 -81.5v-19h-113v33q0 117 46.5 180.5t131.5 63.5q67 0 166.5 -48t128.5 -48q40 0 60 28t20 84v17z" />
    <glyph glyph-name="ograve" unicode="&#xf2;" horiz-adv-x="1182" 
d="M598 913q-112 0 -175 -107t-63 -300q0 -196 62.5 -305t173.5 -109q116 0 179 106t63 302q0 195 -63.5 304t-176.5 109zM606 1022q236 0 375 -142.5t139 -385.5q0 -230 -145 -370t-385 -140q-231 0 -372.5 141.5t-141.5 372.5q0 237 145 380.5t385 143.5zM256 1520h254
l199 -390h-140z" />
    <glyph glyph-name="oacute" unicode="&#xf3;" horiz-adv-x="1182" 
d="M598 913q-112 0 -175 -107t-63 -300q0 -196 62.5 -305t173.5 -109q116 0 179 106t63 302q0 195 -63.5 304t-176.5 109zM606 1022q236 0 375 -142.5t139 -385.5q0 -230 -145 -370t-385 -140q-231 0 -372.5 141.5t-141.5 372.5q0 237 145 380.5t385 143.5zM701 1520h253
l-315 -390h-137z" />
    <glyph glyph-name="ocircumflex" unicode="&#xf4;" horiz-adv-x="1182" 
d="M598 913q-112 0 -175 -107t-63 -300q0 -196 62.5 -305t173.5 -109q116 0 179 106t63 302q0 195 -63.5 304t-176.5 109zM606 1022q236 0 375 -142.5t139 -385.5q0 -230 -145 -370t-385 -140q-231 0 -372.5 141.5t-141.5 372.5q0 237 145 380.5t385 143.5zM502 1520h180
l225 -390h-157l-158 256l-156 -256h-159z" />
    <glyph glyph-name="otilde" unicode="&#xf5;" horiz-adv-x="1182" 
d="M598 913q-112 0 -175 -107t-63 -300q0 -196 62.5 -305t173.5 -109q116 0 179 106t63 302q0 195 -63.5 304t-176.5 109zM606 1022q236 0 375 -142.5t139 -385.5q0 -230 -145 -370t-385 -140q-231 0 -372.5 141.5t-141.5 372.5q0 237 145 380.5t385 143.5zM811 1479h111
v-33q0 -115 -47.5 -179.5t-130.5 -64.5q-76 0 -176 48t-121 48q-37 0 -56.5 -28.5t-19.5 -81.5v-19h-113v33q0 117 46.5 180.5t131.5 63.5q67 0 166.5 -48t128.5 -48q40 0 60 28t20 84v17z" />
    <glyph glyph-name="odieresis" unicode="&#xf6;" horiz-adv-x="1182" 
d="M598 913q-112 0 -175 -107t-63 -300q0 -196 62.5 -305t173.5 -109q116 0 179 106t63 302q0 195 -63.5 304t-176.5 109zM606 1022q236 0 375 -142.5t139 -385.5q0 -230 -145 -370t-385 -140q-231 0 -372.5 141.5t-141.5 372.5q0 237 145 380.5t385 143.5zM803 1454
q53 0 91 -39.5t38 -95.5q0 -55 -38 -94t-91 -39q-55 0 -92 38.5t-37 94.5q0 57 37.5 96t91.5 39zM381 1454q53 0 91 -39.5t38 -95.5q0 -55 -37.5 -94t-91.5 -39t-92.5 39t-38.5 94q0 56 38.5 95.5t92.5 39.5z" />
    <glyph glyph-name="divide" unicode="&#xf7;" horiz-adv-x="1706" 
d="M854 367q57 0 97 -40.5t40 -97.5q0 -56 -39.5 -95.5t-97.5 -39.5t-97.5 39t-39.5 96t40.5 97.5t96.5 40.5zM1452 694v-166h-1198v166h1198zM854 1128q57 0 97 -41t40 -98q0 -56 -39.5 -95.5t-97.5 -39.5t-97.5 39t-39.5 96t40.5 98t96.5 41z" />
    <glyph glyph-name="oslash" unicode="&#xf8;" horiz-adv-x="1182" 
d="M791 780l-347 -620q28 -34 65.5 -51t84.5 -17q120 0 186 103t66 290q0 96 -13.5 167t-41.5 128zM727 868q-31 24 -63 34.5t-70 10.5q-113 0 -179.5 -106.5t-66.5 -292.5q0 -66 9.5 -129t27.5 -123zM897 1169l86 -49l-96 -172q115 -71 174 -182.5t59 -259.5
q0 -235 -139.5 -378.5t-366.5 -143.5q-75 0 -134 10t-111 31l-111 -195l-84 55l107 187q-103 74 -154 181.5t-51 246.5q0 239 142.5 379.5t385.5 140.5q49 0 97 -7.5t96 -23.5z" />
    <glyph glyph-name="ugrave" unicode="&#xf9;" horiz-adv-x="1229" 
d="M336 1022h98v-635q0 -122 45.5 -175.5t149.5 -53.5q35 0 77.5 7.5t98.5 24.5v654h-133v82l291 96h94v-891l28 -31l107 -8v-92h-387v113q-107 -70 -188.5 -100.5t-155.5 -30.5q-142 0 -211.5 86t-69.5 264v512h-133v82zM278 1520h254l199 -390h-140z" />
    <glyph glyph-name="uacute" unicode="&#xfa;" horiz-adv-x="1229" 
d="M336 1022h98v-635q0 -122 45.5 -175.5t149.5 -53.5q35 0 77.5 7.5t98.5 24.5v654h-133v82l291 96h94v-891l28 -31l107 -8v-92h-387v113q-107 -70 -188.5 -100.5t-155.5 -30.5q-142 0 -211.5 86t-69.5 264v512h-133v82zM723 1520h253l-315 -390h-137z" />
    <glyph glyph-name="ucircumflex" unicode="&#xfb;" horiz-adv-x="1229" 
d="M336 1022h98v-635q0 -122 45.5 -175.5t149.5 -53.5q35 0 77.5 7.5t98.5 24.5v654h-133v82l291 96h94v-891l28 -31l107 -8v-92h-387v113q-107 -70 -188.5 -100.5t-155.5 -30.5q-142 0 -211.5 86t-69.5 264v512h-133v82zM524 1520h180l225 -390h-157l-158 256l-156 -256
h-159z" />
    <glyph glyph-name="udieresis" unicode="&#xfc;" horiz-adv-x="1229" 
d="M336 1022h98v-635q0 -122 45.5 -175.5t149.5 -53.5q35 0 77.5 7.5t98.5 24.5v654h-133v82l291 96h94v-891l28 -31l107 -8v-92h-387v113q-107 -70 -188.5 -100.5t-155.5 -30.5q-142 0 -211.5 86t-69.5 264v512h-133v82zM825 1454q53 0 91 -39.5t38 -95.5q0 -55 -38 -94
t-91 -39q-55 0 -92 38.5t-37 94.5q0 57 37.5 96t91.5 39zM403 1454q53 0 91 -39.5t38 -95.5q0 -55 -37.5 -94t-91.5 -39t-92.5 39t-38.5 94q0 56 38.5 95.5t92.5 39.5z" />
    <glyph glyph-name="yacute" unicode="&#xfd;" horiz-adv-x="1055" 
d="M-8 995h520v-88l-104 -12l-21 -29l221 -579l223 577l-18 31l-108 12v88h393v-88l-111 -18l-395 -961q-73 -176 -175 -276.5t-206 -100.5q-72 0 -124 45.5t-52 106.5q0 44 27.5 81.5t78.5 63.5l178 -122q42 33 82.5 96.5t77.5 152.5l-364 914l-123 18v88zM637 1520h253
l-315 -390h-137z" />
    <glyph glyph-name="thorn" unicode="&#xfe;" horiz-adv-x="1210" 
d="M441 123q32 -7 64.5 -10.5t65.5 -3.5q138 0 220.5 107t82.5 288q0 160 -72 251t-200 91q-34 0 -74 -9.5t-88 -29.5zM51 -449v95l113 10l26 31v1648h-149v82l309 96h90v-620q97 67 175 98t149 31q167 0 277 -136.5t110 -346.5q0 -247 -147 -393t-396 -146q-42 0 -83.5 2.5
t-83.5 7.5l-1 -327l31 -29l129 -8v-95h-549z" />
    <glyph glyph-name="ydieresis" unicode="&#xff;" horiz-adv-x="1055" 
d="M-8 995h520v-88l-104 -12l-21 -29l221 -579l223 577l-18 31l-108 12v88h393v-88l-111 -18l-395 -961q-73 -176 -175 -276.5t-206 -100.5q-72 0 -124 45.5t-52 106.5q0 44 27.5 81.5t78.5 63.5l178 -122q42 33 82.5 96.5t77.5 152.5l-364 914l-123 18v88zM739 1454
q53 0 91 -39.5t38 -95.5q0 -55 -38 -94t-91 -39q-55 0 -92 38.5t-37 94.5q0 57 37.5 96t91.5 39zM317 1454q53 0 91 -39.5t38 -95.5q0 -55 -37.5 -94t-91.5 -39t-92.5 39t-38.5 94q0 56 38.5 95.5t92.5 39.5z" />
    <glyph glyph-name="Amacron" unicode="&#x100;" horiz-adv-x="1333" 
d="M608 1108l-178 -506h361zM563 1389h215l471 -1268l121 -21v-100h-553v100l129 13l15 26l-123 348h-447l-123 -346l21 -26l129 -15v-100h-441v100l123 19zM334 1636h678v-145h-678v145z" />
    <glyph glyph-name="amacron" unicode="&#x101;" horiz-adv-x="1114" 
d="M702 201v334q-202 -45 -276 -98t-74 -144q0 -71 41 -112.5t111 -41.5q39 0 88.5 15.5t109.5 46.5zM702 117q-104 -71 -189 -103t-163 -32q-118 0 -193 74.5t-75 191.5q0 144 110 222t513 169v61q0 111 -47 162t-148 51q-22 0 -46 -3t-52 -9v-192h-189q-49 0 -71.5 18
t-22.5 57q0 96 129 167t317 71q211 0 297 -81t86 -282v-530l27 -29l109 -10v-90h-365zM249 1270h678v-145h-678v145z" />
    <glyph glyph-name="Abreve" unicode="&#x102;" horiz-adv-x="1333" 
d="M608 1108l-178 -506h361zM563 1389h215l471 -1268l121 -21v-100h-553v100l129 13l15 26l-123 348h-447l-123 -346l21 -26l129 -15v-100h-441v100l123 19zM361 1803l104 -3v-12q0 -84 46 -117.5t163 -33.5q115 0 161 33.5t46 117.5v12l104 3v-23q0 -156 -71.5 -222.5
t-239.5 -66.5q-169 0 -241 65.5t-72 217.5v29z" />
    <glyph glyph-name="abreve" unicode="&#x103;" horiz-adv-x="1114" 
d="M702 201v334q-202 -45 -276 -98t-74 -144q0 -71 41 -112.5t111 -41.5q39 0 88.5 15.5t109.5 46.5zM702 117q-104 -71 -189 -103t-163 -32q-118 0 -193 74.5t-75 191.5q0 144 110 222t513 169v61q0 111 -47 162t-148 51q-22 0 -46 -3t-52 -9v-192h-189q-49 0 -71.5 18
t-22.5 57q0 96 129 167t317 71q211 0 297 -81t86 -282v-530l27 -29l109 -10v-90h-365zM276 1437l104 -3v-12q0 -84 46 -117.5t163 -33.5q115 0 161 33.5t46 117.5v12l104 3v-23q0 -156 -71.5 -222.5t-239.5 -66.5q-169 0 -241 65.5t-72 217.5v29z" />
    <glyph glyph-name="Aogonek" unicode="&#x104;" horiz-adv-x="1333" 
d="M608 1108l-178 -506h361zM563 1389h215l471 -1268l121 -21v-100h-553v100l129 13l15 26l-123 348h-447l-123 -346l21 -26l129 -15v-100h-441v100l123 19zM1184 0h110q-49 -45 -75.5 -97.5t-26.5 -105.5q0 -52 29.5 -80t85.5 -28q12 0 27.5 1.5t35.5 3.5v-138
q-26 -7 -55 -11t-58 -4q-105 0 -160 47.5t-55 137.5q0 69 37.5 142t104.5 132z" />
    <glyph glyph-name="aogonek" unicode="&#x105;" horiz-adv-x="1114" 
d="M702 201v334q-202 -45 -276 -98t-74 -144q0 -71 41 -112.5t111 -41.5q39 0 88.5 15.5t109.5 46.5zM702 117q-104 -71 -189 -103t-163 -32q-118 0 -193 74.5t-75 191.5q0 144 110 222t513 169v61q0 111 -47 162t-148 51q-22 0 -46 -3t-52 -9v-192h-189q-49 0 -71.5 18
t-22.5 57q0 96 129 167t317 71q211 0 297 -81t86 -282v-530l27 -29l109 -10v-90h-365zM908 -17h110q-49 -45 -75.5 -97.5t-26.5 -105.5q0 -52 29.5 -80t85.5 -28q12 0 27.5 1.5t35.5 3.5v-138q-26 -7 -55 -11t-58 -4q-105 0 -160 47.5t-55 137.5q0 69 37.5 142t104.5 132z
" />
    <glyph glyph-name="Cacute" unicode="&#x106;" horiz-adv-x="1307" 
d="M1231 49q-103 -37 -210.5 -55.5t-219.5 -18.5q-109 0 -205 23.5t-172 69.5q-160 95 -250 258.5t-90 359.5q0 157 54.5 291t158.5 233q97 94 226.5 141.5t289.5 47.5q103 0 207.5 -19t210.5 -57v-342h-150l-41 219l-28 35q-42 15 -82.5 23t-79.5 8q-214 0 -339.5 -155.5
t-125.5 -422.5q0 -274 131 -429t361 -155q25 0 56.5 5t67.5 14l31 31l49 247h150v-352zM871 1903h253l-315 -390h-137z" />
    <glyph glyph-name="cacute" unicode="&#x107;" horiz-adv-x="975" 
d="M950 92q-101 -55 -196 -81.5t-191 -26.5q-220 0 -355.5 139t-135.5 364q0 233 148.5 382t379.5 149q151 0 244.5 -62.5t93.5 -160.5q0 -61 -41.5 -100.5t-105.5 -39.5q-35 0 -64.5 9.5t-56.5 29.5v217q-17 4 -29.5 5.5t-22.5 1.5q-114 0 -191 -107.5t-77 -273.5
q0 -182 85 -287t231 -105q66 0 138 23.5t146 69.5v-146zM598 1520h253l-315 -390h-137z" />
    <glyph glyph-name="Ccircumflex" unicode="&#x108;" horiz-adv-x="1307" 
d="M1231 49q-103 -37 -210.5 -55.5t-219.5 -18.5q-109 0 -205 23.5t-172 69.5q-160 95 -250 258.5t-90 359.5q0 157 54.5 291t158.5 233q97 94 226.5 141.5t289.5 47.5q103 0 207.5 -19t210.5 -57v-342h-150l-41 219l-28 35q-42 15 -82.5 23t-79.5 8q-214 0 -339.5 -155.5
t-125.5 -422.5q0 -274 131 -429t361 -155q25 0 56.5 5t67.5 14l31 31l49 247h150v-352zM567 1891h180l225 -390h-157l-158 256l-156 -256h-159z" />
    <glyph glyph-name="ccircumflex" unicode="&#x109;" horiz-adv-x="975" 
d="M950 92q-101 -55 -196 -81.5t-191 -26.5q-220 0 -355.5 139t-135.5 364q0 233 148.5 382t379.5 149q151 0 244.5 -62.5t93.5 -160.5q0 -61 -41.5 -100.5t-105.5 -39.5q-35 0 -64.5 9.5t-56.5 29.5v217q-17 4 -29.5 5.5t-22.5 1.5q-114 0 -191 -107.5t-77 -273.5
q0 -182 85 -287t231 -105q66 0 138 23.5t146 69.5v-146zM421 1511h180l225 -390h-157l-158 256l-156 -256h-159z" />
    <glyph glyph-name="Cdotaccent" unicode="&#x10a;" horiz-adv-x="1307" 
d="M1231 49q-103 -37 -210.5 -55.5t-219.5 -18.5q-109 0 -205 23.5t-172 69.5q-160 95 -250 258.5t-90 359.5q0 157 54.5 291t158.5 233q97 94 226.5 141.5t289.5 47.5q103 0 207.5 -19t210.5 -57v-342h-150l-41 219l-28 35q-42 15 -82.5 23t-79.5 8q-214 0 -339.5 -155.5
t-125.5 -422.5q0 -274 131 -429t361 -155q25 0 56.5 5t67.5 14l31 31l49 247h150v-352zM657 1775q55 0 94 -41t39 -98q0 -56 -39 -95.5t-94 -39.5q-57 0 -95 39t-38 96q0 58 38.5 98.5t94.5 40.5z" />
    <glyph glyph-name="cdotaccent" unicode="&#x10b;" horiz-adv-x="975" 
d="M950 92q-101 -55 -196 -81.5t-191 -26.5q-220 0 -355.5 139t-135.5 364q0 233 148.5 382t379.5 149q151 0 244.5 -62.5t93.5 -160.5q0 -61 -41.5 -100.5t-105.5 -39.5q-35 0 -64.5 9.5t-56.5 29.5v217q-17 4 -29.5 5.5t-22.5 1.5q-114 0 -191 -107.5t-77 -273.5
q0 -182 85 -287t231 -105q66 0 138 23.5t146 69.5v-146zM511 1395q55 0 94 -41t39 -98q0 -56 -39 -95.5t-94 -39.5q-57 0 -95 39t-38 96q0 58 38.5 98.5t94.5 40.5z" />
    <glyph glyph-name="Ccaron" unicode="&#x10c;" horiz-adv-x="1307" 
d="M1231 49q-103 -37 -210.5 -55.5t-219.5 -18.5q-109 0 -205 23.5t-172 69.5q-160 95 -250 258.5t-90 359.5q0 157 54.5 291t158.5 233q97 94 226.5 141.5t289.5 47.5q103 0 207.5 -19t210.5 -57v-342h-150l-41 219l-28 35q-42 15 -82.5 23t-79.5 8q-214 0 -339.5 -155.5
t-125.5 -422.5q0 -274 131 -429t361 -155q25 0 56.5 5t67.5 14l31 31l49 247h150v-352zM447 1901h159l156 -256l158 256h157l-225 -390h-180z" />
    <glyph glyph-name="ccaron" unicode="&#x10d;" horiz-adv-x="975" 
d="M950 92q-101 -55 -196 -81.5t-191 -26.5q-220 0 -355.5 139t-135.5 364q0 233 148.5 382t379.5 149q151 0 244.5 -62.5t93.5 -160.5q0 -61 -41.5 -100.5t-105.5 -39.5q-35 0 -64.5 9.5t-56.5 29.5v217q-17 4 -29.5 5.5t-22.5 1.5q-114 0 -191 -107.5t-77 -273.5
q0 -182 85 -287t231 -105q66 0 138 23.5t146 69.5v-146zM174 1518h159l156 -256l158 256h157l-225 -390h-180z" />
    <glyph glyph-name="Dcaron" unicode="&#x10e;" horiz-adv-x="1466" 
d="M487 1260v-1145h119q244 0 364 142t120 431t-120 430.5t-364 141.5h-119zM657 1374q351 0 544.5 -180t193.5 -508q0 -180 -63.5 -320.5t-188.5 -236.5q-87 -67 -201.5 -98t-284.5 -31h-598v100l125 11l33 32v1088l-33 33l-125 10v100h598zM412 1866h159l156 -256l158 256
h157l-225 -390h-180z" />
    <glyph glyph-name="dcaron" unicode="&#x10f;" horiz-adv-x="1743" 
d="M797 195v684q-46 15 -83 22.5t-69 7.5q-134 0 -214.5 -106t-80.5 -285q0 -170 73 -266t202 -96q34 0 76.5 9.5t95.5 29.5zM797 1335h-150v82l305 96h95v-1382l28 -33l105 -8v-90h-383v115q-94 -69 -172 -101t-152 -32q-174 0 -285.5 137.5t-111.5 355.5q0 245 146.5 397
t381.5 152q44 0 92 -5t101 -15v331zM1362 809l-43 61q94 57 142.5 128t48.5 153q0 13 -0.5 19.5t-1.5 12.5l-123 1q-20 24 -29.5 50t-9.5 54q0 64 38.5 103t102.5 39q83 0 133 -58.5t50 -154.5q0 -130 -80.5 -237t-227.5 -171z" />
    <glyph glyph-name="Dcroat" unicode="&#x110;" horiz-adv-x="1466" 
d="M487 1260v-478h289v-125h-289v-542h119q243 0 363.5 142.5t120.5 430.5q0 289 -120 430.5t-364 141.5h-119zM59 1374h596q352 0 546 -180.5t194 -507.5q0 -330 -191.5 -508t-548.5 -178h-596v100l123 11l33 32v514h-184v125h184v449l-33 33l-123 10v100z" />
    <glyph glyph-name="dcroat" unicode="&#x111;" horiz-adv-x="1221" 
d="M797 879q-44 15 -81.5 22.5t-70.5 7.5q-134 0 -214.5 -106t-80.5 -285q0 -170 73 -266t202 -96q36 0 78.5 9.5t93.5 29.5v684zM958 1518h89v-263h127v-108h-127v-1016l28 -33l105 -8v-90h-383v115q-93 -70 -170.5 -101.5t-153.5 -31.5q-174 0 -285.5 138t-111.5 355
q0 246 146.5 397.5t381.5 151.5q40 0 86 -5t107 -15v143h-281v108h281v74l-158 19v73z" />
    <glyph glyph-name="Emacron" unicode="&#x112;" horiz-adv-x="1221" 
d="M59 0v100l125 11l33 32v1092l-33 29l-125 10v100h1033v-321h-142l-35 180l-22 27h-410v-488h267l28 29l21 147h121v-475h-121l-21 148l-28 28h-267v-532h478l24 33l33 217h141v-367h-1100zM270 1621h678v-145h-678v145z" />
    <glyph glyph-name="emacron" unicode="&#x113;" horiz-adv-x="1073" 
d="M739 631v22q0 125 -46 191.5t-132 66.5q-94 0 -151 -74.5t-62 -205.5h391zM1008 254v-152q-105 -60 -212 -90t-214 -30q-229 0 -367.5 141t-138.5 373q0 233 141.5 380.5t364.5 147.5q202 0 314 -121.5t112 -341.5v-39h-670v-6q0 -175 88 -275t242 -100q81 0 165 28
t175 85zM203 1272h678v-145h-678v145z" />
    <glyph glyph-name="Ebreve" unicode="&#x114;" horiz-adv-x="1221" 
d="M59 0v100l125 11l33 32v1092l-33 29l-125 10v100h1033v-321h-142l-35 180l-22 27h-410v-488h267l28 29l21 147h121v-475h-121l-21 148l-28 28h-267v-532h478l24 33l33 217h141v-367h-1100zM297 1788l104 -3v-12q0 -84 46 -117.5t163 -33.5q115 0 161 33.5t46 117.5v12
l104 3v-23q0 -156 -71.5 -222.5t-239.5 -66.5q-169 0 -241 65.5t-72 217.5v29z" />
    <glyph glyph-name="ebreve" unicode="&#x115;" horiz-adv-x="1073" 
d="M739 631v22q0 125 -46 191.5t-132 66.5q-94 0 -151 -74.5t-62 -205.5h391zM1008 254v-152q-105 -60 -212 -90t-214 -30q-229 0 -367.5 141t-138.5 373q0 233 141.5 380.5t364.5 147.5q202 0 314 -121.5t112 -341.5v-39h-670v-6q0 -175 88 -275t242 -100q81 0 165 28
t175 85zM230 1439l104 -3v-12q0 -84 46 -117.5t163 -33.5q115 0 161 33.5t46 117.5v12l104 3v-23q0 -156 -71.5 -222.5t-239.5 -66.5q-169 0 -241 65.5t-72 217.5v29z" />
    <glyph glyph-name="Edotaccent" unicode="&#x116;" horiz-adv-x="1221" 
d="M59 0v100l125 11l33 32v1092l-33 29l-125 10v100h1033v-321h-142l-35 180l-22 27h-410v-488h267l28 29l21 147h121v-475h-121l-21 148l-28 28h-267v-532h478l24 33l33 217h141v-367h-1100zM609 1750q55 0 94 -41t39 -98q0 -56 -39 -95.5t-94 -39.5q-57 0 -95 39t-38 96
q0 58 38.5 98.5t94.5 40.5z" />
    <glyph glyph-name="edotaccent" unicode="&#x117;" horiz-adv-x="1073" 
d="M739 631v22q0 125 -46 191.5t-132 66.5q-94 0 -151 -74.5t-62 -205.5h391zM1008 254v-152q-105 -60 -212 -90t-214 -30q-229 0 -367.5 141t-138.5 373q0 233 141.5 380.5t364.5 147.5q202 0 314 -121.5t112 -341.5v-39h-670v-6q0 -175 88 -275t242 -100q81 0 165 28
t175 85zM542 1401q55 0 94 -41t39 -98q0 -56 -39 -95.5t-94 -39.5q-57 0 -95 39t-38 96q0 58 38.5 98.5t94.5 40.5z" />
    <glyph glyph-name="Eogonek" unicode="&#x118;" horiz-adv-x="1221" 
d="M59 0v100l125 11l33 32v1092l-33 29l-125 10v100h1033v-321h-142l-35 180l-22 27h-410v-488h267l28 29l21 147h121v-475h-121l-21 148l-28 28h-267v-532h478l24 33l33 217h141v-367h-1100zM587 0h110q-49 -45 -75.5 -97.5t-26.5 -105.5q0 -52 29.5 -80t85.5 -28
q12 0 27.5 1.5t35.5 3.5v-138q-26 -7 -55 -11t-58 -4q-105 0 -160 47.5t-55 137.5q0 69 37.5 142t104.5 132z" />
    <glyph glyph-name="eogonek" unicode="&#x119;" horiz-adv-x="1073" 
d="M739 631v22q0 125 -46 191.5t-132 66.5q-94 0 -151 -74.5t-62 -205.5h391zM1008 254v-152q-105 -60 -212 -90t-214 -30q-229 0 -367.5 141t-138.5 373q0 233 141.5 380.5t364.5 147.5q202 0 314 -121.5t112 -341.5v-39h-670v-6q0 -175 88 -275t242 -100q81 0 165 28
t175 85zM520 -17h110q-49 -45 -75.5 -97.5t-26.5 -105.5q0 -52 29.5 -80t85.5 -28q12 0 27.5 1.5t35.5 3.5v-138q-26 -7 -55 -11t-58 -4q-105 0 -160 47.5t-55 137.5q0 69 37.5 142t104.5 132z" />
    <glyph glyph-name="Ecaron" unicode="&#x11a;" horiz-adv-x="1221" 
d="M59 0v100l125 11l33 32v1092l-33 29l-125 10v100h1033v-321h-142l-35 180l-22 27h-410v-488h267l28 29l21 147h121v-475h-121l-21 148l-28 28h-267v-532h478l24 33l33 217h141v-367h-1100zM294 1866h159l156 -256l158 256h157l-225 -390h-180z" />
    <glyph glyph-name="ecaron" unicode="&#x11b;" horiz-adv-x="1073" 
d="M739 631v22q0 125 -46 191.5t-132 66.5q-94 0 -151 -74.5t-62 -205.5h391zM1008 254v-152q-105 -60 -212 -90t-214 -30q-229 0 -367.5 141t-138.5 373q0 233 141.5 380.5t364.5 147.5q202 0 314 -121.5t112 -341.5v-39h-670v-6q0 -175 88 -275t242 -100q81 0 165 28
t175 85zM227 1517h159l156 -256l158 256h157l-225 -390h-180z" />
    <glyph glyph-name="Gcircumflex" unicode="&#x11c;" horiz-adv-x="1454" 
d="M815 676h598v-101l-119 -10l-32 -28v-478q-121 -42 -235 -63t-224 -21q-321 0 -521 200t-200 521q0 318 204.5 509.5t542.5 191.5q102 0 210.5 -17t222.5 -51v-348h-150l-39 217l-31 37q-40 17 -82 25t-88 8q-230 0 -361.5 -152.5t-131.5 -419.5q0 -274 134.5 -428.5
t373.5 -154.5q16 0 45 1.5t67 4.5v418l-32 28l-152 10v101zM657 1889h180l225 -390h-157l-158 256l-156 -256h-159z" />
    <glyph glyph-name="gcircumflex" unicode="&#x11d;" horiz-adv-x="1128" 
d="M406 39q-43 -35 -65 -78t-22 -92q0 -85 69 -145t169 -60q106 0 175 55.5t69 137.5q0 64 -45.5 97.5t-175.5 55.5zM547 922q-79 0 -125.5 -64.5t-46.5 -173.5q0 -113 46 -180.5t122 -67.5q74 0 120 68.5t46 181.5q0 105 -45.5 170.5t-116.5 65.5zM834 958h303v-116h-222
q23 -40 34.5 -79t11.5 -79q0 -152 -119 -246t-316 -94q-23 0 -35.5 0.5t-23.5 1.5q-9 -22 -12.5 -40.5t-3.5 -35.5q0 -12 1.5 -26t4.5 -29l139 -18q253 -37 350.5 -99.5t97.5 -179.5q0 -152 -157 -257t-393 -105q-198 0 -311 75.5t-113 204.5q0 96 56 156t154 70
q-13 28 -19.5 53.5t-6.5 48.5q0 49 27 95.5t86 98.5q-123 35 -188.5 115t-65.5 193q0 159 118.5 255.5t319.5 96.5q68 0 139 -15t144 -45zM513 1511h180l225 -390h-157l-158 256l-156 -256h-159z" />
    <glyph glyph-name="Gbreve" unicode="&#x11e;" horiz-adv-x="1454" 
d="M815 676h598v-101l-119 -10l-32 -28v-478q-121 -42 -235 -63t-224 -21q-321 0 -521 200t-200 521q0 318 204.5 509.5t542.5 191.5q102 0 210.5 -17t222.5 -51v-348h-150l-39 217l-31 37q-40 17 -82 25t-88 8q-230 0 -361.5 -152.5t-131.5 -419.5q0 -274 134.5 -428.5
t373.5 -154.5q16 0 45 1.5t67 4.5v418l-32 28l-152 10v101zM416 1856l104 -3v-12q0 -84 46 -117.5t163 -33.5q115 0 161 33.5t46 117.5v12l104 3v-23q0 -156 -71.5 -222.5t-239.5 -66.5q-169 0 -241 65.5t-72 217.5v29z" />
    <glyph glyph-name="gbreve" unicode="&#x11f;" horiz-adv-x="1128" 
d="M406 39q-43 -35 -65 -78t-22 -92q0 -85 69 -145t169 -60q106 0 175 55.5t69 137.5q0 64 -45.5 97.5t-175.5 55.5zM547 922q-79 0 -125.5 -64.5t-46.5 -173.5q0 -113 46 -180.5t122 -67.5q74 0 120 68.5t46 181.5q0 105 -45.5 170.5t-116.5 65.5zM834 958h303v-116h-222
q23 -40 34.5 -79t11.5 -79q0 -152 -119 -246t-316 -94q-23 0 -35.5 0.5t-23.5 1.5q-9 -22 -12.5 -40.5t-3.5 -35.5q0 -12 1.5 -26t4.5 -29l139 -18q253 -37 350.5 -99.5t97.5 -179.5q0 -152 -157 -257t-393 -105q-198 0 -311 75.5t-113 204.5q0 96 56 156t154 70
q-13 28 -19.5 53.5t-6.5 48.5q0 49 27 95.5t86 98.5q-123 35 -188.5 115t-65.5 193q0 159 118.5 255.5t319.5 96.5q68 0 139 -15t144 -45zM254 1473l104 -3v-12q0 -84 46 -117.5t163 -33.5q115 0 161 33.5t46 117.5v12l104 3v-23q0 -156 -71.5 -222.5t-239.5 -66.5
q-169 0 -241 65.5t-72 217.5v29z" />
    <glyph glyph-name="Gdotaccent" unicode="&#x120;" horiz-adv-x="1454" 
d="M815 676h598v-101l-119 -10l-32 -28v-478q-121 -42 -235 -63t-224 -21q-321 0 -521 200t-200 521q0 318 204.5 509.5t542.5 191.5q102 0 210.5 -17t222.5 -51v-348h-150l-39 217l-31 37q-40 17 -82 25t-88 8q-230 0 -361.5 -152.5t-131.5 -419.5q0 -274 134.5 -428.5
t373.5 -154.5q16 0 45 1.5t67 4.5v418l-32 28l-152 10v101zM747 1773q55 0 94 -41t39 -98q0 -56 -39 -95.5t-94 -39.5q-57 0 -95 39t-38 96q0 58 38.5 98.5t94.5 40.5z" />
    <glyph glyph-name="gdotaccent" unicode="&#x121;" horiz-adv-x="1128" 
d="M406 39q-43 -35 -65 -78t-22 -92q0 -85 69 -145t169 -60q106 0 175 55.5t69 137.5q0 64 -45.5 97.5t-175.5 55.5zM547 922q-79 0 -125.5 -64.5t-46.5 -173.5q0 -113 46 -180.5t122 -67.5q74 0 120 68.5t46 181.5q0 105 -45.5 170.5t-116.5 65.5zM834 958h303v-116h-222
q23 -40 34.5 -79t11.5 -79q0 -152 -119 -246t-316 -94q-23 0 -35.5 0.5t-23.5 1.5q-9 -22 -12.5 -40.5t-3.5 -35.5q0 -12 1.5 -26t4.5 -29l139 -18q253 -37 350.5 -99.5t97.5 -179.5q0 -152 -157 -257t-393 -105q-198 0 -311 75.5t-113 204.5q0 96 56 156t154 70
q-13 28 -19.5 53.5t-6.5 48.5q0 49 27 95.5t86 98.5q-123 35 -188.5 115t-65.5 193q0 159 118.5 255.5t319.5 96.5q68 0 139 -15t144 -45zM603 1395q55 0 94 -41t39 -98q0 -56 -39 -95.5t-94 -39.5q-57 0 -95 39t-38 96q0 58 38.5 98.5t94.5 40.5z" />
    <glyph glyph-name="Gcommaaccent" unicode="&#x122;" horiz-adv-x="1454" 
d="M815 676h598v-101l-119 -10l-32 -28v-478q-121 -42 -235 -63t-224 -21q-321 0 -521 200t-200 521q0 318 204.5 509.5t542.5 191.5q102 0 210.5 -17t222.5 -51v-348h-150l-39 217l-31 37q-40 17 -82 25t-88 8q-230 0 -361.5 -152.5t-131.5 -419.5q0 -274 134.5 -428.5
t373.5 -154.5q16 0 45 1.5t67 4.5v418l-32 28l-152 10v101zM591 -426v61q89 13 136 55.5t47 110.5v13h-102q-18 16 -26.5 33t-8.5 38q0 41 31.5 65.5t81.5 24.5q70 0 111 -37.5t41 -102.5q0 -102 -86 -175t-225 -86z" />
    <glyph glyph-name="Hcircumflex" unicode="&#x124;" horiz-adv-x="1556" 
d="M61 1374h580v-100l-123 -10l-33 -33v-449h592v449l-30 33l-123 10v100h577v-100l-119 -10l-32 -33v-1088l32 -32l119 -11v-100h-577v100l123 11l30 32v516h-592v-516l33 -32l123 -11v-100h-580v100l119 11l33 32v1088l-33 33l-119 10v100zM691 1866h180l225 -390h-157
l-158 256l-156 -256h-159z" />
    <glyph glyph-name="hcircumflex" unicode="&#x125;" horiz-adv-x="1223" 
d="M336 1513h98v-618q123 67 205.5 96t144.5 29q142 0 211.5 -84.5t69.5 -255.5v-549l27 -31l108 -8v-92h-502v92l88 8l29 31v490q0 114 -44.5 167.5t-139.5 53.5q-39 0 -87.5 -9t-109.5 -26v-676l31 -31l90 -8v-92h-506v92l105 8l28 31v1206h-149v80zM526 2005h180
l225 -390h-157l-158 256l-156 -256h-159z" />
    <glyph glyph-name="Itilde" unicode="&#x128;" horiz-adv-x="725" 
d="M61 0v100l136 11l34 32v1092l-34 29l-136 10v100h613v-100l-137 -10l-33 -29v-1092l33 -32l137 -11v-100h-613zM588 1786h111v-33q0 -115 -47.5 -179.5t-130.5 -64.5q-76 0 -176 48t-121 48q-37 0 -56.5 -28.5t-19.5 -81.5v-19h-113v33q0 117 46.5 180.5t131.5 63.5
q67 0 166.5 -48t128.5 -48q40 0 60 28t20 84v17z" />
    <glyph glyph-name="itilde" unicode="&#x129;" horiz-adv-x="625" 
d="M354 1016h99v-885l30 -31l115 -8v-92h-537v92l111 8l29 31v707h-135v82zM550 1429h111v-33q0 -115 -47.5 -179.5t-130.5 -64.5q-76 0 -176 48t-121 48q-37 0 -56.5 -28.5t-19.5 -81.5v-19h-113v33q0 117 46.5 180.5t131.5 63.5q67 0 166.5 -48t128.5 -48q40 0 60 28
t20 84v17z" />
    <glyph glyph-name="Imacron" unicode="&#x12a;" horiz-adv-x="725" 
d="M61 0v100l136 11l34 32v1092l-34 29l-136 10v100h613v-100l-137 -10l-33 -29v-1092l33 -32l137 -11v-100h-613zM28 1621h678v-145h-678v145z" />
    <glyph glyph-name="imacron" unicode="&#x12b;" horiz-adv-x="625" 
d="M354 1016h99v-885l30 -31l115 -8v-92h-537v92l111 8l29 31v707h-135v82zM-10 1264h678v-145h-678v145z" />
    <glyph glyph-name="Ibreve" unicode="&#x12c;" horiz-adv-x="725" 
d="M61 0v100l136 11l34 32v1092l-34 29l-136 10v100h613v-100l-137 -10l-33 -29v-1092l33 -32l137 -11v-100h-613zM56 1788l104 -3v-12q0 -84 46 -117.5t163 -33.5q115 0 161 33.5t46 117.5v12l104 3v-23q0 -156 -71.5 -222.5t-239.5 -66.5q-169 0 -241 65.5t-72 217.5v29z
" />
    <glyph glyph-name="ibreve" unicode="&#x12d;" horiz-adv-x="625" 
d="M354 1016h99v-885l30 -31l115 -8v-92h-537v92l111 8l29 31v707h-135v82zM18 1431l104 -3v-12q0 -84 46 -117.5t163 -33.5q115 0 161 33.5t46 117.5v12l104 3v-23q0 -156 -71.5 -222.5t-239.5 -66.5q-169 0 -241 65.5t-72 217.5v29z" />
    <glyph glyph-name="Iogonek" unicode="&#x12e;" horiz-adv-x="725" 
d="M61 0v100l136 11l34 32v1092l-34 29l-136 10v100h613v-100l-137 -10l-33 -29v-1092l33 -32l137 -11v-100h-613zM345 0h110q-49 -45 -75.5 -97.5t-26.5 -105.5q0 -52 29.5 -80t85.5 -28q12 0 27.5 1.5t35.5 3.5v-138q-26 -7 -55 -11t-58 -4q-105 0 -160 47.5t-55 137.5
q0 69 37.5 142t104.5 132z" />
    <glyph glyph-name="iogonek" unicode="&#x12f;" horiz-adv-x="625" 
d="M354 1016h99v-885l30 -31l115 -8v-92h-537v92l111 8l29 31v707h-135v82zM332 1483q67 0 110 -42.5t43 -107.5q0 -68 -42.5 -111.5t-108.5 -43.5q-64 0 -107 43t-43 108q0 66 42.5 110t105.5 44zM307 0h110q-49 -45 -75.5 -97.5t-26.5 -105.5q0 -52 29.5 -80t85.5 -28
q12 0 27.5 1.5t35.5 3.5v-138q-26 -7 -55 -11t-58 -4q-105 0 -160 47.5t-55 137.5q0 69 37.5 142t104.5 132z" />
    <glyph glyph-name="Idotaccent" unicode="&#x130;" horiz-adv-x="725" 
d="M61 0v100l136 11l34 32v1092l-34 29l-136 10v100h613v-100l-137 -10l-33 -29v-1092l33 -32l137 -11v-100h-613zM364 1843q55 0 94 -41t39 -98q0 -56 -39 -95.5t-94 -39.5q-57 0 -95 39t-38 96q0 58 38.5 98.5t94.5 40.5z" />
    <glyph glyph-name="dotlessi" unicode="&#x131;" horiz-adv-x="625" 
d="M354 1016h99v-885l30 -31l115 -8v-92h-537v92l111 8l29 31v707h-135v82z" />
    <glyph glyph-name="IJ" unicode="&#x132;" horiz-adv-x="1677" 
d="M61 0v100l136 11l34 32v1092l-34 29l-136 10v100h613v-100l-137 -10l-33 -29v-1092l33 -32l137 -11v-100h-613zM1249 1235l-32 29l-144 10v100h602v-100l-125 -10l-32 -29v-698q0 -292 -114.5 -427t-361.5 -135q-71 0 -144 12.5t-148 37.5v368h149l47 -270l29 -27
q5 0 16.5 -1t16.5 -1q130 0 185.5 99.5t55.5 341.5v700z" />
    <glyph glyph-name="ij" unicode="&#x133;" horiz-adv-x="1233" 
d="M354 1016h99v-885l30 -31l115 -8v-92h-537v92l111 8l29 31v707h-135v82zM332 1483q67 0 110 -42.5t43 -107.5q0 -68 -42.5 -111.5t-108.5 -43.5q-64 0 -107 43t-43 108q0 66 42.5 110t105.5 44zM820 1329q0 69 41.5 111.5t109.5 42.5q64 0 107 -44.5t43 -111.5
q0 -62 -45 -105.5t-109 -43.5q-63 0 -105 42.5t-42 108.5zM848 838h-145v82l309 96h86v-815q0 -186 -25.5 -292.5t-85.5 -182.5q-59 -77 -150 -120.5t-189 -43.5q-85 0 -136 40.5t-51 106.5q0 48 33 84.5t86 46.5l201 -186q35 48 51 144t16 261v779z" />
    <glyph glyph-name="Jcircumflex" unicode="&#x134;" horiz-adv-x="952" 
d="M524 1235l-32 29l-144 10v100h602v-100l-125 -10l-32 -29v-698q0 -292 -114.5 -427t-361.5 -135q-71 0 -144 12.5t-148 37.5v368h149l47 -270l29 -27q5 0 16.5 -1t16.5 -1q130 0 185.5 99.5t55.5 341.5v700zM398 1866h180l225 -390h-157l-158 256l-156 -256h-159z" />
    <glyph glyph-name="Kcommaaccent" unicode="&#x136;" horiz-adv-x="1331" 
d="M61 0v100l125 11l31 32v1092l-31 29l-125 10v100h582v-100l-121 -10l-33 -29v-537h58l444 539l-12 27l-115 10v100h461v-100l-143 -14l-389 -465l436 -682l147 -13v-100h-424v72l-344 530h-119v-459l33 -32l121 -11v-100h-582zM562 -401v61q89 13 136 55.5t47 110.5v13
h-102q-18 16 -26.5 33t-8.5 38q0 41 31.5 65.5t81.5 24.5q70 0 111 -37.5t41 -102.5q0 -102 -86 -175t-225 -86z" />
    <glyph glyph-name="kcommaaccent" unicode="&#x137;" horiz-adv-x="1133" 
d="M51 0v90l107 10l28 31v1206h-149v80l315 96h86v-983h45l293 342l-14 23l-90 10v90h418v-90l-134 -16l-233 -260l326 -529l120 -10v-90h-393v80l-237 383h-101v-336l27 -29l102 -8v-90h-516zM447 -401v61q89 13 136 55.5t47 110.5v13h-102q-18 16 -26.5 33t-8.5 38
q0 41 31.5 65.5t81.5 24.5q70 0 111 -37.5t41 -102.5q0 -102 -86 -175t-225 -86z" />
    <glyph glyph-name="Lacute" unicode="&#x139;" horiz-adv-x="1112" 
d="M55 0v100l125 11l35 32v1092l-29 29l-131 10v100h590v-100l-125 -10l-33 -29v-1116h394l26 33l31 249h152v-401h-1035zM545 1866h253l-315 -390h-137z" />
    <glyph glyph-name="lacute" unicode="&#x13a;" horiz-adv-x="623" 
d="M47 0v90l119 12l29 29v1204h-148v82l309 96h90v-1378l31 -33l119 -12v-90h-549zM294 2005h253l-315 -390h-137z" />
    <glyph glyph-name="Lcommaaccent" unicode="&#x13b;" horiz-adv-x="1112" 
d="M55 0v100l125 11l35 32v1092l-29 29l-131 10v100h590v-100l-125 -10l-33 -29v-1116h394l26 33l31 249h152v-401h-1035zM416 -401v61q89 13 136 55.5t47 110.5v13h-102q-18 16 -26.5 33t-8.5 38q0 41 31.5 65.5t81.5 24.5q70 0 111 -37.5t41 -102.5q0 -102 -86 -175
t-225 -86z" />
    <glyph glyph-name="lcommaaccent" unicode="&#x13c;" horiz-adv-x="623" 
d="M47 0v90l119 12l29 29v1204h-148v82l309 96h90v-1378l31 -33l119 -12v-90h-549zM165 -401v61q89 13 136 55.5t47 110.5v13h-102q-18 16 -26.5 33t-8.5 38q0 41 31.5 65.5t81.5 24.5q70 0 111 -37.5t41 -102.5q0 -102 -86 -175t-225 -86z" />
    <glyph glyph-name="Lcaron" unicode="&#x13d;" horiz-adv-x="1112" 
d="M55 0v100l125 11l35 32v1092l-29 29l-131 10v100h590v-100l-125 -10l-33 -29v-1116h394l26 33l31 249h152v-401h-1035zM257 1866h159l156 -256l158 256h157l-225 -390h-180z" />
    <glyph glyph-name="lcaron" unicode="&#x13e;" horiz-adv-x="623" 
d="M47 0v90l119 12l29 29v1204h-148v82l309 96h90v-1378l31 -33l119 -12v-90h-549zM6 2005h159l156 -256l158 256h157l-225 -390h-180z" />
    <glyph glyph-name="Lslash" unicode="&#x141;" horiz-adv-x="1112" 
d="M55 1374h590v-100l-125 -10l-35 -29v-358l199 133l64 -92l-263 -177v-622h396l24 33l33 249h152v-401h-1035v100l125 11l35 32v422l-143 -98l-54 96l197 135v537l-29 29l-131 10v100z" />
    <glyph glyph-name="lslash" unicode="&#x142;" horiz-adv-x="623" 
d="M356 1513h90l3 -610l159 113l64 -92l-226 -156v-633l31 -33l119 -12v-90h-549v90l119 12l29 29v465l-142 -100l-57 94l199 137v608h-148v82z" />
    <glyph glyph-name="Nacute" unicode="&#x143;" horiz-adv-x="1489" 
d="M53 0v98l121 17l37 37v1083l-29 29l-129 10v100h469v-55l627 -973v877l-37 39l-125 12v100h467v-100l-121 -12l-35 -39v-1223h-229l-709 1100v-948l33 -37l127 -17v-98h-467zM726 1866h253l-315 -390h-137z" />
    <glyph glyph-name="nacute" unicode="&#x144;" horiz-adv-x="1239" 
d="M63 0v92l105 8l29 31v707h-140v82l295 96h99v-121q117 65 202 95t148 30q140 0 209 -84t69 -256v-549l27 -31l108 -8v-92h-501v92l88 8l28 31v490q0 114 -44 167.5t-140 53.5q-37 0 -85.5 -9t-108.5 -26v-676l28 -31l90 -8v-92h-506zM608 1513h253l-315 -390h-137z" />
    <glyph glyph-name="Ncommaaccent" unicode="&#x145;" horiz-adv-x="1489" 
d="M53 0v98l121 17l37 37v1083l-29 29l-129 10v100h469v-55l627 -973v877l-37 39l-125 12v100h467v-100l-121 -12l-35 -39v-1223h-229l-709 1100v-948l33 -37l127 -17v-98h-467zM597 -401v61q89 13 136 55.5t47 110.5v13h-102q-18 16 -26.5 33t-8.5 38q0 41 31.5 65.5
t81.5 24.5q70 0 111 -37.5t41 -102.5q0 -102 -86 -175t-225 -86z" />
    <glyph glyph-name="ncedilla" unicode="&#x146;" horiz-adv-x="1239" 
d="M63 0v92l105 8l29 31v707h-140v82l295 96h99v-121q117 65 202 95t148 30q140 0 209 -84t69 -256v-549l27 -31l108 -8v-92h-501v92l88 8l28 31v490q0 114 -44 167.5t-140 53.5q-37 0 -85.5 -9t-108.5 -26v-676l28 -31l90 -8v-92h-506zM479 -401v61q89 13 136 55.5
t47 110.5v13h-102q-18 16 -26.5 33t-8.5 38q0 41 31.5 65.5t81.5 24.5q70 0 111 -37.5t41 -102.5q0 -102 -86 -175t-225 -86z" />
    <glyph glyph-name="Ncaron" unicode="&#x147;" horiz-adv-x="1489" 
d="M53 0v98l121 17l37 37v1083l-29 29l-129 10v100h469v-55l627 -973v877l-37 39l-125 12v100h467v-100l-121 -12l-35 -39v-1223h-229l-709 1100v-948l33 -37l127 -17v-98h-467zM438 1866h159l156 -256l158 256h157l-225 -390h-180z" />
    <glyph glyph-name="ncaron" unicode="&#x148;" horiz-adv-x="1239" 
d="M63 0v92l105 8l29 31v707h-140v82l295 96h99v-121q117 65 202 95t148 30q140 0 209 -84t69 -256v-549l27 -31l108 -8v-92h-501v92l88 8l28 31v490q0 114 -44 167.5t-140 53.5q-37 0 -85.5 -9t-108.5 -26v-676l28 -31l90 -8v-92h-506zM320 1513h159l156 -256l158 256h157
l-225 -390h-180z" />
    <glyph glyph-name="napostrophe" unicode="&#x149;" horiz-adv-x="1761" 
d="M141 809l-43 61q94 57 142.5 128t48.5 153q0 13 -0.5 19.5t-1.5 12.5l-123 1q-20 24 -29.5 50t-9.5 54q0 64 38.5 103t102.5 39q83 0 133 -58.5t50 -154.5q0 -130 -80.5 -237t-227.5 -171zM585 0v92l105 8l29 31v707h-140v82l295 96h99v-121q117 65 202 95t148 30
q140 0 209 -84t69 -256v-549l27 -31l108 -8v-92h-501v92l88 8l28 31v490q0 114 -44 167.5t-140 53.5q-37 0 -85.5 -9t-108.5 -26v-676l28 -31l90 -8v-92h-506z" />
    <glyph glyph-name="Omacron" unicode="&#x14c;" horiz-adv-x="1540" 
d="M778 1274q-176 0 -282.5 -158.5t-106.5 -425.5q0 -271 106.5 -434.5t278.5 -163.5q174 0 280.5 159.5t106.5 424.5q0 274 -104.5 436t-278.5 162zM84 694q0 168 53 302t158 231q97 89 216.5 133.5t262.5 44.5q132 0 244.5 -40t206.5 -120q118 -102 180.5 -246t62.5 -317
q0 -163 -55.5 -299t-163.5 -236q-93 -87 -212 -133.5t-249 -46.5q-317 0 -510.5 200t-193.5 527zM437 1652h678v-145h-678v145z" />
    <glyph glyph-name="omacron" unicode="&#x14d;" horiz-adv-x="1182" 
d="M598 913q-112 0 -175 -107t-63 -300q0 -196 62.5 -305t173.5 -109q116 0 179 106t63 302q0 195 -63.5 304t-176.5 109zM606 1022q236 0 375 -142.5t139 -385.5q0 -230 -145 -370t-385 -140q-231 0 -372.5 141.5t-141.5 372.5q0 237 145 380.5t385 143.5zM259 1270h678
v-145h-678v145z" />
    <glyph glyph-name="Obreve" unicode="&#x14e;" horiz-adv-x="1540" 
d="M778 1274q-176 0 -282.5 -158.5t-106.5 -425.5q0 -271 106.5 -434.5t278.5 -163.5q174 0 280.5 159.5t106.5 424.5q0 274 -104.5 436t-278.5 162zM84 694q0 168 53 302t158 231q97 89 216.5 133.5t262.5 44.5q132 0 244.5 -40t206.5 -120q118 -102 180.5 -246t62.5 -317
q0 -163 -55.5 -299t-163.5 -236q-93 -87 -212 -133.5t-249 -46.5q-317 0 -510.5 200t-193.5 527zM464 1819l104 -3v-12q0 -84 46 -117.5t163 -33.5q115 0 161 33.5t46 117.5v12l104 3v-23q0 -156 -71.5 -222.5t-239.5 -66.5q-169 0 -241 65.5t-72 217.5v29z" />
    <glyph glyph-name="obreve" unicode="&#x14f;" horiz-adv-x="1182" 
d="M598 913q-112 0 -175 -107t-63 -300q0 -196 62.5 -305t173.5 -109q116 0 179 106t63 302q0 195 -63.5 304t-176.5 109zM606 1022q236 0 375 -142.5t139 -385.5q0 -230 -145 -370t-385 -140q-231 0 -372.5 141.5t-141.5 372.5q0 237 145 380.5t385 143.5zM286 1437l104 -3
v-12q0 -84 46 -117.5t163 -33.5q115 0 161 33.5t46 117.5v12l104 3v-23q0 -156 -71.5 -222.5t-239.5 -66.5q-169 0 -241 65.5t-72 217.5v29z" />
    <glyph glyph-name="Ohungarumlaut" unicode="&#x150;" horiz-adv-x="1540" 
d="M778 1274q-176 0 -282.5 -158.5t-106.5 -425.5q0 -271 106.5 -434.5t278.5 -163.5q174 0 280.5 159.5t106.5 424.5q0 274 -104.5 436t-278.5 162zM84 694q0 168 53 302t158 231q97 89 216.5 133.5t262.5 44.5q132 0 244.5 -40t206.5 -120q118 -102 180.5 -246t62.5 -317
q0 -163 -55.5 -299t-163.5 -236q-93 -87 -212 -133.5t-249 -46.5q-317 0 -510.5 200t-193.5 527zM915 1897h251l-376 -390h-136zM579 1897h223l-297 -390h-119z" />
    <glyph glyph-name="ohungarumlaut" unicode="&#x151;" horiz-adv-x="1182" 
d="M598 913q-112 0 -175 -107t-63 -300q0 -196 62.5 -305t173.5 -109q116 0 179 106t63 302q0 195 -63.5 304t-176.5 109zM606 1022q236 0 375 -142.5t139 -385.5q0 -230 -145 -370t-385 -140q-231 0 -372.5 141.5t-141.5 372.5q0 237 145 380.5t385 143.5zM737 1515h251
l-376 -390h-136zM401 1515h223l-297 -390h-119z" />
    <glyph glyph-name="OE" unicode="&#x152;" horiz-adv-x="2068" 
d="M1106 1184v190h833v-321h-141l-26 168l-35 39h-381v-488h243l29 29l17 147h120v-475h-120l-17 145l-31 31h-241v-532h448l29 33l33 217h141v-367h-901v201q-83 -114 -186 -169t-234 -55q-84 0 -161 22.5t-144 66.5q-143 92 -221 254.5t-78 367.5q0 317 173 512t452 195
q135 0 237 -54t162 -157zM748 1262q-165 0 -265 -155.5t-100 -414.5q0 -262 100.5 -420.5t261.5 -158.5q164 0 264.5 154.5t100.5 412.5q0 267 -99 424.5t-263 157.5z" />
    <glyph glyph-name="oe" unicode="&#x153;" horiz-adv-x="1763" 
d="M1694 522h-633q2 -177 86.5 -276t232.5 -99q81 0 154.5 25t159.5 82v-152q-95 -59 -192.5 -88.5t-198.5 -29.5q-112 0 -202.5 40t-162.5 121q-80 -83 -170 -122t-201 -39q-220 0 -355.5 141.5t-135.5 374.5q0 235 137 378.5t360 143.5q116 0 210.5 -41t164.5 -123
q71 82 158.5 123t189.5 41q188 0 293 -120.5t105 -338.5v-41zM1425 631v24q0 125 -42 191.5t-121 66.5q-84 0 -135.5 -74.5t-57.5 -207.5h356zM578 913q-107 0 -166.5 -107.5t-59.5 -299.5q0 -197 60 -305.5t168 -108.5q106 0 164.5 106t58.5 302q0 197 -59.5 305
t-165.5 108z" />
    <glyph glyph-name="Racute" unicode="&#x154;" horiz-adv-x="1374" 
d="M483 1257l1 -534q13 -1 28.5 -1.5t44.5 -0.5q166 0 245 67t79 207q0 128 -78 195t-225 67h-95zM63 1374h623q236 0 358.5 -89t122.5 -261q0 -141 -89 -229.5t-263 -120.5q76 -18 128.5 -48.5t86.5 -78.5q43 -62 86 -204q21 -67 33 -99q31 -81 82.5 -112.5t159.5 -31.5h26
v-98q-57 -8 -108.5 -12t-96.5 -4q-63 0 -118.5 16.5t-94.5 46.5q-93 72 -146 237q-7 23 -11 36q-58 175 -125 228.5t-199 53.5h-35v-461l33 -32l125 -11v-100h-578v100l121 11l33 32v1092l-33 29l-121 10v100zM713 1866h253l-315 -390h-137z" />
    <glyph glyph-name="racute" unicode="&#x155;" horiz-adv-x="862" 
d="M59 0v92l109 8l29 31v707h-148v82l301 96h99l-9 -209q53 56 113 108.5t126 99.5q17 3 27.5 4t18.5 1q33 0 66.5 -8.5t68.5 -26.5l-26 -283h-107q-23 38 -55.5 56t-77.5 18q-26 0 -62.5 -14.5t-82.5 -42.5v-588l30 -31l146 -8v-92h-566zM427 1513h253l-315 -390h-137z" />
    <glyph glyph-name="Rcommaaccent" unicode="&#x156;" horiz-adv-x="1374" 
d="M483 1257l1 -534q13 -1 28.5 -1.5t44.5 -0.5q166 0 245 67t79 207q0 128 -78 195t-225 67h-95zM63 1374h623q236 0 358.5 -89t122.5 -261q0 -141 -89 -229.5t-263 -120.5q76 -18 128.5 -48.5t86.5 -78.5q43 -62 86 -204q21 -67 33 -99q31 -81 82.5 -112.5t159.5 -31.5h26
v-98q-57 -8 -108.5 -12t-96.5 -4q-63 0 -118.5 16.5t-94.5 46.5q-93 72 -146 237q-7 23 -11 36q-58 175 -125 228.5t-199 53.5h-35v-461l33 -32l125 -11v-100h-578v100l121 11l33 32v1092l-33 29l-121 10v100zM584 -415v61q89 13 136 55.5t47 110.5v13h-102q-18 16 -26.5 33
t-8.5 38q0 41 31.5 65.5t81.5 24.5q70 0 111 -37.5t41 -102.5q0 -102 -86 -175t-225 -86z" />
    <glyph glyph-name="rcommaaccent" unicode="&#x157;" horiz-adv-x="862" 
d="M59 0v92l109 8l29 31v707h-148v82l301 96h99l-9 -209q53 56 113 108.5t126 99.5q17 3 27.5 4t18.5 1q33 0 66.5 -8.5t68.5 -26.5l-26 -283h-107q-23 38 -55.5 56t-77.5 18q-26 0 -62.5 -14.5t-82.5 -42.5v-588l30 -31l146 -8v-92h-566zM298 -401v61q89 13 136 55.5
t47 110.5v13h-102q-18 16 -26.5 33t-8.5 38q0 41 31.5 65.5t81.5 24.5q70 0 111 -37.5t41 -102.5q0 -102 -86 -175t-225 -86z" />
    <glyph glyph-name="Rcaron" unicode="&#x158;" horiz-adv-x="1374" 
d="M483 1257l1 -534q13 -1 28.5 -1.5t44.5 -0.5q166 0 245 67t79 207q0 128 -78 195t-225 67h-95zM63 1374h623q236 0 358.5 -89t122.5 -261q0 -141 -89 -229.5t-263 -120.5q76 -18 128.5 -48.5t86.5 -78.5q43 -62 86 -204q21 -67 33 -99q31 -81 82.5 -112.5t159.5 -31.5h26
v-98q-57 -8 -108.5 -12t-96.5 -4q-63 0 -118.5 16.5t-94.5 46.5q-93 72 -146 237q-7 23 -11 36q-58 175 -125 228.5t-199 53.5h-35v-461l33 -32l125 -11v-100h-578v100l121 11l33 32v1092l-33 29l-121 10v100zM425 1866h159l156 -256l158 256h157l-225 -390h-180z" />
    <glyph glyph-name="rcaron" unicode="&#x159;" horiz-adv-x="862" 
d="M59 0v92l109 8l29 31v707h-148v82l301 96h99l-9 -209q53 56 113 108.5t126 99.5q17 3 27.5 4t18.5 1q33 0 66.5 -8.5t68.5 -26.5l-26 -283h-107q-23 38 -55.5 56t-77.5 18q-26 0 -62.5 -14.5t-82.5 -42.5v-588l30 -31l146 -8v-92h-566zM139 1513h159l156 -256l158 256
h157l-225 -390h-180z" />
    <glyph glyph-name="Sacute" unicode="&#x15a;" horiz-adv-x="1163" 
d="M121 45v371h155l33 -246l27 -31q45 -14 89.5 -21t90.5 -7q120 0 192 53t72 141q0 78 -50.5 138.5t-168.5 119.5q-19 10 -58 28q-140 65 -210 124q-69 58 -106 131t-37 149q0 176 134.5 290t348.5 114q93 0 189 -17.5t196 -52.5v-332h-148l-34 213l-29 29q-29 15 -66 22
t-84 7q-109 0 -175 -54t-66 -141q0 -64 37.5 -115.5t128.5 -105.5q22 -14 122.5 -58.5t169.5 -88.5q89 -57 137 -137t48 -171q0 -188 -149 -304t-394 -116q-100 0 -201 17.5t-194 50.5zM563 1891h253l-315 -390h-137z" />
    <glyph glyph-name="sacute" unicode="&#x15b;" horiz-adv-x="915" 
d="M809 973v-273h-123l-20 154l-25 23q-34 16 -68 24t-67 8q-74 0 -115 -32.5t-41 -90.5q0 -48 32 -83t159 -97l4 -2q295 -142 295 -289q0 -157 -111.5 -247.5t-306.5 -90.5q-76 0 -160.5 13t-177.5 39v303h123l24 -176l21 -23q40 -21 83 -32t89 -11q81 0 127.5 39.5
t46.5 108.5q0 87 -177 167q-60 27 -93 44q-127 63 -178.5 124.5t-51.5 145.5q0 137 109.5 221t292.5 84q78 0 155 -12.5t154 -38.5zM435 1517h253l-315 -390h-137z" />
    <glyph glyph-name="Scircumflex" unicode="&#x15c;" horiz-adv-x="1163" 
d="M121 45v371h155l33 -246l27 -31q45 -14 89.5 -21t90.5 -7q120 0 192 53t72 141q0 78 -50.5 138.5t-168.5 119.5q-19 10 -58 28q-140 65 -210 124q-69 58 -106 131t-37 149q0 176 134.5 290t348.5 114q93 0 189 -17.5t196 -52.5v-332h-148l-34 213l-29 29q-29 15 -66 22
t-84 7q-109 0 -175 -54t-66 -141q0 -64 37.5 -115.5t128.5 -105.5q22 -14 122.5 -58.5t169.5 -88.5q89 -57 137 -137t48 -171q0 -188 -149 -304t-394 -116q-100 0 -201 17.5t-194 50.5zM500 1891h180l225 -390h-157l-158 256l-156 -256h-159z" />
    <glyph glyph-name="scircumflex" unicode="&#x15d;" horiz-adv-x="915" 
d="M809 973v-273h-123l-20 154l-25 23q-34 16 -68 24t-67 8q-74 0 -115 -32.5t-41 -90.5q0 -48 32 -83t159 -97l4 -2q295 -142 295 -289q0 -157 -111.5 -247.5t-306.5 -90.5q-76 0 -160.5 13t-177.5 39v303h123l24 -176l21 -23q40 -21 83 -32t89 -11q81 0 127.5 39.5
t46.5 108.5q0 87 -177 167q-60 27 -93 44q-127 63 -178.5 124.5t-51.5 145.5q0 137 109.5 221t292.5 84q78 0 155 -12.5t154 -38.5zM372 1517h180l225 -390h-157l-158 256l-156 -256h-159z" />
    <glyph glyph-name="Scedilla" unicode="&#x15e;" horiz-adv-x="1163" 
d="M121 45v371h155l33 -246l27 -31q45 -14 89.5 -21t90.5 -7q120 0 192 53t72 141q0 78 -50.5 138.5t-168.5 119.5q-19 10 -58 28q-140 65 -210 124q-69 58 -106 131t-37 149q0 176 134.5 290t348.5 114q93 0 189 -17.5t196 -52.5v-332h-148l-34 213l-29 29q-29 15 -66 22
t-84 7q-109 0 -175 -54t-66 -141q0 -64 37.5 -115.5t128.5 -105.5q22 -14 122.5 -58.5t169.5 -88.5q89 -57 137 -137t48 -171q0 -188 -149 -304t-394 -116q-100 0 -201 17.5t-194 50.5zM518 0h98v-116q5 0 12.5 0.5t20.5 0.5q79 0 122.5 -41t43.5 -114q0 -91 -67 -146
t-179 -55q-39 0 -79 5.5t-87 16.5v97q45 -9 74.5 -13t50.5 -4q63 0 95 19.5t32 56.5q0 32 -24.5 50t-67.5 18q-12 0 -40 -4h-5v229z" />
    <glyph glyph-name="scedilla" unicode="&#x15f;" horiz-adv-x="915" 
d="M809 973v-273h-123l-20 154l-25 23q-34 16 -68 24t-67 8q-74 0 -115 -32.5t-41 -90.5q0 -48 32 -83t159 -97l4 -2q295 -142 295 -289q0 -157 -111.5 -247.5t-306.5 -90.5q-76 0 -160.5 13t-177.5 39v303h123l24 -176l21 -23q40 -21 83 -32t89 -11q81 0 127.5 39.5
t46.5 108.5q0 87 -177 167q-60 27 -93 44q-127 63 -178.5 124.5t-51.5 145.5q0 137 109.5 221t292.5 84q78 0 155 -12.5t154 -38.5zM416 0h98v-116q5 0 12.5 0.5t20.5 0.5q79 0 122.5 -41t43.5 -114q0 -91 -67 -146t-179 -55q-39 0 -79 5.5t-87 16.5v97q45 -9 74.5 -13
t50.5 -4q63 0 95 19.5t32 56.5q0 32 -24.5 50t-67.5 18q-12 0 -40 -4h-5v229z" />
    <glyph glyph-name="Scaron" unicode="&#x160;" horiz-adv-x="1163" 
d="M121 45v371h155l33 -246l27 -31q45 -14 89.5 -21t90.5 -7q120 0 192 53t72 141q0 78 -50.5 138.5t-168.5 119.5q-19 10 -58 28q-140 65 -210 124q-69 58 -106 131t-37 149q0 176 134.5 290t348.5 114q93 0 189 -17.5t196 -52.5v-332h-148l-34 213l-29 29q-29 15 -66 22
t-84 7q-109 0 -175 -54t-66 -141q0 -64 37.5 -115.5t128.5 -105.5q22 -14 122.5 -58.5t169.5 -88.5q89 -57 137 -137t48 -171q0 -188 -149 -304t-394 -116q-100 0 -201 17.5t-194 50.5zM267 1901h159l156 -256l158 256h157l-225 -390h-180z" />
    <glyph glyph-name="scaron" unicode="&#x161;" horiz-adv-x="915" 
d="M809 973v-273h-123l-20 154l-25 23q-34 16 -68 24t-67 8q-74 0 -115 -32.5t-41 -90.5q0 -48 32 -83t159 -97l4 -2q295 -142 295 -289q0 -157 -111.5 -247.5t-306.5 -90.5q-76 0 -160.5 13t-177.5 39v303h123l24 -176l21 -23q40 -21 83 -32t89 -11q81 0 127.5 39.5
t46.5 108.5q0 87 -177 167q-60 27 -93 44q-127 63 -178.5 124.5t-51.5 145.5q0 137 109.5 221t292.5 84q78 0 155 -12.5t154 -38.5zM146 1518h159l156 -256l158 256h157l-225 -390h-180z" />
    <glyph glyph-name="Tcedilla" unicode="&#x162;" horiz-adv-x="1235" 
d="M33 1374h1181v-362h-141l-35 219l-30 26h-246v-1114l35 -32l133 -11v-100h-613v100l134 11l34 32v1114h-245l-31 -26l-35 -219h-141v362zM532 0h98v-116q5 0 12.5 0.5t20.5 0.5q79 0 122.5 -41t43.5 -114q0 -91 -67 -146t-179 -55q-39 0 -79 5.5t-87 16.5v97
q45 -9 74.5 -13t50.5 -4q63 0 95 19.5t32 56.5q0 32 -24.5 50t-67.5 18q-12 0 -40 -4h-5v229z" />
    <glyph glyph-name="tcedilla" unicode="&#x163;" horiz-adv-x="733" 
d="M172 848h-133v78l151 86l107 213h129v-254h303v-123h-303v-510q0 -115 37 -157t133 -42q38 0 70.5 3.5t62.5 10.5v-98q-88 -32 -167.5 -48.5t-145.5 -16.5q-54 0 -95.5 11t-74.5 34q-41 27 -57.5 67.5t-16.5 149.5v596zM293 -9h98v-116q5 0 12.5 0.5t20.5 0.5
q79 0 122.5 -41t43.5 -114q0 -91 -67 -146t-179 -55q-39 0 -79 5.5t-87 16.5v97q45 -9 74.5 -13t50.5 -4q63 0 95 19.5t32 56.5q0 32 -24.5 50t-67.5 18q-12 0 -40 -4h-5v229z" />
    <glyph glyph-name="Tcaron" unicode="&#x164;" horiz-adv-x="1235" 
d="M33 1374h1181v-362h-141l-35 219l-30 26h-246v-1114l35 -32l133 -11v-100h-613v100l134 11l34 32v1114h-245l-31 -26l-35 -219h-141v362zM308 1866h159l156 -256l158 256h157l-225 -390h-180z" />
    <glyph glyph-name="tcaron" unicode="&#x165;" horiz-adv-x="1255" 
d="M172 848h-133v78l151 86l107 213h129v-254h303v-123h-303v-510q0 -115 37 -157t133 -42q38 0 70.5 3.5t62.5 10.5v-98q-88 -32 -167.5 -48.5t-145.5 -16.5q-54 0 -95.5 11t-74.5 34q-41 27 -57.5 67.5t-16.5 149.5v596zM874 809l-43 61q94 57 142.5 128t48.5 153
q0 13 -0.5 19.5t-1.5 12.5l-123 1q-20 24 -29.5 50t-9.5 54q0 64 38.5 103t102.5 39q83 0 133 -58.5t50 -154.5q0 -130 -80.5 -237t-227.5 -171z" />
    <glyph glyph-name="Utilde" unicode="&#x168;" horiz-adv-x="1444" 
d="M41 1374h588v-100l-127 -10l-29 -29v-717q0 -205 78 -293t256 -88q164 0 237.5 93.5t73.5 306.5v690l-31 35l-131 12v100h465v-100l-125 -12l-28 -35v-711q0 -285 -128 -413t-413 -128q-149 0 -261.5 43.5t-176.5 124.5q-49 64 -69.5 146.5t-20.5 236.5v709l-29 29
l-129 10v100zM952 1786h111v-33q0 -115 -47.5 -179.5t-130.5 -64.5q-76 0 -176 48t-121 48q-37 0 -56.5 -28.5t-19.5 -81.5v-19h-113v33q0 117 46.5 180.5t131.5 63.5q67 0 166.5 -48t128.5 -48q40 0 60 28t20 84v17z" />
    <glyph glyph-name="utilde" unicode="&#x169;" horiz-adv-x="1229" 
d="M336 1022h98v-635q0 -122 45.5 -175.5t149.5 -53.5q35 0 77.5 7.5t98.5 24.5v654h-133v82l291 96h94v-891l28 -31l107 -8v-92h-387v113q-107 -70 -188.5 -100.5t-155.5 -30.5q-142 0 -211.5 86t-69.5 264v512h-133v82zM840 1435h111v-33q0 -115 -47.5 -179.5
t-130.5 -64.5q-76 0 -176 48t-121 48q-37 0 -56.5 -28.5t-19.5 -81.5v-19h-113v33q0 117 46.5 180.5t131.5 63.5q67 0 166.5 -48t128.5 -48q40 0 60 28t20 84v17z" />
    <glyph glyph-name="Umacron" unicode="&#x16a;" horiz-adv-x="1444" 
d="M41 1374h588v-100l-127 -10l-29 -29v-717q0 -205 78 -293t256 -88q164 0 237.5 93.5t73.5 306.5v690l-31 35l-131 12v100h465v-100l-125 -12l-28 -35v-711q0 -285 -128 -413t-413 -128q-149 0 -261.5 43.5t-176.5 124.5q-49 64 -69.5 146.5t-20.5 236.5v709l-29 29
l-129 10v100zM392 1621h678v-145h-678v145z" />
    <glyph glyph-name="umacron" unicode="&#x16b;" horiz-adv-x="1229" 
d="M336 1022h98v-635q0 -122 45.5 -175.5t149.5 -53.5q35 0 77.5 7.5t98.5 24.5v654h-133v82l291 96h94v-891l28 -31l107 -8v-92h-387v113q-107 -70 -188.5 -100.5t-155.5 -30.5q-142 0 -211.5 86t-69.5 264v512h-133v82zM280 1270h678v-145h-678v145z" />
    <glyph glyph-name="Ubreve" unicode="&#x16c;" horiz-adv-x="1444" 
d="M41 1374h588v-100l-127 -10l-29 -29v-717q0 -205 78 -293t256 -88q164 0 237.5 93.5t73.5 306.5v690l-31 35l-131 12v100h465v-100l-125 -12l-28 -35v-711q0 -285 -128 -413t-413 -128q-149 0 -261.5 43.5t-176.5 124.5q-49 64 -69.5 146.5t-20.5 236.5v709l-29 29
l-129 10v100zM419 1788l104 -3v-12q0 -84 46 -117.5t163 -33.5q115 0 161 33.5t46 117.5v12l104 3v-23q0 -156 -71.5 -222.5t-239.5 -66.5q-169 0 -241 65.5t-72 217.5v29z" />
    <glyph glyph-name="ubreve" unicode="&#x16d;" horiz-adv-x="1229" 
d="M336 1022h98v-635q0 -122 45.5 -175.5t149.5 -53.5q35 0 77.5 7.5t98.5 24.5v654h-133v82l291 96h94v-891l28 -31l107 -8v-92h-387v113q-107 -70 -188.5 -100.5t-155.5 -30.5q-142 0 -211.5 86t-69.5 264v512h-133v82zM307 1437l104 -3v-12q0 -84 46 -117.5t163 -33.5
q115 0 161 33.5t46 117.5v12l104 3v-23q0 -156 -71.5 -222.5t-239.5 -66.5q-169 0 -241 65.5t-72 217.5v29z" />
    <glyph glyph-name="Uring" unicode="&#x16e;" horiz-adv-x="1444" 
d="M41 1374h588v-100l-127 -10l-29 -29v-717q0 -205 78 -293t256 -88q164 0 237.5 93.5t73.5 306.5v690l-31 35l-131 12v100h465v-100l-125 -12l-28 -35v-711q0 -285 -128 -413t-413 -128q-149 0 -261.5 43.5t-176.5 124.5q-49 64 -69.5 146.5t-20.5 236.5v709l-29 29
l-129 10v100zM730 1855q-56 0 -95.5 -39.5t-39.5 -95.5t40 -96.5t95 -40.5q56 0 96.5 40.5t40.5 96.5t-40 95.5t-97 39.5zM730 1962q102 0 173 -70.5t71 -171.5q0 -102 -71 -173t-173 -71t-172 70.5t-70 173.5q0 101 70.5 171.5t171.5 70.5z" />
    <glyph glyph-name="uring" unicode="&#x16f;" horiz-adv-x="1229" 
d="M336 1022h98v-635q0 -122 45.5 -175.5t149.5 -53.5q35 0 77.5 7.5t98.5 24.5v654h-133v82l291 96h94v-891l28 -31l107 -8v-92h-387v113q-107 -70 -188.5 -100.5t-155.5 -30.5q-142 0 -211.5 86t-69.5 264v512h-133v82zM618 1503q-56 0 -95.5 -39.5t-39.5 -95.5t40 -96.5
t95 -40.5q56 0 96.5 40.5t40.5 96.5t-40 95.5t-97 39.5zM618 1610q102 0 173 -70.5t71 -171.5q0 -102 -71 -173t-173 -71t-172 70.5t-70 173.5q0 101 70.5 171.5t171.5 70.5z" />
    <glyph glyph-name="Uhungarumlaut" unicode="&#x170;" horiz-adv-x="1444" 
d="M41 1374h588v-100l-127 -10l-29 -29v-717q0 -205 78 -293t256 -88q164 0 237.5 93.5t73.5 306.5v690l-31 35l-131 12v100h465v-100l-125 -12l-28 -35v-711q0 -285 -128 -413t-413 -128q-149 0 -261.5 43.5t-176.5 124.5q-49 64 -69.5 146.5t-20.5 236.5v709l-29 29
l-129 10v100zM870 1866h251l-376 -390h-136zM534 1866h223l-297 -390h-119z" />
    <glyph glyph-name="uhungarumlaut" unicode="&#x171;" horiz-adv-x="1229" 
d="M336 1022h98v-635q0 -122 45.5 -175.5t149.5 -53.5q35 0 77.5 7.5t98.5 24.5v654h-133v82l291 96h94v-891l28 -31l107 -8v-92h-387v113q-107 -70 -188.5 -100.5t-155.5 -30.5q-142 0 -211.5 86t-69.5 264v512h-133v82zM758 1515h251l-376 -390h-136zM422 1515h223
l-297 -390h-119z" />
    <glyph glyph-name="Uogonek" unicode="&#x172;" horiz-adv-x="1444" 
d="M41 1374h588v-100l-127 -10l-29 -29v-717q0 -205 78 -293t256 -88q164 0 237.5 93.5t73.5 306.5v690l-31 35l-131 12v100h465v-100l-125 -12l-28 -35v-711q0 -285 -128 -413t-413 -128q-149 0 -261.5 43.5t-176.5 124.5q-49 64 -69.5 146.5t-20.5 236.5v709l-29 29
l-129 10v100zM709 -24h110q-49 -45 -75.5 -97.5t-26.5 -105.5q0 -52 29.5 -80t85.5 -28q12 0 27.5 1.5t35.5 3.5v-138q-26 -7 -55 -11t-58 -4q-105 0 -160 47.5t-55 137.5q0 69 37.5 142t104.5 132z" />
    <glyph glyph-name="uogonek" unicode="&#x173;" horiz-adv-x="1229" 
d="M336 1022h98v-635q0 -122 45.5 -175.5t149.5 -53.5q35 0 77.5 7.5t98.5 24.5v654h-133v82l291 96h94v-891l28 -31l107 -8v-92h-387v113q-107 -70 -188.5 -100.5t-155.5 -30.5q-142 0 -211.5 86t-69.5 264v512h-133v82zM597 -17h110q-49 -45 -75.5 -97.5t-26.5 -105.5
q0 -52 29.5 -80t85.5 -28q12 0 27.5 1.5t35.5 3.5v-138q-26 -7 -55 -11t-58 -4q-105 0 -160 47.5t-55 137.5q0 69 37.5 142t104.5 132z" />
    <glyph glyph-name="Wcircumflex" unicode="&#x174;" horiz-adv-x="1937" 
d="M465 0l-332 1245l-129 29v100h537v-100l-127 -12l-17 -29l230 -850l295 991h206l304 -1014l215 861l-25 28l-135 25v100h446v-100l-129 -29l-313 -1245h-199l-317 1049l-311 -1049h-199zM878 1866h180l225 -390h-157l-158 256l-156 -256h-159z" />
    <glyph glyph-name="wcircumflex" unicode="&#x175;" horiz-adv-x="1636" 
d="M-2 997h508v-94l-100 -14l-23 -29l166 -590l239 727h205l224 -727l180 592l-15 29l-108 12v94h387v-94l-115 -14l-278 -889h-207l-227 735l-244 -735h-205l-264 891l-123 12v94zM739 1490h180l225 -390h-157l-158 256l-156 -256h-159z" />
    <glyph glyph-name="Ycircumflex" unicode="&#x176;" horiz-adv-x="1249" 
d="M-23 1374h560v-100l-115 -10l-19 -25l281 -520l293 502l-16 32l-123 21v100h446v-100l-121 -23l-389 -661v-449l33 -28l139 -11v-102h-614v102l137 11l35 28v400l-395 712l-132 21v100zM540 1866h180l225 -390h-157l-158 256l-156 -256h-159z" />
    <glyph glyph-name="ycircumflex" unicode="&#x177;" horiz-adv-x="1055" 
d="M-8 995h520v-88l-104 -12l-21 -29l221 -579l223 577l-18 31l-108 12v88h393v-88l-111 -18l-395 -961q-73 -176 -175 -276.5t-206 -100.5q-72 0 -124 45.5t-52 106.5q0 44 27.5 81.5t78.5 63.5l178 -122q42 33 82.5 96.5t77.5 152.5l-364 914l-123 18v88zM455 1488h180
l225 -390h-157l-158 256l-156 -256h-159z" />
    <glyph glyph-name="Ydieresis" unicode="&#x178;" horiz-adv-x="1249" 
d="M-23 1374h560v-100l-115 -10l-19 -25l281 -520l293 502l-16 32l-123 21v100h446v-100l-121 -23l-389 -661v-449l33 -28l139 -11v-102h-614v102l137 11l35 28v400l-395 712l-132 21v100zM836 1837q53 0 91 -39.5t38 -95.5q0 -55 -38 -94t-91 -39q-55 0 -92 38.5t-37 94.5
q0 57 37.5 96t91.5 39zM414 1837q53 0 91 -39.5t38 -95.5q0 -55 -37.5 -94t-91.5 -39t-92.5 39t-38.5 94q0 56 38.5 95.5t92.5 39.5z" />
    <glyph glyph-name="Zacute" unicode="&#x179;" horiz-adv-x="1212" 
d="M127 1374h987v-112l-717 -1141h525l20 29l39 247h145v-397h-1036v113l717 1142h-463l-39 -24l-33 -219h-145v362zM581 1866h253l-315 -390h-137z" />
    <glyph glyph-name="zacute" unicode="&#x17a;" horiz-adv-x="1014" 
d="M94 0v127l529 758h-332l-27 -29l-18 -170h-135v309h811v-106l-543 -774h379l30 32l29 189h135v-336h-858zM496 1488h253l-315 -390h-137z" />
    <glyph glyph-name="Zdotaccent" unicode="&#x17b;" horiz-adv-x="1212" 
d="M127 1374h987v-112l-717 -1141h525l20 29l39 247h145v-397h-1036v113l717 1142h-463l-39 -24l-33 -219h-145v362zM608 1750q55 0 94 -41t39 -98q0 -56 -39 -95.5t-94 -39.5q-57 0 -95 39t-38 96q0 58 38.5 98.5t94.5 40.5z" />
    <glyph glyph-name="zdotaccent" unicode="&#x17c;" horiz-adv-x="1014" 
d="M94 0v127l529 758h-332l-27 -29l-18 -170h-135v309h811v-106l-543 -774h379l30 32l29 189h135v-336h-858zM523 1372q55 0 94 -41t39 -98q0 -56 -39 -95.5t-94 -39.5q-57 0 -95 39t-38 96q0 58 38.5 98.5t94.5 40.5z" />
    <glyph glyph-name="Zcaron" unicode="&#x17d;" horiz-adv-x="1212" 
d="M127 1374h987v-112l-717 -1141h525l20 29l39 247h145v-397h-1036v113l717 1142h-463l-39 -24l-33 -219h-145v362zM291 1901h159l156 -256l158 256h157l-225 -390h-180z" />
    <glyph glyph-name="zcaron" unicode="&#x17e;" horiz-adv-x="1014" 
d="M94 0v127l529 758h-332l-27 -29l-18 -170h-135v309h811v-106l-543 -774h379l30 32l29 189h135v-336h-858zM195 1518h159l156 -256l158 256h157l-225 -390h-180z" />
    <glyph glyph-name="florin" unicode="&#x192;" horiz-adv-x="1190" 
d="M215 633v123h225v39q0 162 28 267.5t89 174.5q66 73 160.5 117.5t183.5 44.5q82 0 138.5 -46.5t56.5 -111.5q0 -44 -32 -82t-93 -67l-191 194q-50 -50 -71 -124t-21 -234q0 -37 0.5 -80.5t1.5 -91.5h320v-123h-318l1 -12q3 -102 3 -150q0 -172 -18.5 -293.5t-56.5 -197.5
q-67 -131 -178 -207t-232 -76q-84 0 -135 38.5t-51 100.5q0 45 29 84.5t81 65.5l207 -174q54 51 77 138.5t23 264.5v418h-227z" />
    <glyph glyph-name="clickdental" unicode="&#x1c0;" horiz-adv-x="1024" 
d="M602 1565v-2048h-178v2048h178z" />
    <glyph glyph-name="clicklateral" unicode="&#x1c1;" horiz-adv-x="2048" 
d="M602 1565v-2048h-178v2048h178zM1626 1565v-2048h-178v2048h178z" />
    <glyph glyph-name="clickretroflex" unicode="&#x1c3;" horiz-adv-x="696" 
d="M496 1137l-93 -731h-108l-92 726q-6 46 -8 70t-2 37q0 77 40.5 119.5t114.5 42.5t115 -44t41 -124q0 -19 -2 -43.5t-6 -52.5zM348 297q64 0 109 -46t45 -112q0 -64 -45 -108.5t-109 -44.5q-63 0 -108 45t-45 108q0 66 45 112t108 46z" />
    <glyph glyph-name="DZcaron" unicode="&#x1c4;" horiz-adv-x="2678" 
d="M487 1260v-1145h119q244 0 364 142t120 431t-120 430.5t-364 141.5h-119zM657 1374q351 0 544.5 -180t193.5 -508q0 -180 -63.5 -320.5t-188.5 -236.5q-87 -67 -201.5 -98t-284.5 -31h-598v100l125 11l33 32v1088l-33 33l-125 10v100h598zM1593 1374h987v-112l-717 -1141
h525l20 29l39 247h145v-397h-1036v113l717 1142h-463l-39 -24l-33 -219h-145v362zM1759 1866h159l156 -256l158 256h157l-225 -390h-180z" />
    <glyph glyph-name="Dzcaron" unicode="&#x1c5;" horiz-adv-x="2501" 
d="M487 1260v-1145h119q244 0 364 142t120 431t-120 430.5t-364 141.5h-119zM657 1374q351 0 544.5 -180t193.5 -508q0 -180 -63.5 -320.5t-188.5 -236.5q-87 -67 -201.5 -98t-284.5 -31h-598v100l125 11l33 32v1088l-33 33l-125 10v100h598zM1560 0v127l529 758h-332
l-27 -29l-18 -170h-135v309h811v-106l-543 -774h379l30 32l29 189h135v-336h-858zM1674 1488h159l156 -256l158 256h157l-225 -390h-180z" />
    <glyph glyph-name="dzcaron" unicode="&#x1c6;" horiz-adv-x="2256" 
d="M797 195v684q-46 15 -83 22.5t-69 7.5q-134 0 -214.5 -106t-80.5 -285q0 -170 73 -266t202 -96q34 0 76.5 9.5t95.5 29.5zM797 1335h-150v82l305 96h95v-1382l28 -33l105 -8v-90h-383v115q-94 -69 -172 -101t-152 -32q-174 0 -285.5 137.5t-111.5 355.5q0 245 146.5 397
t381.5 152q44 0 92 -5t101 -15v331zM1315 0v127l529 758h-332l-27 -29l-18 -170h-135v309h811v-106l-543 -774h379l30 32l29 189h135v-336h-858zM1429 1488h159l156 -256l158 256h157l-225 -390h-180z" />
    <glyph glyph-name="LJ" unicode="&#x1c7;" horiz-adv-x="2064" 
d="M55 0v100l125 11l35 32v1092l-29 29l-131 10v100h590v-100l-125 -10l-33 -29v-1116h394l26 33l31 249h152v-401h-1035zM1636 1235l-32 29l-144 10v100h602v-100l-125 -10l-32 -29v-698q0 -292 -114.5 -427t-361.5 -135q-71 0 -144 12.5t-148 37.5v368h149l47 -270l29 -27
q5 0 16.5 -1t16.5 -1q130 0 185.5 99.5t55.5 341.5v700z" />
    <glyph glyph-name="Lj" unicode="&#x1c8;" horiz-adv-x="1720" 
d="M55 0v100l125 11l35 32v1092l-29 29l-131 10v100h590v-100l-125 -10l-33 -29v-1116h394l26 33l31 249h152v-401h-1035zM1307 1329q0 69 41.5 111.5t109.5 42.5q64 0 107 -44.5t43 -111.5q0 -62 -45 -105.5t-109 -43.5q-63 0 -105 42.5t-42 108.5zM1335 838h-145v82
l309 96h86v-815q0 -186 -25.5 -292.5t-85.5 -182.5q-59 -77 -150 -120.5t-189 -43.5q-85 0 -136 40.5t-51 106.5q0 48 33 84.5t86 46.5l201 -186q35 48 51 144t16 261v779z" />
    <glyph glyph-name="lj" unicode="&#x1c9;" horiz-adv-x="1231" 
d="M47 0v90l119 12l29 29v1204h-148v82l309 96h90v-1378l31 -33l119 -12v-90h-549zM818 1329q0 69 41.5 111.5t109.5 42.5q64 0 107 -44.5t43 -111.5q0 -62 -45 -105.5t-109 -43.5q-63 0 -105 42.5t-42 108.5zM846 838h-145v82l309 96h86v-815q0 -186 -25.5 -292.5
t-85.5 -182.5q-59 -77 -150 -120.5t-189 -43.5q-85 0 -136 40.5t-51 106.5q0 48 33 84.5t86 46.5l201 -186q35 48 51 144t16 261v779z" />
    <glyph glyph-name="NJ" unicode="&#x1ca;" horiz-adv-x="2441" 
d="M53 0v98l121 17l37 37v1083l-29 29l-129 10v100h469v-55l627 -973v877l-37 39l-125 12v100h467v-100l-121 -12l-35 -39v-1223h-229l-709 1100v-948l33 -37l127 -17v-98h-467zM2013 1235l-32 29l-144 10v100h602v-100l-125 -10l-32 -29v-698q0 -292 -114.5 -427
t-361.5 -135q-71 0 -144 12.5t-148 37.5v368h149l47 -270l29 -27q5 0 16.5 -1t16.5 -1q130 0 185.5 99.5t55.5 341.5v700z" />
    <glyph glyph-name="Nj" unicode="&#x1cb;" horiz-adv-x="2097" 
d="M53 0v98l121 17l37 37v1083l-29 29l-129 10v100h469v-55l627 -973v877l-37 39l-125 12v100h467v-100l-121 -12l-35 -39v-1223h-229l-709 1100v-948l33 -37l127 -17v-98h-467zM1684 1329q0 69 41.5 111.5t109.5 42.5q64 0 107 -44.5t43 -111.5q0 -62 -45 -105.5
t-109 -43.5q-63 0 -105 42.5t-42 108.5zM1712 838h-145v82l309 96h86v-815q0 -186 -25.5 -292.5t-85.5 -182.5q-59 -77 -150 -120.5t-189 -43.5q-85 0 -136 40.5t-51 106.5q0 48 33 84.5t86 46.5l201 -186q35 48 51 144t16 261v779z" />
    <glyph glyph-name="nj" unicode="&#x1cc;" horiz-adv-x="1847" 
d="M63 0v92l105 8l29 31v707h-140v82l295 96h99v-121q117 65 202 95t148 30q140 0 209 -84t69 -256v-549l27 -31l108 -8v-92h-501v92l88 8l28 31v490q0 114 -44 167.5t-140 53.5q-37 0 -85.5 -9t-108.5 -26v-676l28 -31l90 -8v-92h-506zM1434 1329q0 69 41.5 111.5
t109.5 42.5q64 0 107 -44.5t43 -111.5q0 -62 -45 -105.5t-109 -43.5q-63 0 -105 42.5t-42 108.5zM1462 838h-145v82l309 96h86v-815q0 -186 -25.5 -292.5t-85.5 -182.5q-59 -77 -150 -120.5t-189 -43.5q-85 0 -136 40.5t-51 106.5q0 48 33 84.5t86 46.5l201 -186
q35 48 51 144t16 261v779z" />
    <glyph glyph-name="Acaron" unicode="&#x1cd;" horiz-adv-x="1333" 
d="M608 1108l-178 -506h361zM563 1389h215l471 -1268l121 -21v-100h-553v100l129 13l15 26l-123 348h-447l-123 -346l21 -26l129 -15v-100h-441v100l123 19zM358 1881h159l156 -256l158 256h157l-225 -390h-180z" />
    <glyph glyph-name="acaron" unicode="&#x1ce;" horiz-adv-x="1114" 
d="M702 201v334q-202 -45 -276 -98t-74 -144q0 -71 41 -112.5t111 -41.5q39 0 88.5 15.5t109.5 46.5zM702 117q-104 -71 -189 -103t-163 -32q-118 0 -193 74.5t-75 191.5q0 144 110 222t513 169v61q0 111 -47 162t-148 51q-22 0 -46 -3t-52 -9v-192h-189q-49 0 -71.5 18
t-22.5 57q0 96 129 167t317 71q211 0 297 -81t86 -282v-530l27 -29l109 -10v-90h-365zM273 1515h159l156 -256l158 256h157l-225 -390h-180z" />
    <glyph glyph-name="Icaron" unicode="&#x1cf;" horiz-adv-x="725" 
d="M61 0v100l136 11l34 32v1092l-34 29l-136 10v100h613v-100l-137 -10l-33 -29v-1092l33 -32l137 -11v-100h-613zM53 1866h159l156 -256l158 256h157l-225 -390h-180z" />
    <glyph glyph-name="icaron" unicode="&#x1d0;" horiz-adv-x="625" 
d="M354 1016h99v-885l30 -31l115 -8v-92h-537v92l111 8l29 31v707h-135v82zM15 1509h159l156 -256l158 256h157l-225 -390h-180z" />
    <glyph glyph-name="Ocaron" unicode="&#x1d1;" horiz-adv-x="1540" 
d="M778 1274q-176 0 -282.5 -158.5t-106.5 -425.5q0 -271 106.5 -434.5t278.5 -163.5q174 0 280.5 159.5t106.5 424.5q0 274 -104.5 436t-278.5 162zM84 694q0 168 53 302t158 231q97 89 216.5 133.5t262.5 44.5q132 0 244.5 -40t206.5 -120q118 -102 180.5 -246t62.5 -317
q0 -163 -55.5 -299t-163.5 -236q-93 -87 -212 -133.5t-249 -46.5q-317 0 -510.5 200t-193.5 527zM461 1897h159l156 -256l158 256h157l-225 -390h-180z" />
    <glyph glyph-name="ocaron" unicode="&#x1d2;" horiz-adv-x="1182" 
d="M598 913q-112 0 -175 -107t-63 -300q0 -196 62.5 -305t173.5 -109q116 0 179 106t63 302q0 195 -63.5 304t-176.5 109zM606 1022q236 0 375 -142.5t139 -385.5q0 -230 -145 -370t-385 -140q-231 0 -372.5 141.5t-141.5 372.5q0 237 145 380.5t385 143.5zM283 1515h159
l156 -256l158 256h157l-225 -390h-180z" />
    <glyph glyph-name="Ucaron" unicode="&#x1d3;" horiz-adv-x="1444" 
d="M41 1374h588v-100l-127 -10l-29 -29v-717q0 -205 78 -293t256 -88q164 0 237.5 93.5t73.5 306.5v690l-31 35l-131 12v100h465v-100l-125 -12l-28 -35v-711q0 -285 -128 -413t-413 -128q-149 0 -261.5 43.5t-176.5 124.5q-49 64 -69.5 146.5t-20.5 236.5v709l-29 29
l-129 10v100zM416 1866h159l156 -256l158 256h157l-225 -390h-180z" />
    <glyph glyph-name="ucaron" unicode="&#x1d4;" horiz-adv-x="1229" 
d="M336 1022h98v-635q0 -122 45.5 -175.5t149.5 -53.5q35 0 77.5 7.5t98.5 24.5v654h-133v82l291 96h94v-891l28 -31l107 -8v-92h-387v113q-107 -70 -188.5 -100.5t-155.5 -30.5q-142 0 -211.5 86t-69.5 264v512h-133v82zM304 1515h159l156 -256l158 256h157l-225 -390h-180
z" />
    <glyph glyph-name="Udieresismacron" unicode="&#x1d5;" horiz-adv-x="1444" 
d="M41 1374h588v-100l-127 -10l-29 -29v-717q0 -205 78 -293t256 -88q164 0 237.5 93.5t73.5 306.5v690l-31 35l-131 12v100h465v-100l-125 -12l-28 -35v-711q0 -285 -128 -413t-413 -128q-149 0 -261.5 43.5t-176.5 124.5q-49 64 -69.5 146.5t-20.5 236.5v709l-29 29
l-129 10v100zM943 1744q53 0 91 -39.5t38 -95.5q0 -55 -38 -94t-91 -39q-55 0 -92 38.5t-37 94.5q0 57 37.5 96t91.5 39zM521 1744q53 0 91 -39.5t38 -95.5q0 -55 -37.5 -94t-91.5 -39t-92.5 39t-38.5 94q0 56 38.5 95.5t92.5 39.5zM392 1991h678v-145h-678v145z" />
    <glyph glyph-name="udieresismacron" unicode="&#x1d6;" horiz-adv-x="1229" 
d="M336 1022h98v-635q0 -122 45.5 -175.5t149.5 -53.5q35 0 77.5 7.5t98.5 24.5v654h-133v82l291 96h94v-891l28 -31l107 -8v-92h-387v113q-107 -70 -188.5 -100.5t-155.5 -30.5q-142 0 -211.5 86t-69.5 264v512h-133v82zM831 1393q53 0 91 -39.5t38 -95.5q0 -55 -38 -94
t-91 -39q-55 0 -92 38.5t-37 94.5q0 57 37.5 96t91.5 39zM409 1393q53 0 91 -39.5t38 -95.5q0 -55 -37.5 -94t-91.5 -39t-92.5 39t-38.5 94q0 56 38.5 95.5t92.5 39.5zM280 1639h678v-145h-678v145z" />
    <glyph glyph-name="Udieresisacute" unicode="&#x1d7;" horiz-adv-x="1444" 
d="M41 1374h588v-100l-127 -10l-29 -29v-717q0 -205 78 -293t256 -88q164 0 237.5 93.5t73.5 306.5v690l-31 35l-131 12v100h465v-100l-125 -12l-28 -35v-711q0 -285 -128 -413t-413 -128q-149 0 -261.5 43.5t-176.5 124.5q-49 64 -69.5 146.5t-20.5 236.5v709l-29 29
l-129 10v100zM943 1744q53 0 91 -39.5t38 -95.5q0 -55 -38 -94t-91 -39q-55 0 -92 38.5t-37 94.5q0 57 37.5 96t91.5 39zM521 1744q53 0 91 -39.5t38 -95.5q0 -55 -37.5 -94t-91.5 -39t-92.5 39t-38.5 94q0 56 38.5 95.5t92.5 39.5zM704 2236h253l-315 -390h-137z" />
    <glyph glyph-name="udieresisacute" unicode="&#x1d8;" horiz-adv-x="1229" 
d="M336 1022h98v-635q0 -122 45.5 -175.5t149.5 -53.5q35 0 77.5 7.5t98.5 24.5v654h-133v82l291 96h94v-891l28 -31l107 -8v-92h-387v113q-107 -70 -188.5 -100.5t-155.5 -30.5q-142 0 -211.5 86t-69.5 264v512h-133v82zM831 1393q53 0 91 -39.5t38 -95.5q0 -55 -38 -94
t-91 -39q-55 0 -92 38.5t-37 94.5q0 57 37.5 96t91.5 39zM409 1393q53 0 91 -39.5t38 -95.5q0 -55 -37.5 -94t-91.5 -39t-92.5 39t-38.5 94q0 56 38.5 95.5t92.5 39.5zM593 1884h253l-315 -390h-137z" />
    <glyph glyph-name="Udieresiscaron" unicode="&#x1d9;" horiz-adv-x="1444" 
d="M41 1374h588v-100l-127 -10l-29 -29v-717q0 -205 78 -293t256 -88q164 0 237.5 93.5t73.5 306.5v690l-31 35l-131 12v100h465v-100l-125 -12l-28 -35v-711q0 -285 -128 -413t-413 -128q-149 0 -261.5 43.5t-176.5 124.5q-49 64 -69.5 146.5t-20.5 236.5v709l-29 29
l-129 10v100zM943 1744q53 0 91 -39.5t38 -95.5q0 -55 -38 -94t-91 -39q-55 0 -92 38.5t-37 94.5q0 57 37.5 96t91.5 39zM521 1744q53 0 91 -39.5t38 -95.5q0 -55 -37.5 -94t-91.5 -39t-92.5 39t-38.5 94q0 56 38.5 95.5t92.5 39.5zM416 2236h159l156 -256l158 256h157
l-225 -390h-180z" />
    <glyph glyph-name="udieresiscaron" unicode="&#x1da;" horiz-adv-x="1229" 
d="M336 1022h98v-635q0 -122 45.5 -175.5t149.5 -53.5q35 0 77.5 7.5t98.5 24.5v654h-133v82l291 96h94v-891l28 -31l107 -8v-92h-387v113q-107 -70 -188.5 -100.5t-155.5 -30.5q-142 0 -211.5 86t-69.5 264v512h-133v82zM831 1393q53 0 91 -39.5t38 -95.5q0 -55 -38 -94
t-91 -39q-55 0 -92 38.5t-37 94.5q0 57 37.5 96t91.5 39zM409 1393q53 0 91 -39.5t38 -95.5q0 -55 -37.5 -94t-91.5 -39t-92.5 39t-38.5 94q0 56 38.5 95.5t92.5 39.5zM304 1884h159l156 -256l158 256h157l-225 -390h-180z" />
    <glyph glyph-name="Udieresisgrave" unicode="&#x1db;" horiz-adv-x="1444" 
d="M41 1374h588v-100l-127 -10l-29 -29v-717q0 -205 78 -293t256 -88q164 0 237.5 93.5t73.5 306.5v690l-31 35l-131 12v100h465v-100l-125 -12l-28 -35v-711q0 -285 -128 -413t-413 -128q-149 0 -261.5 43.5t-176.5 124.5q-49 64 -69.5 146.5t-20.5 236.5v709l-29 29
l-129 10v100zM943 1744q53 0 91 -39.5t38 -95.5q0 -55 -38 -94t-91 -39q-55 0 -92 38.5t-37 94.5q0 57 37.5 96t91.5 39zM521 1744q53 0 91 -39.5t38 -95.5q0 -55 -37.5 -94t-91.5 -39t-92.5 39t-38.5 94q0 56 38.5 95.5t92.5 39.5zM505 2236h254l199 -390h-140z" />
    <glyph glyph-name="udieresisgrave" unicode="&#x1dc;" horiz-adv-x="1229" 
d="M336 1022h98v-635q0 -122 45.5 -175.5t149.5 -53.5q35 0 77.5 7.5t98.5 24.5v654h-133v82l291 96h94v-891l28 -31l107 -8v-92h-387v113q-107 -70 -188.5 -100.5t-155.5 -30.5q-142 0 -211.5 86t-69.5 264v512h-133v82zM831 1393q53 0 91 -39.5t38 -95.5q0 -55 -38 -94
t-91 -39q-55 0 -92 38.5t-37 94.5q0 57 37.5 96t91.5 39zM409 1393q53 0 91 -39.5t38 -95.5q0 -55 -37.5 -94t-91.5 -39t-92.5 39t-38.5 94q0 56 38.5 95.5t92.5 39.5zM393 1884h254l199 -390h-140z" />
    <glyph glyph-name="Adieresismacron" unicode="&#x1de;" horiz-adv-x="1333" 
d="M608 1108l-178 -506h361zM563 1389h215l471 -1268l121 -21v-100h-553v100l129 13l15 26l-123 348h-447l-123 -346l21 -26l129 -15v-100h-441v100l123 19zM885 1759q53 0 91 -39.5t38 -95.5q0 -55 -38 -94t-91 -39q-55 0 -92 38.5t-37 94.5q0 57 37.5 96t91.5 39z
M463 1759q53 0 91 -39.5t38 -95.5q0 -55 -37.5 -94t-91.5 -39t-92.5 39t-38.5 94q0 56 38.5 95.5t92.5 39.5zM334 2006h678v-145h-678v145z" />
    <glyph glyph-name="adieresismacron" unicode="&#x1df;" horiz-adv-x="1114" 
d="M702 201v334q-202 -45 -276 -98t-74 -144q0 -71 41 -112.5t111 -41.5q39 0 88.5 15.5t109.5 46.5zM702 117q-104 -71 -189 -103t-163 -32q-118 0 -193 74.5t-75 191.5q0 144 110 222t513 169v61q0 111 -47 162t-148 51q-22 0 -46 -3t-52 -9v-192h-189q-49 0 -71.5 18
t-22.5 57q0 96 129 167t317 71q211 0 297 -81t86 -282v-530l27 -29l109 -10v-90h-365zM800 1393q53 0 91 -39.5t38 -95.5q0 -55 -38 -94t-91 -39q-55 0 -92 38.5t-37 94.5q0 57 37.5 96t91.5 39zM378 1393q53 0 91 -39.5t38 -95.5q0 -55 -37.5 -94t-91.5 -39t-92.5 39
t-38.5 94q0 56 38.5 95.5t92.5 39.5zM249 1639h678v-145h-678v145z" />
    <glyph glyph-name="Adotmacron" unicode="&#x1e0;" horiz-adv-x="1333" 
d="M608 1108l-178 -506h361zM563 1389h215l471 -1268l121 -21v-100h-553v100l129 13l15 26l-123 348h-447l-123 -346l21 -26l129 -15v-100h-441v100l123 19zM673 1765q55 0 94 -41t39 -98q0 -56 -39 -95.5t-94 -39.5q-57 0 -95 39t-38 96q0 58 38.5 98.5t94.5 40.5z
M334 2012h678v-145h-678v145z" />
    <glyph glyph-name="adotmacron" unicode="&#x1e1;" horiz-adv-x="1114" 
d="M702 201v334q-202 -45 -276 -98t-74 -144q0 -71 41 -112.5t111 -41.5q39 0 88.5 15.5t109.5 46.5zM702 117q-104 -71 -189 -103t-163 -32q-118 0 -193 74.5t-75 191.5q0 144 110 222t513 169v61q0 111 -47 162t-148 51q-22 0 -46 -3t-52 -9v-192h-189q-49 0 -71.5 18
t-22.5 57q0 96 129 167t317 71q211 0 297 -81t86 -282v-530l27 -29l109 -10v-90h-365zM588 1399q55 0 94 -41t39 -98q0 -56 -39 -95.5t-94 -39.5q-57 0 -95 39t-38 96q0 58 38.5 98.5t94.5 40.5zM249 1645h678v-145h-678v145z" />
    <glyph glyph-name="AEmacron" unicode="&#x1e2;" horiz-adv-x="1823" 
d="M854 1262l-385 -639h385v639zM537 1374h1163v-321h-141l-33 180l-27 27h-385v-488h244l28 29l21 147h121v-475h-121l-21 148l-28 28h-244v-532h451l28 33l33 217h141v-367h-1071v100l125 11l33 32v359h-457l-215 -361l15 -26l122 -15v-100h-438v100l123 15l672 1118
l-23 31l-116 10v100zM485 1621h678v-145h-678v145z" />
    <glyph glyph-name="aemacron" unicode="&#x1e3;" horiz-adv-x="1573" 
d="M909 623h334v28q0 129 -40 195.5t-118 66.5q-85 0 -129.5 -74t-46.5 -216zM672 201v334q-200 -55 -263 -104.5t-63 -137.5q0 -71 38.5 -112.5t102.5 -41.5q36 0 81.5 15t103.5 47zM397 709h-182q-46 0 -66 17.5t-20 57.5q0 97 123 167.5t303 70.5q102 0 173 -27.5
t122 -85.5q59 56 130.5 84.5t152.5 28.5q175 0 273.5 -120.5t98.5 -336.5q0 -8 -1 -24.5t-1 -24.5h-590v-248q69 -62 144 -92.5t160 -30.5q73 0 141.5 26t144.5 83v-152q-90 -60 -183 -90t-190 -30q-113 0 -213.5 37.5t-183.5 111.5q-103 -75 -198 -112t-185 -37
q-123 0 -194.5 73t-71.5 199q0 140 107 218t481 167v61q0 113 -45.5 163t-147.5 50q-16 0 -37 -3t-45 -9v-192zM455 1270h678v-145h-678v145z" />
    <glyph glyph-name="Gcaron" unicode="&#x1e6;" horiz-adv-x="1454" 
d="M815 676h598v-101l-119 -10l-32 -28v-478q-121 -42 -235 -63t-224 -21q-321 0 -521 200t-200 521q0 318 204.5 509.5t542.5 191.5q102 0 210.5 -17t222.5 -51v-348h-150l-39 217l-31 37q-40 17 -82 25t-88 8q-230 0 -361.5 -152.5t-131.5 -419.5q0 -274 134.5 -428.5
t373.5 -154.5q16 0 45 1.5t67 4.5v418l-32 28l-152 10v101zM432 1889h159l156 -256l158 256h157l-225 -390h-180z" />
    <glyph glyph-name="gcaron" unicode="&#x1e7;" horiz-adv-x="1128" 
d="M406 39q-43 -35 -65 -78t-22 -92q0 -85 69 -145t169 -60q106 0 175 55.5t69 137.5q0 64 -45.5 97.5t-175.5 55.5zM547 922q-79 0 -125.5 -64.5t-46.5 -173.5q0 -113 46 -180.5t122 -67.5q74 0 120 68.5t46 181.5q0 105 -45.5 170.5t-116.5 65.5zM834 958h303v-116h-222
q23 -40 34.5 -79t11.5 -79q0 -152 -119 -246t-316 -94q-23 0 -35.5 0.5t-23.5 1.5q-9 -22 -12.5 -40.5t-3.5 -35.5q0 -12 1.5 -26t4.5 -29l139 -18q253 -37 350.5 -99.5t97.5 -179.5q0 -152 -157 -257t-393 -105q-198 0 -311 75.5t-113 204.5q0 96 56 156t154 70
q-13 28 -19.5 53.5t-6.5 48.5q0 49 27 95.5t86 98.5q-123 35 -188.5 115t-65.5 193q0 159 118.5 255.5t319.5 96.5q68 0 139 -15t144 -45zM288 1511h159l156 -256l158 256h157l-225 -390h-180z" />
    <glyph glyph-name="Kcaron" unicode="&#x1e8;" horiz-adv-x="1331" 
d="M61 0v100l125 11l31 32v1092l-31 29l-125 10v100h582v-100l-121 -10l-33 -29v-537h58l444 539l-12 27l-115 10v100h461v-100l-143 -14l-389 -465l436 -682l147 -13v-100h-424v72l-344 530h-119v-459l33 -32l121 -11v-100h-582zM403 1866h159l156 -256l158 256h157
l-225 -390h-180z" />
    <glyph glyph-name="kcaron" unicode="&#x1e9;" horiz-adv-x="1133" 
d="M51 0v90l107 10l28 31v1206h-149v80l315 96h86v-983h45l293 342l-14 23l-90 10v90h418v-90l-134 -16l-233 -260l326 -529l120 -10v-90h-393v80l-237 383h-101v-336l27 -29l102 -8v-90h-516zM288 2005h159l156 -256l158 256h157l-225 -390h-180z" />
    <glyph glyph-name="Oogonek" unicode="&#x1ea;" horiz-adv-x="1540" 
d="M778 1274q-176 0 -282.5 -158.5t-106.5 -425.5q0 -271 106.5 -434.5t278.5 -163.5q174 0 280.5 159.5t106.5 424.5q0 274 -104.5 436t-278.5 162zM84 694q0 168 53 302t158 231q97 89 216.5 133.5t262.5 44.5q132 0 244.5 -40t206.5 -120q118 -102 180.5 -246t62.5 -317
q0 -163 -55.5 -299t-163.5 -236q-93 -87 -212 -133.5t-249 -46.5q-317 0 -510.5 200t-193.5 527zM754 -32h110q-49 -45 -75.5 -97.5t-26.5 -105.5q0 -52 29.5 -80t85.5 -28q12 0 27.5 1.5t35.5 3.5v-138q-26 -7 -55 -11t-58 -4q-105 0 -160 47.5t-55 137.5q0 69 37.5 142
t104.5 132z" />
    <glyph glyph-name="oogonek" unicode="&#x1eb;" horiz-adv-x="1182" 
d="M598 913q-112 0 -175 -107t-63 -300q0 -196 62.5 -305t173.5 -109q116 0 179 106t63 302q0 195 -63.5 304t-176.5 109zM606 1022q236 0 375 -142.5t139 -385.5q0 -230 -145 -370t-385 -140q-231 0 -372.5 141.5t-141.5 372.5q0 237 145 380.5t385 143.5zM576 -15h110
q-49 -45 -75.5 -97.5t-26.5 -105.5q0 -52 29.5 -80t85.5 -28q12 0 27.5 1.5t35.5 3.5v-138q-26 -7 -55 -11t-58 -4q-105 0 -160 47.5t-55 137.5q0 69 37.5 142t104.5 132z" />
    <glyph glyph-name="Oogonekmacron" unicode="&#x1ec;" horiz-adv-x="1540" 
d="M778 1274q-176 0 -282.5 -158.5t-106.5 -425.5q0 -271 106.5 -434.5t278.5 -163.5q174 0 280.5 159.5t106.5 424.5q0 274 -104.5 436t-278.5 162zM84 694q0 168 53 302t158 231q97 89 216.5 133.5t262.5 44.5q132 0 244.5 -40t206.5 -120q118 -102 180.5 -246t62.5 -317
q0 -163 -55.5 -299t-163.5 -236q-93 -87 -212 -133.5t-249 -46.5q-317 0 -510.5 200t-193.5 527zM754 -32h110q-49 -45 -75.5 -97.5t-26.5 -105.5q0 -52 29.5 -80t85.5 -28q12 0 27.5 1.5t35.5 3.5v-138q-26 -7 -55 -11t-58 -4q-105 0 -160 47.5t-55 137.5q0 69 37.5 142
t104.5 132zM437 1652h678v-145h-678v145z" />
    <glyph glyph-name="oogonekmacron" unicode="&#x1ed;" horiz-adv-x="1182" 
d="M598 913q-112 0 -175 -107t-63 -300q0 -196 62.5 -305t173.5 -109q116 0 179 106t63 302q0 195 -63.5 304t-176.5 109zM606 1022q236 0 375 -142.5t139 -385.5q0 -230 -145 -370t-385 -140q-231 0 -372.5 141.5t-141.5 372.5q0 237 145 380.5t385 143.5zM576 -15h110
q-49 -45 -75.5 -97.5t-26.5 -105.5q0 -52 29.5 -80t85.5 -28q12 0 27.5 1.5t35.5 3.5v-138q-26 -7 -55 -11t-58 -4q-105 0 -160 47.5t-55 137.5q0 69 37.5 142t104.5 132zM259 1270h678v-145h-678v145z" />
    <glyph glyph-name="DZ" unicode="&#x1f1;" horiz-adv-x="2678" 
d="M487 1260v-1145h119q244 0 364 142t120 431t-120 430.5t-364 141.5h-119zM657 1374q351 0 544.5 -180t193.5 -508q0 -180 -63.5 -320.5t-188.5 -236.5q-87 -67 -201.5 -98t-284.5 -31h-598v100l125 11l33 32v1088l-33 33l-125 10v100h598zM1593 1374h987v-112l-717 -1141
h525l20 29l39 247h145v-397h-1036v113l717 1142h-463l-39 -24l-33 -219h-145v362z" />
    <glyph glyph-name="Dz" unicode="&#x1f2;" horiz-adv-x="2480" 
d="M487 1260v-1145h119q244 0 364 142t120 431t-120 430.5t-364 141.5h-119zM657 1374q351 0 544.5 -180t193.5 -508q0 -180 -63.5 -320.5t-188.5 -236.5q-87 -67 -201.5 -98t-284.5 -31h-598v100l125 11l33 32v1088l-33 33l-125 10v100h598zM1560 0v127l529 758h-332
l-27 -29l-18 -170h-135v309h811v-106l-543 -774h379l30 32l29 189h135v-336h-858z" />
    <glyph glyph-name="dz" unicode="&#x1f3;" horiz-adv-x="2235" 
d="M797 195v684q-46 15 -83 22.5t-69 7.5q-134 0 -214.5 -106t-80.5 -285q0 -170 73 -266t202 -96q34 0 76.5 9.5t95.5 29.5zM797 1335h-150v82l305 96h95v-1382l28 -33l105 -8v-90h-383v115q-94 -69 -172 -101t-152 -32q-174 0 -285.5 137.5t-111.5 355.5q0 245 146.5 397
t381.5 152q44 0 92 -5t101 -15v331zM1315 0v127l529 758h-332l-27 -29l-18 -170h-135v309h811v-106l-543 -774h379l30 32l29 189h135v-336h-858z" />
    <glyph glyph-name="Gacute" unicode="&#x1f4;" horiz-adv-x="1454" 
d="M815 676h598v-101l-119 -10l-32 -28v-478q-121 -42 -235 -63t-224 -21q-321 0 -521 200t-200 521q0 318 204.5 509.5t542.5 191.5q102 0 210.5 -17t222.5 -51v-348h-150l-39 217l-31 37q-40 17 -82 25t-88 8q-230 0 -361.5 -152.5t-131.5 -419.5q0 -274 134.5 -428.5
t373.5 -154.5q16 0 45 1.5t67 4.5v418l-32 28l-152 10v101zM720 1889h253l-315 -390h-137z" />
    <glyph glyph-name="gacute" unicode="&#x1f5;" horiz-adv-x="1128" 
d="M406 39q-43 -35 -65 -78t-22 -92q0 -85 69 -145t169 -60q106 0 175 55.5t69 137.5q0 64 -45.5 97.5t-175.5 55.5zM547 922q-79 0 -125.5 -64.5t-46.5 -173.5q0 -113 46 -180.5t122 -67.5q74 0 120 68.5t46 181.5q0 105 -45.5 170.5t-116.5 65.5zM834 958h303v-116h-222
q23 -40 34.5 -79t11.5 -79q0 -152 -119 -246t-316 -94q-23 0 -35.5 0.5t-23.5 1.5q-9 -22 -12.5 -40.5t-3.5 -35.5q0 -12 1.5 -26t4.5 -29l139 -18q253 -37 350.5 -99.5t97.5 -179.5q0 -152 -157 -257t-393 -105q-198 0 -311 75.5t-113 204.5q0 96 56 156t154 70
q-13 28 -19.5 53.5t-6.5 48.5q0 49 27 95.5t86 98.5q-123 35 -188.5 115t-65.5 193q0 159 118.5 255.5t319.5 96.5q68 0 139 -15t144 -45zM577 1511h253l-315 -390h-137z" />
    <glyph glyph-name="Ngrave" unicode="&#x1f8;" horiz-adv-x="1489" 
d="M53 0v98l121 17l37 37v1083l-29 29l-129 10v100h469v-55l627 -973v877l-37 39l-125 12v100h467v-100l-121 -12l-35 -39v-1223h-229l-709 1100v-948l33 -37l127 -17v-98h-467zM527 1866h254l199 -390h-140z" />
    <glyph glyph-name="ngrave" unicode="&#x1f9;" horiz-adv-x="1239" 
d="M63 0v92l105 8l29 31v707h-140v82l295 96h99v-121q117 65 202 95t148 30q140 0 209 -84t69 -256v-549l27 -31l108 -8v-92h-501v92l88 8l28 31v490q0 114 -44 167.5t-140 53.5q-37 0 -85.5 -9t-108.5 -26v-676l28 -31l90 -8v-92h-506zM409 1513h254l199 -390h-140z" />
    <glyph glyph-name="Aringacute" unicode="&#x1fa;" horiz-adv-x="1333" 
d="M608 1108l-178 -506h361zM563 1389h215l471 -1268l121 -21v-100h-553v100l129 13l15 26l-123 348h-447l-123 -346l21 -26l129 -15v-100h-441v100l123 19zM672 1870q-56 0 -95.5 -39.5t-39.5 -95.5t40 -96.5t95 -40.5q56 0 96.5 40.5t40.5 96.5t-40 95.5t-97 39.5z
M672 1977q102 0 173 -70.5t71 -171.5q0 -102 -71 -173t-173 -71t-172 70.5t-70 173.5q0 101 70.5 171.5t171.5 70.5zM646 2469h253l-315 -390h-137z" />
    <glyph glyph-name="aringacute" unicode="&#x1fb;" horiz-adv-x="1114" 
d="M702 201v334q-202 -45 -276 -98t-74 -144q0 -71 41 -112.5t111 -41.5q39 0 88.5 15.5t109.5 46.5zM702 117q-104 -71 -189 -103t-163 -32q-118 0 -193 74.5t-75 191.5q0 144 110 222t513 169v61q0 111 -47 162t-148 51q-22 0 -46 -3t-52 -9v-192h-189q-49 0 -71.5 18
t-22.5 57q0 96 129 167t317 71q211 0 297 -81t86 -282v-530l27 -29l109 -10v-90h-365zM587 1503q-56 0 -95.5 -39.5t-39.5 -95.5t40 -96.5t95 -40.5q56 0 96.5 40.5t40.5 96.5t-40 95.5t-97 39.5zM587 1610q102 0 173 -70.5t71 -171.5q0 -102 -71 -173t-173 -71t-172 70.5
t-70 173.5q0 101 70.5 171.5t171.5 70.5zM562 2102h253l-315 -390h-137z" />
    <glyph glyph-name="AEacute" unicode="&#x1fc;" horiz-adv-x="1823" 
d="M854 1262l-385 -639h385v639zM537 1374h1163v-321h-141l-33 180l-27 27h-385v-488h244l28 29l21 147h121v-475h-121l-21 148l-28 28h-244v-532h451l28 33l33 217h141v-367h-1071v100l125 11l33 32v359h-457l-215 -361l15 -26l122 -15v-100h-438v100l123 15l672 1118
l-23 31l-116 10v100zM797 1866h253l-315 -390h-137z" />
    <glyph glyph-name="aeacute" unicode="&#x1fd;" horiz-adv-x="1573" 
d="M909 623h334v28q0 129 -40 195.5t-118 66.5q-85 0 -129.5 -74t-46.5 -216zM672 201v334q-200 -55 -263 -104.5t-63 -137.5q0 -71 38.5 -112.5t102.5 -41.5q36 0 81.5 15t103.5 47zM397 709h-182q-46 0 -66 17.5t-20 57.5q0 97 123 167.5t303 70.5q102 0 173 -27.5
t122 -85.5q59 56 130.5 84.5t152.5 28.5q175 0 273.5 -120.5t98.5 -336.5q0 -8 -1 -24.5t-1 -24.5h-590v-248q69 -62 144 -92.5t160 -30.5q73 0 141.5 26t144.5 83v-152q-90 -60 -183 -90t-190 -30q-113 0 -213.5 37.5t-183.5 111.5q-103 -75 -198 -112t-185 -37
q-123 0 -194.5 73t-71.5 199q0 140 107 218t481 167v61q0 113 -45.5 163t-147.5 50q-16 0 -37 -3t-45 -9v-192zM767 1515h253l-315 -390h-137z" />
    <glyph glyph-name="Oslashacute" unicode="&#x1fe;" horiz-adv-x="1540" 
d="M1073 1102l-532 -914q52 -47 111 -70.5t126 -23.5q176 0 286 158.5t110 417.5q0 138 -24.5 242.5t-76.5 189.5zM993 1196q-47 40 -100 59t-115 19q-179 0 -290 -156.5t-111 -412.5q0 -119 22 -221t68 -193zM1194 1542l100 -57l-116 -201q150 -119 221 -265.5t71 -334.5
q0 -162 -57 -301t-166 -240q-93 -87 -215.5 -131.5t-267.5 -44.5q-85 0 -162 18t-149 54l-121 -209l-94 68l116 200q-132 103 -201 253t-69 333q0 327 190 524t506 197q77 0 151 -15.5t146 -46.5zM750 2034h253l-315 -390h-137z" />
    <glyph glyph-name="oslashacute" unicode="&#x1ff;" horiz-adv-x="1182" 
d="M791 780l-347 -620q28 -34 65.5 -51t84.5 -17q120 0 186 103t66 290q0 96 -13.5 167t-41.5 128zM727 868q-31 24 -63 34.5t-70 10.5q-113 0 -179.5 -106.5t-66.5 -292.5q0 -66 9.5 -129t27.5 -123zM897 1169l86 -49l-96 -172q115 -71 174 -182.5t59 -259.5
q0 -235 -139.5 -378.5t-366.5 -143.5q-75 0 -134 10t-111 31l-111 -195l-84 55l107 187q-103 74 -154 181.5t-51 246.5q0 239 142.5 379.5t385.5 140.5q49 0 97 -7.5t96 -23.5zM572 1661h253l-315 -390h-137z" />
    <glyph glyph-name="Adblgrave" unicode="&#x200;" horiz-adv-x="1333" 
d="M608 1108l-178 -506h361zM563 1389h215l471 -1268l121 -21v-100h-553v100l129 13l15 26l-123 348h-447l-123 -346l21 -26l129 -15v-100h-441v100l123 19zM298 1818h240l188 -327h-132zM620 1819h240l188 -327h-132z" />
    <glyph glyph-name="adblgrave" unicode="&#x201;" horiz-adv-x="1114" 
d="M702 201v334q-202 -45 -276 -98t-74 -144q0 -71 41 -112.5t111 -41.5q39 0 88.5 15.5t109.5 46.5zM702 117q-104 -71 -189 -103t-163 -32q-118 0 -193 74.5t-75 191.5q0 144 110 222t513 169v61q0 111 -47 162t-148 51q-22 0 -46 -3t-52 -9v-192h-189q-49 0 -71.5 18
t-22.5 57q0 96 129 167t317 71q211 0 297 -81t86 -282v-530l27 -29l109 -10v-90h-365zM213 1452h240l188 -327h-132zM535 1453h240l188 -327h-132z" />
    <glyph glyph-name="Ainvertedbreve" unicode="&#x202;" horiz-adv-x="1333" 
d="M608 1108l-178 -506h361zM563 1389h215l471 -1268l121 -21v-100h-553v100l129 13l15 26l-123 348h-447l-123 -346l21 -26l129 -15v-100h-441v100l123 19zM361 1803l104 -3v-12q0 -84 46 -117.5t163 -33.5q115 0 161 33.5t46 117.5v12l104 3v-23q0 -156 -71.5 -222.5
t-239.5 -66.5q-169 0 -241 65.5t-72 217.5v29z" />
    <glyph glyph-name="ainvertedbreve" unicode="&#x203;" horiz-adv-x="1114" 
d="M702 201v334q-202 -45 -276 -98t-74 -144q0 -71 41 -112.5t111 -41.5q39 0 88.5 15.5t109.5 46.5zM702 117q-104 -71 -189 -103t-163 -32q-118 0 -193 74.5t-75 191.5q0 144 110 222t513 169v61q0 111 -47 162t-148 51q-22 0 -46 -3t-52 -9v-192h-189q-49 0 -71.5 18
t-22.5 57q0 96 129 167t317 71q211 0 297 -81t86 -282v-530l27 -29l109 -10v-90h-365zM276 1437l104 -3v-12q0 -84 46 -117.5t163 -33.5q115 0 161 33.5t46 117.5v12l104 3v-23q0 -156 -71.5 -222.5t-239.5 -66.5q-169 0 -241 65.5t-72 217.5v29z" />
    <glyph glyph-name="Edblgrave" unicode="&#x204;" horiz-adv-x="1221" 
d="M59 0v100l125 11l33 32v1092l-33 29l-125 10v100h1033v-321h-142l-35 180l-22 27h-410v-488h267l28 29l21 147h121v-475h-121l-21 148l-28 28h-267v-532h478l24 33l33 217h141v-367h-1100zM234 1803h240l188 -327h-132zM556 1804h240l188 -327h-132z" />
    <glyph glyph-name="edblgrave" unicode="&#x205;" horiz-adv-x="1073" 
d="M739 631v22q0 125 -46 191.5t-132 66.5q-94 0 -151 -74.5t-62 -205.5h391zM1008 254v-152q-105 -60 -212 -90t-214 -30q-229 0 -367.5 141t-138.5 373q0 233 141.5 380.5t364.5 147.5q202 0 314 -121.5t112 -341.5v-39h-670v-6q0 -175 88 -275t242 -100q81 0 165 28
t175 85zM167 1454h240l188 -327h-132zM489 1455h240l188 -327h-132z" />
    <glyph glyph-name="Einvertedbreve" unicode="&#x206;" horiz-adv-x="1221" 
d="M59 0v100l125 11l33 32v1092l-33 29l-125 10v100h1033v-321h-142l-35 180l-22 27h-410v-488h267l28 29l21 147h121v-475h-121l-21 148l-28 28h-267v-532h478l24 33l33 217h141v-367h-1100zM297 1788l104 -3v-12q0 -84 46 -117.5t163 -33.5q115 0 161 33.5t46 117.5v12
l104 3v-23q0 -156 -71.5 -222.5t-239.5 -66.5q-169 0 -241 65.5t-72 217.5v29z" />
    <glyph glyph-name="einvertedbreve" unicode="&#x207;" horiz-adv-x="1073" 
d="M739 631v22q0 125 -46 191.5t-132 66.5q-94 0 -151 -74.5t-62 -205.5h391zM1008 254v-152q-105 -60 -212 -90t-214 -30q-229 0 -367.5 141t-138.5 373q0 233 141.5 380.5t364.5 147.5q202 0 314 -121.5t112 -341.5v-39h-670v-6q0 -175 88 -275t242 -100q81 0 165 28
t175 85zM230 1439l104 -3v-12q0 -84 46 -117.5t163 -33.5q115 0 161 33.5t46 117.5v12l104 3v-23q0 -156 -71.5 -222.5t-239.5 -66.5q-169 0 -241 65.5t-72 217.5v29z" />
    <glyph glyph-name="Idblgrave" unicode="&#x208;" horiz-adv-x="725" 
d="M61 0v100l136 11l34 32v1092l-34 29l-136 10v100h613v-100l-137 -10l-33 -29v-1092l33 -32l137 -11v-100h-613zM-8 1803h240l188 -327h-132zM314 1804h240l188 -327h-132z" />
    <glyph glyph-name="idblgrave" unicode="&#x209;" horiz-adv-x="625" 
d="M354 1016h99v-885l30 -31l115 -8v-92h-537v92l111 8l29 31v707h-135v82zM-46 1446h240l188 -327h-132zM276 1447h240l188 -327h-132z" />
    <glyph glyph-name="Iinvertedbreve" unicode="&#x20a;" horiz-adv-x="725" 
d="M61 0v100l136 11l34 32v1092l-34 29l-136 10v100h613v-100l-137 -10l-33 -29v-1092l33 -32l137 -11v-100h-613zM55 1788l104 -3v-12q0 -84 46 -117.5t163 -33.5q115 0 161 33.5t46 117.5v12l104 3v-23q0 -156 -71.5 -222.5t-239.5 -66.5q-169 0 -241 65.5t-72 217.5v29z
" />
    <glyph glyph-name="iinvertedbreve" unicode="&#x20b;" horiz-adv-x="625" 
d="M354 1016h99v-885l30 -31l115 -8v-92h-537v92l111 8l29 31v707h-135v82zM17 1431l104 -3v-12q0 -84 46 -117.5t163 -33.5q115 0 161 33.5t46 117.5v12l104 3v-23q0 -156 -71.5 -222.5t-239.5 -66.5q-169 0 -241 65.5t-72 217.5v29z" />
    <glyph glyph-name="Odblgrave" unicode="&#x20c;" horiz-adv-x="1540" 
d="M778 1274q-176 0 -282.5 -158.5t-106.5 -425.5q0 -271 106.5 -434.5t278.5 -163.5q174 0 280.5 159.5t106.5 424.5q0 274 -104.5 436t-278.5 162zM84 694q0 168 53 302t158 231q97 89 216.5 133.5t262.5 44.5q132 0 244.5 -40t206.5 -120q118 -102 180.5 -246t62.5 -317
q0 -163 -55.5 -299t-163.5 -236q-93 -87 -212 -133.5t-249 -46.5q-317 0 -510.5 200t-193.5 527zM401 1834h240l188 -327h-132zM723 1835h240l188 -327h-132z" />
    <glyph glyph-name="odblgrave" unicode="&#x20d;" horiz-adv-x="1182" 
d="M598 913q-112 0 -175 -107t-63 -300q0 -196 62.5 -305t173.5 -109q116 0 179 106t63 302q0 195 -63.5 304t-176.5 109zM606 1022q236 0 375 -142.5t139 -385.5q0 -230 -145 -370t-385 -140q-231 0 -372.5 141.5t-141.5 372.5q0 237 145 380.5t385 143.5zM223 1452h240
l188 -327h-132zM545 1453h240l188 -327h-132z" />
    <glyph glyph-name="Oinvertedbreve" unicode="&#x20e;" horiz-adv-x="1540" 
d="M778 1274q-176 0 -282.5 -158.5t-106.5 -425.5q0 -271 106.5 -434.5t278.5 -163.5q174 0 280.5 159.5t106.5 424.5q0 274 -104.5 436t-278.5 162zM84 694q0 168 53 302t158 231q97 89 216.5 133.5t262.5 44.5q132 0 244.5 -40t206.5 -120q118 -102 180.5 -246t62.5 -317
q0 -163 -55.5 -299t-163.5 -236q-93 -87 -212 -133.5t-249 -46.5q-317 0 -510.5 200t-193.5 527zM464 1819l104 -3v-12q0 -84 46 -117.5t163 -33.5q115 0 161 33.5t46 117.5v12l104 3v-23q0 -156 -71.5 -222.5t-239.5 -66.5q-169 0 -241 65.5t-72 217.5v29z" />
    <glyph glyph-name="oinvertedbreve" unicode="&#x20f;" horiz-adv-x="1182" 
d="M598 913q-112 0 -175 -107t-63 -300q0 -196 62.5 -305t173.5 -109q116 0 179 106t63 302q0 195 -63.5 304t-176.5 109zM606 1022q236 0 375 -142.5t139 -385.5q0 -230 -145 -370t-385 -140q-231 0 -372.5 141.5t-141.5 372.5q0 237 145 380.5t385 143.5zM286 1437l104 -3
v-12q0 -84 46 -117.5t163 -33.5q115 0 161 33.5t46 117.5v12l104 3v-23q0 -156 -71.5 -222.5t-239.5 -66.5q-169 0 -241 65.5t-72 217.5v29z" />
    <glyph glyph-name="Rdblgrave" unicode="&#x210;" horiz-adv-x="1374" 
d="M483 1257l1 -534q13 -1 28.5 -1.5t44.5 -0.5q166 0 245 67t79 207q0 128 -78 195t-225 67h-95zM63 1374h623q236 0 358.5 -89t122.5 -261q0 -141 -89 -229.5t-263 -120.5q76 -18 128.5 -48.5t86.5 -78.5q43 -62 86 -204q21 -67 33 -99q31 -81 82.5 -112.5t159.5 -31.5h26
v-98q-57 -8 -108.5 -12t-96.5 -4q-63 0 -118.5 16.5t-94.5 46.5q-93 72 -146 237q-7 23 -11 36q-58 175 -125 228.5t-199 53.5h-35v-461l33 -32l125 -11v-100h-578v100l121 11l33 32v1092l-33 29l-121 10v100zM365 1803h240l188 -327h-132zM687 1804h240l188 -327h-132z" />
    <glyph glyph-name="rdblgrave" unicode="&#x211;" horiz-adv-x="862" 
d="M59 0v92l109 8l29 31v707h-148v82l301 96h99l-9 -209q53 56 113 108.5t126 99.5q17 3 27.5 4t18.5 1q33 0 66.5 -8.5t68.5 -26.5l-26 -283h-107q-23 38 -55.5 56t-77.5 18q-26 0 -62.5 -14.5t-82.5 -42.5v-588l30 -31l146 -8v-92h-566zM79 1450h240l188 -327h-132z
M401 1451h240l188 -327h-132z" />
    <glyph glyph-name="Rinvertedbreve" unicode="&#x212;" horiz-adv-x="1374" 
d="M483 1257l1 -534q13 -1 28.5 -1.5t44.5 -0.5q166 0 245 67t79 207q0 128 -78 195t-225 67h-95zM63 1374h623q236 0 358.5 -89t122.5 -261q0 -141 -89 -229.5t-263 -120.5q76 -18 128.5 -48.5t86.5 -78.5q43 -62 86 -204q21 -67 33 -99q31 -81 82.5 -112.5t159.5 -31.5h26
v-98q-57 -8 -108.5 -12t-96.5 -4q-63 0 -118.5 16.5t-94.5 46.5q-93 72 -146 237q-7 23 -11 36q-58 175 -125 228.5t-199 53.5h-35v-461l33 -32l125 -11v-100h-578v100l121 11l33 32v1092l-33 29l-121 10v100zM428 1788l104 -3v-12q0 -84 46 -117.5t163 -33.5
q115 0 161 33.5t46 117.5v12l104 3v-23q0 -156 -71.5 -222.5t-239.5 -66.5q-169 0 -241 65.5t-72 217.5v29z" />
    <glyph glyph-name="rinvertedbreve" unicode="&#x213;" horiz-adv-x="862" 
d="M59 0v92l109 8l29 31v707h-148v82l301 96h99l-9 -209q53 56 113 108.5t126 99.5q17 3 27.5 4t18.5 1q33 0 66.5 -8.5t68.5 -26.5l-26 -283h-107q-23 38 -55.5 56t-77.5 18q-26 0 -62.5 -14.5t-82.5 -42.5v-588l30 -31l146 -8v-92h-566zM142 1435l104 -3v-12
q0 -84 46 -117.5t163 -33.5q115 0 161 33.5t46 117.5v12l104 3v-23q0 -156 -71.5 -222.5t-239.5 -66.5q-169 0 -241 65.5t-72 217.5v29z" />
    <glyph glyph-name="Udblgrave" unicode="&#x214;" horiz-adv-x="1444" 
d="M41 1374h588v-100l-127 -10l-29 -29v-717q0 -205 78 -293t256 -88q164 0 237.5 93.5t73.5 306.5v690l-31 35l-131 12v100h465v-100l-125 -12l-28 -35v-711q0 -285 -128 -413t-413 -128q-149 0 -261.5 43.5t-176.5 124.5q-49 64 -69.5 146.5t-20.5 236.5v709l-29 29
l-129 10v100zM356 1803h240l188 -327h-132zM678 1804h240l188 -327h-132z" />
    <glyph glyph-name="udblgrave" unicode="&#x215;" horiz-adv-x="1229" 
d="M336 1022h98v-635q0 -122 45.5 -175.5t149.5 -53.5q35 0 77.5 7.5t98.5 24.5v654h-133v82l291 96h94v-891l28 -31l107 -8v-92h-387v113q-107 -70 -188.5 -100.5t-155.5 -30.5q-142 0 -211.5 86t-69.5 264v512h-133v82zM244 1452h240l188 -327h-132zM566 1453h240
l188 -327h-132z" />
    <glyph glyph-name="Uinvertedbreve" unicode="&#x216;" horiz-adv-x="1444" 
d="M41 1374h588v-100l-127 -10l-29 -29v-717q0 -205 78 -293t256 -88q164 0 237.5 93.5t73.5 306.5v690l-31 35l-131 12v100h465v-100l-125 -12l-28 -35v-711q0 -285 -128 -413t-413 -128q-149 0 -261.5 43.5t-176.5 124.5q-49 64 -69.5 146.5t-20.5 236.5v709l-29 29
l-129 10v100zM419 1788l104 -3v-12q0 -84 46 -117.5t163 -33.5q115 0 161 33.5t46 117.5v12l104 3v-23q0 -156 -71.5 -222.5t-239.5 -66.5q-169 0 -241 65.5t-72 217.5v29z" />
    <glyph glyph-name="uinvertedbreve" unicode="&#x217;" horiz-adv-x="1229" 
d="M336 1022h98v-635q0 -122 45.5 -175.5t149.5 -53.5q35 0 77.5 7.5t98.5 24.5v654h-133v82l291 96h94v-891l28 -31l107 -8v-92h-387v113q-107 -70 -188.5 -100.5t-155.5 -30.5q-142 0 -211.5 86t-69.5 264v512h-133v82zM307 1437l104 -3v-12q0 -84 46 -117.5t163 -33.5
q115 0 161 33.5t46 117.5v12l104 3v-23q0 -156 -71.5 -222.5t-239.5 -66.5q-169 0 -241 65.5t-72 217.5v29z" />
    <glyph glyph-name="Scommaaccent" unicode="&#x218;" horiz-adv-x="1163" 
d="M121 45v371h155l33 -246l27 -31q45 -14 89.5 -21t90.5 -7q120 0 192 53t72 141q0 78 -50.5 138.5t-168.5 119.5q-19 10 -58 28q-140 65 -210 124q-69 58 -106 131t-37 149q0 176 134.5 290t348.5 114q93 0 189 -17.5t196 -52.5v-332h-148l-34 213l-29 29q-29 15 -66 22
t-84 7q-109 0 -175 -54t-66 -141q0 -64 37.5 -115.5t128.5 -105.5q22 -14 122.5 -58.5t169.5 -88.5q89 -57 137 -137t48 -171q0 -188 -149 -304t-394 -116q-100 0 -201 17.5t-194 50.5zM434 -525v61q89 13 136 55.5t47 110.5v13h-102q-18 16 -26.5 33t-8.5 38
q0 41 31.5 65.5t81.5 24.5q70 0 111 -37.5t41 -102.5q0 -102 -86 -175t-225 -86z" />
    <glyph glyph-name="scommaaccent" unicode="&#x219;" horiz-adv-x="915" 
d="M809 973v-273h-123l-20 154l-25 23q-34 16 -68 24t-67 8q-74 0 -115 -32.5t-41 -90.5q0 -48 32 -83t159 -97l4 -2q295 -142 295 -289q0 -157 -111.5 -247.5t-306.5 -90.5q-76 0 -160.5 13t-177.5 39v303h123l24 -176l21 -23q40 -21 83 -32t89 -11q81 0 127.5 39.5
t46.5 108.5q0 87 -177 167q-60 27 -93 44q-127 63 -178.5 124.5t-51.5 145.5q0 137 109.5 221t292.5 84q78 0 155 -12.5t154 -38.5zM306 -525v61q89 13 136 55.5t47 110.5v13h-102q-18 16 -26.5 33t-8.5 38q0 41 31.5 65.5t81.5 24.5q70 0 111 -37.5t41 -102.5
q0 -102 -86 -175t-225 -86z" />
    <glyph glyph-name="Tcommaaccent" unicode="&#x21a;" horiz-adv-x="1235" 
d="M33 1374h1181v-362h-141l-35 219l-30 26h-246v-1114l35 -32l133 -11v-100h-613v100l134 11l34 32v1114h-245l-31 -26l-35 -219h-141v362zM467 -502v61q89 13 136 55.5t47 110.5v13h-102q-18 16 -26.5 33t-8.5 38q0 41 31.5 65.5t81.5 24.5q70 0 111 -37.5t41 -102.5
q0 -102 -86 -175t-225 -86z" />
    <glyph glyph-name="tcommaaccent" unicode="&#x21b;" horiz-adv-x="733" 
d="M172 848h-133v78l151 86l107 213h129v-254h303v-123h-303v-510q0 -115 37 -157t133 -42q38 0 70.5 3.5t62.5 10.5v-98q-88 -32 -167.5 -48.5t-145.5 -16.5q-54 0 -95.5 11t-74.5 34q-41 27 -57.5 67.5t-16.5 149.5v596zM228 -512v61q89 13 136 55.5t47 110.5v13h-102
q-18 16 -26.5 33t-8.5 38q0 41 31.5 65.5t81.5 24.5q70 0 111 -37.5t41 -102.5q0 -102 -86 -175t-225 -86z" />
    <glyph glyph-name="Hcaron" unicode="&#x21e;" horiz-adv-x="1556" 
d="M61 1374h580v-100l-123 -10l-33 -33v-449h592v449l-30 33l-123 10v100h577v-100l-119 -10l-32 -33v-1088l32 -32l119 -11v-100h-577v100l123 11l30 32v516h-592v-516l33 -32l123 -11v-100h-580v100l119 11l33 32v1088l-33 33l-119 10v100zM466 1866h159l156 -256l158 256
h157l-225 -390h-180z" />
    <glyph glyph-name="hcaron" unicode="&#x21f;" horiz-adv-x="1223" 
d="M336 1513h98v-618q123 67 205.5 96t144.5 29q142 0 211.5 -84.5t69.5 -255.5v-549l27 -31l108 -8v-92h-502v92l88 8l29 31v490q0 114 -44.5 167.5t-139.5 53.5q-39 0 -87.5 -9t-109.5 -26v-676l31 -31l90 -8v-92h-506v92l105 8l28 31v1206h-149v80zM301 2005h159
l156 -256l158 256h157l-225 -390h-180z" />
    <glyph glyph-name="Adotaccent" unicode="&#x226;" horiz-adv-x="1333" 
d="M608 1108l-178 -506h361zM563 1389h215l471 -1268l121 -21v-100h-553v100l129 13l15 26l-123 348h-447l-123 -346l21 -26l129 -15v-100h-441v100l123 19zM673 1765q55 0 94 -41t39 -98q0 -56 -39 -95.5t-94 -39.5q-57 0 -95 39t-38 96q0 58 38.5 98.5t94.5 40.5z" />
    <glyph glyph-name="adotaccent" unicode="&#x227;" horiz-adv-x="1114" 
d="M702 201v334q-202 -45 -276 -98t-74 -144q0 -71 41 -112.5t111 -41.5q39 0 88.5 15.5t109.5 46.5zM702 117q-104 -71 -189 -103t-163 -32q-118 0 -193 74.5t-75 191.5q0 144 110 222t513 169v61q0 111 -47 162t-148 51q-22 0 -46 -3t-52 -9v-192h-189q-49 0 -71.5 18
t-22.5 57q0 96 129 167t317 71q211 0 297 -81t86 -282v-530l27 -29l109 -10v-90h-365zM588 1399q55 0 94 -41t39 -98q0 -56 -39 -95.5t-94 -39.5q-57 0 -95 39t-38 96q0 58 38.5 98.5t94.5 40.5z" />
    <glyph glyph-name="Ecedilla" unicode="&#x228;" horiz-adv-x="1221" 
d="M59 0v100l125 11l33 32v1092l-33 29l-125 10v100h1033v-321h-142l-35 180l-22 27h-410v-488h267l28 29l21 147h121v-475h-121l-21 148l-28 28h-267v-532h478l24 33l33 217h141v-367h-1100zM518 0h98v-116q5 0 12.5 0.5t20.5 0.5q79 0 122.5 -41t43.5 -114q0 -91 -67 -146
t-179 -55q-39 0 -79 5.5t-87 16.5v97q45 -9 74.5 -13t50.5 -4q63 0 95 19.5t32 56.5q0 32 -24.5 50t-67.5 18q-12 0 -40 -4h-5v229z" />
    <glyph glyph-name="ecedilla" unicode="&#x229;" horiz-adv-x="1073" 
d="M739 631v22q0 125 -46 191.5t-132 66.5q-94 0 -151 -74.5t-62 -205.5h391zM1008 254v-152q-105 -60 -212 -90t-214 -30q-229 0 -367.5 141t-138.5 373q0 233 141.5 380.5t364.5 147.5q202 0 314 -121.5t112 -341.5v-39h-670v-6q0 -175 88 -275t242 -100q81 0 165 28
t175 85zM452 -17h98v-116q5 0 12.5 0.5t20.5 0.5q79 0 122.5 -41t43.5 -114q0 -91 -67 -146t-179 -55q-39 0 -79 5.5t-87 16.5v97q45 -9 74.5 -13t50.5 -4q63 0 95 19.5t32 56.5q0 32 -24.5 50t-67.5 18q-12 0 -40 -4h-5v229z" />
    <glyph glyph-name="Odieresismacron" unicode="&#x22a;" horiz-adv-x="1540" 
d="M778 1274q-176 0 -282.5 -158.5t-106.5 -425.5q0 -271 106.5 -434.5t278.5 -163.5q174 0 280.5 159.5t106.5 424.5q0 274 -104.5 436t-278.5 162zM84 694q0 168 53 302t158 231q97 89 216.5 133.5t262.5 44.5q132 0 244.5 -40t206.5 -120q118 -102 180.5 -246t62.5 -317
q0 -163 -55.5 -299t-163.5 -236q-93 -87 -212 -133.5t-249 -46.5q-317 0 -510.5 200t-193.5 527zM988 1775q53 0 91 -39.5t38 -95.5q0 -55 -38 -94t-91 -39q-55 0 -92 38.5t-37 94.5q0 57 37.5 96t91.5 39zM566 1775q53 0 91 -39.5t38 -95.5q0 -55 -37.5 -94t-91.5 -39
t-92.5 39t-38.5 94q0 56 38.5 95.5t92.5 39.5zM437 2022h678v-145h-678v145z" />
    <glyph glyph-name="odieresismacron" unicode="&#x22b;" horiz-adv-x="1182" 
d="M598 913q-112 0 -175 -107t-63 -300q0 -196 62.5 -305t173.5 -109q116 0 179 106t63 302q0 195 -63.5 304t-176.5 109zM606 1022q236 0 375 -142.5t139 -385.5q0 -230 -145 -370t-385 -140q-231 0 -372.5 141.5t-141.5 372.5q0 237 145 380.5t385 143.5zM810 1393
q53 0 91 -39.5t38 -95.5q0 -55 -38 -94t-91 -39q-55 0 -92 38.5t-37 94.5q0 57 37.5 96t91.5 39zM388 1393q53 0 91 -39.5t38 -95.5q0 -55 -37.5 -94t-91.5 -39t-92.5 39t-38.5 94q0 56 38.5 95.5t92.5 39.5zM259 1639h678v-145h-678v145z" />
    <glyph glyph-name="Otildemacron" unicode="&#x22c;" horiz-adv-x="1540" 
d="M778 1274q-176 0 -282.5 -158.5t-106.5 -425.5q0 -271 106.5 -434.5t278.5 -163.5q174 0 280.5 159.5t106.5 424.5q0 274 -104.5 436t-278.5 162zM84 694q0 168 53 302t158 231q97 89 216.5 133.5t262.5 44.5q132 0 244.5 -40t206.5 -120q118 -102 180.5 -246t62.5 -317
q0 -163 -55.5 -299t-163.5 -236q-93 -87 -212 -133.5t-249 -46.5q-317 0 -510.5 200t-193.5 527zM997 1817h111v-33q0 -115 -47.5 -179.5t-130.5 -64.5q-76 0 -176 48t-121 48q-37 0 -56.5 -28.5t-19.5 -81.5v-19h-113v33q0 117 46.5 180.5t131.5 63.5q67 0 166.5 -48
t128.5 -48q40 0 60 28t20 84v17zM437 2064h678v-145h-678v145z" />
    <glyph glyph-name="otildemacron" unicode="&#x22d;" horiz-adv-x="1182" 
d="M598 913q-112 0 -175 -107t-63 -300q0 -196 62.5 -305t173.5 -109q116 0 179 106t63 302q0 195 -63.5 304t-176.5 109zM606 1022q236 0 375 -142.5t139 -385.5q0 -230 -145 -370t-385 -140q-231 0 -372.5 141.5t-141.5 372.5q0 237 145 380.5t385 143.5zM819 1435h111
v-33q0 -115 -47.5 -179.5t-130.5 -64.5q-76 0 -176 48t-121 48q-37 0 -56.5 -28.5t-19.5 -81.5v-19h-113v33q0 117 46.5 180.5t131.5 63.5q67 0 166.5 -48t128.5 -48q40 0 60 28t20 84v17zM259 1681h678v-145h-678v145z" />
    <glyph glyph-name="Odotaccent" unicode="&#x22e;" horiz-adv-x="1540" 
d="M778 1274q-176 0 -282.5 -158.5t-106.5 -425.5q0 -271 106.5 -434.5t278.5 -163.5q174 0 280.5 159.5t106.5 424.5q0 274 -104.5 436t-278.5 162zM84 694q0 168 53 302t158 231q97 89 216.5 133.5t262.5 44.5q132 0 244.5 -40t206.5 -120q118 -102 180.5 -246t62.5 -317
q0 -163 -55.5 -299t-163.5 -236q-93 -87 -212 -133.5t-249 -46.5q-317 0 -510.5 200t-193.5 527zM776 1781q55 0 94 -41t39 -98q0 -56 -39 -95.5t-94 -39.5q-57 0 -95 39t-38 96q0 58 38.5 98.5t94.5 40.5z" />
    <glyph glyph-name="odotaccent" unicode="&#x22f;" horiz-adv-x="1182" 
d="M598 913q-112 0 -175 -107t-63 -300q0 -196 62.5 -305t173.5 -109q116 0 179 106t63 302q0 195 -63.5 304t-176.5 109zM606 1022q236 0 375 -142.5t139 -385.5q0 -230 -145 -370t-385 -140q-231 0 -372.5 141.5t-141.5 372.5q0 237 145 380.5t385 143.5zM598 1399
q55 0 94 -41t39 -98q0 -56 -39 -95.5t-94 -39.5q-57 0 -95 39t-38 96q0 58 38.5 98.5t94.5 40.5z" />
    <glyph glyph-name="Odotaccentmacron" unicode="&#x230;" horiz-adv-x="1540" 
d="M778 1274q-176 0 -282.5 -158.5t-106.5 -425.5q0 -271 106.5 -434.5t278.5 -163.5q174 0 280.5 159.5t106.5 424.5q0 274 -104.5 436t-278.5 162zM84 694q0 168 53 302t158 231q97 89 216.5 133.5t262.5 44.5q132 0 244.5 -40t206.5 -120q118 -102 180.5 -246t62.5 -317
q0 -163 -55.5 -299t-163.5 -236q-93 -87 -212 -133.5t-249 -46.5q-317 0 -510.5 200t-193.5 527zM776 1781q55 0 94 -41t39 -98q0 -56 -39 -95.5t-94 -39.5q-57 0 -95 39t-38 96q0 58 38.5 98.5t94.5 40.5zM437 2028h678v-145h-678v145z" />
    <glyph glyph-name="odotaccentmacron" unicode="&#x231;" horiz-adv-x="1182" 
d="M598 913q-112 0 -175 -107t-63 -300q0 -196 62.5 -305t173.5 -109q116 0 179 106t63 302q0 195 -63.5 304t-176.5 109zM606 1022q236 0 375 -142.5t139 -385.5q0 -230 -145 -370t-385 -140q-231 0 -372.5 141.5t-141.5 372.5q0 237 145 380.5t385 143.5zM598 1399
q55 0 94 -41t39 -98q0 -56 -39 -95.5t-94 -39.5q-57 0 -95 39t-38 96q0 58 38.5 98.5t94.5 40.5zM259 1645h678v-145h-678v145z" />
    <glyph glyph-name="Ymacron" unicode="&#x232;" horiz-adv-x="1249" 
d="M-23 1374h560v-100l-115 -10l-19 -25l281 -520l293 502l-16 32l-123 21v100h446v-100l-121 -23l-389 -661v-449l33 -28l139 -11v-102h-614v102l137 11l35 28v400l-395 712l-132 21v100zM291 1621h678v-145h-678v145z" />
    <glyph glyph-name="ymacron" unicode="&#x233;" horiz-adv-x="1055" 
d="M-8 995h520v-88l-104 -12l-21 -29l221 -579l223 577l-18 31l-108 12v88h393v-88l-111 -18l-395 -961q-73 -176 -175 -276.5t-206 -100.5q-72 0 -124 45.5t-52 106.5q0 44 27.5 81.5t78.5 63.5l178 -122q42 33 82.5 96.5t77.5 152.5l-364 914l-123 18v88zM206 1243h678
v-145h-678v145z" />
    <glyph glyph-name="u0250" unicode="&#x250;" horiz-adv-x="1114" 
d="M412 803v-334q201 45 276 98q74 53 74 144q0 72 -41 113t-111 41q-77 0 -198 -62zM412 887q104 71 189 103t163 32q118 0 193 -75q75 -74 75 -191q0 -144 -110 -222q-108 -77 -513 -169v-61q0 -112 46.5 -162.5t148.5 -50.5q42 0 98 12v192h189q49 0 71.5 -18t22.5 -57
q0 -97 -129 -167q-130 -71 -317 -71q-212 0 -297 81q-86 81 -86 282v530l-27 29l-109 10v90h365z" />
    <glyph glyph-name="u0251" unicode="&#x251;" horiz-adv-x="1208" 
d="M784 899q-33 6 -56.5 8t-45.5 2q-161 0 -245.5 -102t-84.5 -295q0 -171 75.5 -264.5t213.5 -93.5q67 0 143 14v731zM784 88q-88 -49 -163 -72.5t-142 -23.5q-176 0 -290 133q-113 134 -113 344q0 263 169 408t478 145q63 0 138.5 -6.5t180.5 -20.5q-6 -108 -6 -118v-746
l28 -31l107 -8v-92h-387v88z" />
    <glyph glyph-name="u0252" unicode="&#x252;" horiz-adv-x="1208" 
d="M424 96q33 -6 56.5 -8t45.5 -2q161 0 245.5 102t84.5 295q0 171 -75.5 264.5t-213.5 93.5q-67 0 -143 -14v-731zM424 907q88 49 163 72.5t142 23.5q176 0 290 -133q113 -134 113 -344q0 -263 -169 -408t-478 -145q-63 0 -138.5 6.5t-180.5 20.5q6 108 6 118v746l-28 31
l-107 8v92h387v-88z" />
    <glyph glyph-name="u0253" unicode="&#x253;" horiz-adv-x="1182" 
d="M420 111q11 -1 25 -1.5t40 -0.5q186 0 273.5 95.5t87.5 297.5q0 174 -76.5 266t-220.5 92q-52 0 -129 -16v-733zM420 928q85 48 157.5 70t139.5 22q90 0 164 -35t127.5 -97t82.5 -147t29 -186q0 -179 -82 -307.5t-241 -200.5q-57 -24 -142 -35.5t-206 -11.5
q-71 0 -141.5 1t-141.5 3v983q0 150 52.5 260.5t158.5 188.5q57 42 119.5 64t128.5 22q88 0 140.5 -40.5t52.5 -109.5q0 -42 -30.5 -74.5t-88.5 -52.5l-199 176q-40 -42 -60 -120.5t-20 -206.5v-166z" />
    <glyph glyph-name="u0254" unicode="&#x254;" horiz-adv-x="975" 
d="M25 910q102 55 196 81.5t191 26.5q220 0 355 -139q136 -139 136 -364q0 -233 -149 -382t-379 -149q-150 0 -245 62q-93 63 -93 161q0 30 11 56t30.5 44.5t46.5 29t59 10.5q69 0 121 -39v-217q32 -7 52 -7q114 0 191 107q77 109 77 274q0 183 -85 287q-86 105 -231 105
q-66 0 -137.5 -23.5t-146.5 -69.5v146z" />
    <glyph glyph-name="u0255" unicode="&#x255;" horiz-adv-x="1010" 
d="M350 537q0 -113 33 -197q86 44 176 68.5t191 24.5q53 0 96.5 -14.5t74 -38.5t47.5 -55.5t17 -65.5q0 -63 -32 -114t-88.5 -86.5t-134 -55t-167.5 -19.5q-214 0 -346 129q-45 -35 -83.5 -66.5t-56.5 -47.5l-66 75q18 16 57 48.5t85 67.5q-81 123 -81 297q0 234 148 382
q149 149 380 149q151 0 244 -63q94 -61 94 -160q0 -30 -11 -56t-30.5 -44.5t-46.5 -29t-59 -10.5q-69 0 -121 39v217q-32 7 -52 7q-115 0 -191 -108q-77 -107 -77 -273zM666 145q46 0 84 8.5t65.5 23t42.5 35t15 44.5q0 13 -7.5 26.5t-22.5 24.5t-38.5 18.5t-54.5 7.5
q-86 0 -164.5 -21t-153.5 -59q89 -108 234 -108z" />
    <glyph glyph-name="u0256" unicode="&#x256;" horiz-adv-x="1225" 
d="M797 195v684q-46 15 -83 22.5t-69 7.5q-134 0 -215 -106q-80 -107 -80 -285q0 -171 73 -266q73 -96 202 -96q34 0 76 9.5t96 29.5zM1047 -10q0 -128 20 -206.5t60 -120.5l199 176q58 -20 88.5 -52.5t30.5 -74.5q0 -69 -52.5 -109.5t-140.5 -40.5q-47 0 -99 14t-102.5 43
t-96.5 72.5t-81 103t-55.5 135t-20.5 167.5v18q-94 -69 -171.5 -101t-152.5 -32q-173 0 -286 137q-111 138 -111 356q0 245 146 397q147 152 382 152q45 0 92 -5t101 -15v331h-150v82l305 96h95v-1523z" />
    <glyph glyph-name="u0257" unicode="&#x257;" horiz-adv-x="1225" 
d="M797 195v684q-46 15 -83 22.5t-69 7.5q-134 0 -215 -106q-80 -107 -80 -285q0 -171 73 -266q73 -96 202 -96q34 0 76 9.5t96 29.5zM1004 1436q57 42 119.5 64t128.5 22q88 0 140.5 -40.5t52.5 -109.5q0 -42 -30.5 -74.5t-88.5 -52.5l-199 176q-40 -42 -60 -120.5
t-20 -206.5v-963l28 -33l105 -8v-90h-383v115q-94 -69 -171.5 -101t-152.5 -32q-173 0 -286 137q-111 138 -111 356q0 245 146 397q147 152 382 152q45 0 92 -5t101 -15q2 143 53 249.5t154 182.5z" />
    <glyph glyph-name="u0258" unicode="&#x258;" horiz-adv-x="1073" 
d="M725 631q-5 131 -62 205q-57 75 -151 75q-87 0 -132.5 -66t-45.5 -192v-22h391zM65 254q180 -113 340 -113q154 0 242 100t88 275v6h-670v39q0 220 112 341q113 122 314 122q223 0 364 -148q142 -146 142 -380q0 -233 -139 -373q-138 -141 -367 -141q-216 0 -426 120v152
z" />
    <glyph glyph-name="u0259" unicode="&#x259;" horiz-adv-x="1073" 
d="M334 375v-22q0 -126 45.5 -192t132.5 -66q94 0 151 74q58 76 62 206h-391zM65 752v152q210 120 426 120q229 0 367 -141q139 -140 139 -373t-142 -381q-141 -147 -364 -147q-202 0 -314 121t-112 342v39h670v6q0 175 -88 275t-242 100q-160 0 -340 -113z" />
    <glyph glyph-name="u025A" unicode="&#x25a;" horiz-adv-x="1431" 
d="M697 687q-19 42 -50 78q-88 100 -242 100q-160 0 -340 -113v152q210 120 426 120q229 0 367 -141q30 -32 57 -71l188 109q34 -92 62 -145t52.5 -79.5t46.5 -33.5t45 -7q20 0 49.5 21.5t70.5 75.5v-120q-25 -36 -48.5 -58t-44.5 -35t-38.5 -17.5t-29.5 -4.5q-38 0 -69 9
t-58 35.5t-51 73.5t-49 123l-77 -44q33 -92 33 -205q0 -233 -142 -381q-141 -147 -364 -147q-202 0 -314 121q-80 86 -103 225zM735 490q0 24 -1.5 46t-5.5 43l-394 -226q0 -126 45.5 -192t132.5 -66q114 0 168.5 100t54.5 295z" />
    <glyph glyph-name="u025B" unicode="&#x25b;" horiz-adv-x="959" 
d="M662 458q-12 2 -28.5 4t-34.5 4t-36 3.5t-33 1.5q-32 0 -65 -8.5t-60.5 -29t-45 -53.5t-17.5 -81q0 -46 19.5 -78t51.5 -52.5t74.5 -30t89.5 -9.5q27 0 63 3.5t78 12.5t89 25.5t97 42.5v-147q-60 -27 -114 -43.5t-102 -26t-89.5 -13t-75.5 -3.5q-52 0 -106.5 4.5
t-106 16.5t-97.5 32.5t-80 52.5t-54 76.5t-20 104.5t21.5 107t58.5 80.5t86.5 53.5t105.5 26v4q-51 13 -92.5 33.5t-71.5 48t-46.5 63.5t-16.5 80q0 55 19.5 95t52.5 69t77 47.5t92 29t97.5 14.5t94.5 4q94 0 176.5 -15t163.5 -34v-273h-123l-20 154q-59 39 -105.5 48
t-78.5 9q-39 0 -73 -10t-59.5 -30.5t-40.5 -51.5t-15 -72q0 -46 17 -78.5t44 -53.5t61 -30.5t69 -9.5h26t29 1t29 2t25 4v-124z" />
    <glyph glyph-name="u025C" unicode="&#x25c;" horiz-adv-x="959" 
d="M297 582q11 -3 25 -4t29 -2t29 -1h26q35 0 69 9.5t61 30.5t44 53.5t17 78.5q0 41 -15 72t-40.5 51.5t-59.5 30.5t-73 10q-32 0 -78.5 -9t-105.5 -48l-20 -154h-123v273q81 19 163.5 34t176.5 15q45 0 94.5 -4t97.5 -14.5t92 -29t77 -47.5t52.5 -69t19.5 -95
q0 -44 -16.5 -80t-46.5 -63.5t-71.5 -48t-92.5 -33.5v-4q56 -6 105.5 -26t86.5 -53.5t58.5 -80.5t21.5 -107t-20 -104.5t-54 -76.5t-80 -52.5t-97.5 -32.5t-106 -16.5t-106.5 -4.5q-34 0 -75.5 3.5t-89.5 13t-102 26t-114 43.5v147q50 -26 97 -42.5t89 -25.5t78 -12.5
t63 -3.5q46 0 89 9.5t75 30t51.5 52.5t19.5 78q0 48 -17.5 81t-45 53.5t-60.5 29t-65 8.5q-15 0 -33 -1.5t-36 -3.5t-34.5 -4t-28.5 -4v124z" />
    <glyph glyph-name="u025D" unicode="&#x25d;" horiz-adv-x="1316" 
d="M297 582q11 -3 25 -4t29 -2t29 -1h26q35 0 69 9.5t61 30.5t44 53.5t17 78.5q0 41 -15 72t-40.5 51.5t-59.5 30.5t-73 10q-32 0 -78.5 -9t-105.5 -48l-20 -154h-123v273q81 19 163.5 34t176.5 15q59 0 125 -7.5t125.5 -27.5t105.5 -56.5t65 -93.5l145 84q34 -92 62 -145
t52.5 -79.5t46.5 -33.5t45 -7q20 0 49.5 21.5t70.5 75.5v-120q-25 -36 -48.5 -58t-44.5 -35t-38.5 -17.5t-29.5 -4.5q-38 0 -69 9t-58 35.5t-51 73.5t-49 123l-77 -44q-16 -68 -74.5 -111t-146.5 -66v-4q56 -6 105.5 -26t86.5 -53.5t58.5 -80.5t21.5 -107t-20 -104.5
t-54 -76.5t-80 -52.5t-97.5 -32.5t-106 -16.5t-106.5 -4.5q-34 0 -75.5 3.5t-89.5 13t-102 26t-114 43.5v147q50 -26 97 -42.5t89 -25.5t78 -12.5t63 -3.5q46 0 89 9.5t75 30t51.5 52.5t19.5 78q0 48 -17.5 81t-45 53.5t-60.5 29t-65 8.5q-15 0 -33 -1.5t-36 -3.5t-34.5 -4
t-28.5 -4v124z" />
    <glyph glyph-name="u025E" unicode="&#x25e;" horiz-adv-x="1148" 
d="M590 111q41 0 80 12t69 36t48.5 59t18.5 81q0 48 -17.5 81t-45 53.5t-60.5 29t-65 8.5q-15 0 -33 -1.5t-36 -3.5t-34.5 -4t-28.5 -4v124q11 -3 25 -4t29 -2t29 -1h26q35 0 69 9.5t61 30.5t44 53.5t17 78.5q0 41 -15 72t-40.5 51.5t-59.5 30.5t-73 10q-56 0 -100 -27
t-75 -79t-47 -127.5t-16 -171.5q0 -197 59 -296t171 -99zM590 -20q-115 0 -209.5 38t-162 107t-105 164t-37.5 209q0 118 37.5 214.5t107.5 165.5t168.5 106.5t221.5 37.5q45 0 94.5 -4t97.5 -14.5t92 -29t77 -47.5t52.5 -69t19.5 -95q0 -44 -16.5 -80t-46.5 -63.5
t-71.5 -48t-92.5 -33.5v-4q56 -6 105.5 -26t86.5 -53.5t58.5 -80.5t21.5 -107q0 -79 -36.5 -133.5t-102.5 -88.5t-157.5 -49.5t-202.5 -15.5z" />
    <glyph glyph-name="u025F" unicode="&#x25f;" horiz-adv-x="733" 
d="M51 115h212v723h-145v82l309 96h86v-815v-19v-24.5t-0.5 -24t-0.5 -18.5h207v-115h-216q-10 -76 -33 -143t-68 -131q-27 -39 -65.5 -69.5t-83.5 -51.5t-93.5 -32t-96.5 -11q-42 0 -76.5 10.5t-59 30t-38 46.5t-13.5 60q0 48 33 84.5t86 46.5l201 -186q31 43 47.5 126
t18.5 220h-211v115z" />
    <glyph glyph-name="u0260" unicode="&#x260;" horiz-adv-x="1314" 
d="M784 899q-33 6 -56.5 8t-45.5 2q-161 0 -245.5 -102t-84.5 -295q0 -171 75.5 -264.5t213.5 -93.5q67 0 143 14v731zM723 1022q41 0 91 -3q22 68 61 127t91 102.5t116.5 68.5t138.5 25q88 0 140.5 -40.5t52.5 -109.5q0 -42 -30.5 -74.5t-88.5 -52.5l-199 176
q-35 -42 -47.5 -120.5t-12.5 -206.5v-834q0 -101 -29 -194.5t-93.5 -165.5t-166.5 -115t-247 -43q-97 0 -174 8.5t-130 29t-81.5 55t-28.5 87.5q0 42 30.5 74.5t88.5 52.5l189 -180q12 -4 27 -7t29.5 -4.5t27.5 -2t21 -0.5q79 0 133.5 28.5t88 73.5t48.5 101t15 112v98
q-88 -49 -163 -72.5t-142 -23.5q-176 0 -290 133q-113 134 -113 344q0 263 169 408t478 145z" />
    <glyph glyph-name="u0261" unicode="&#x261;" horiz-adv-x="1178" 
d="M784 899q-33 6 -56.5 8t-45.5 2q-161 0 -245.5 -102t-84.5 -295q0 -171 75.5 -264.5t213.5 -93.5q67 0 143 14v731zM1036 80q0 -101 -29 -194.5t-93.5 -165.5t-166.5 -115t-247 -43q-97 0 -174 8.5t-130 29t-81.5 55t-28.5 87.5q0 42 30.5 74.5t88.5 52.5l189 -180
q12 -4 27 -7t29.5 -4.5t27.5 -2t21 -0.5q79 0 133.5 28.5t88 73.5t48.5 101t15 112v98q-88 -49 -163 -72.5t-142 -23.5q-176 0 -290 133q-113 134 -113 344q0 263 169 408t478 145q63 0 138.5 -6.5t180.5 -20.5q-6 -108 -6 -118v-797z" />
    <glyph glyph-name="u0262" unicode="&#x262;" horiz-adv-x="1181" 
d="M1137 507v-85l-94 -7l-24 -21v-341q-75 -29 -169 -49t-198 -20q-131 0 -237.5 36.5t-181.5 104.5t-116 164t-41 215q0 126 45.5 222.5t124.5 162t185.5 99t228.5 33.5q86 0 178.5 -14t180.5 -40v-273h-138l-33 181l-27 24q-26 8 -55 11t-46 3q-88 0 -155.5 -30
t-113.5 -84t-69.5 -128.5t-23.5 -163.5q0 -87 22.5 -162.5t68.5 -131.5t116 -88t165 -32h15.5t21.5 1v300l-25 21l-117 7v85h512z" />
    <glyph glyph-name="u0263" unicode="&#x263;" horiz-adv-x="1116" 
d="M481 -112q-23 -50 -31 -81t-8 -57q0 -28 19.5 -46t48.5 -18q26 0 48 16t22 48q0 26 -10.5 57.5t-36.5 80.5l-28 52zM-12 997h520v-94l-107 -10l-22 -27l214 -567l232 565l-16 29l-104 10v94h389v-94l-119 -14l-313 -756l95 -190q29 -59 44 -103t15 -80t-12.5 -71.5
t-42 -63.5t-77 -45.5t-117.5 -17.5q-69 0 -116.5 16.5t-77 43.5t-42.5 60.5t-13 67.5q0 19 2.5 37.5t9 41t18 50.5t29.5 64l55 112l-321 836l-123 12v94z" />
    <glyph glyph-name="u0264" unicode="&#x264;" horiz-adv-x="1127" 
d="M750 383q13 -27 25 -53.5t22 -51.5t16 -47.5t6 -40.5q0 -50 -17.5 -88.5t-49.5 -65t-76.5 -40.5t-99.5 -14q-65 0 -111 17t-76 46t-44 66.5t-14 78.5q0 36 15 75.5t44 97.5l50 101q-48 101 -83 172.5t-61 119t-44.5 75t-33 41.5t-28 17.5t-29.5 3.5q-51 0 -67 -108
l-106 23q16 113 77 163.5t153 50.5q67 0 120 -15.5t99.5 -57.5t89.5 -114.5t90 -186.5q46 119 87.5 192t78.5 113.5t70.5 54.5t64.5 14q84 0 128 -52.5t59 -161.5l-105 -23q-8 54 -24.5 81t-43.5 27q-24 0 -44 -12t-46.5 -51t-65 -113.5t-98.5 -199.5zM478 308
q-15 -36 -24 -69t-9 -59q0 -38 15.5 -61t49.5 -23q29 0 47 21t18 63q0 26 -13 55t-36 73l-27 52z" />
    <glyph glyph-name="u0265" unicode="&#x265;" horiz-adv-x="1249" 
d="M889 -516h-98v618q-62 -33 -112.5 -57t-93 -39t-78 -22t-66.5 -7q-281 0 -281 340v549l-27 31l-108 8v92h502v-92l-88 -8l-29 -31v-490q0 -115 44 -168t140 -53q39 0 87.5 9t109.5 26v676l-31 31l-90 8v92h506v-92l-105 -8l-28 -31v-1206h149v-80z" />
    <glyph glyph-name="u0266" unicode="&#x266;" horiz-adv-x="1223" 
d="M434 895q61 33 112 57t93.5 39t78 22t66.5 7q281 0 281 -340v-549l27 -31l108 -8v-92h-502v92l88 8l29 31v490q0 115 -44 168t-140 53q-39 0 -87.5 -9t-109.5 -26v-676l31 -31l90 -8v-92h-506v92l105 8l28 31v856q0 150 51.5 260.5t157.5 188.5q57 42 119.5 64t128.5 22
q88 0 140.5 -40.5t52.5 -109.5q0 -42 -30.5 -74.5t-88.5 -52.5l-199 176q-40 -42 -60 -120.5t-20 -206.5v-199z" />
    <glyph glyph-name="u0267" unicode="&#x267;" horiz-adv-x="1185" 
d="M815 621q0 115 -44 168t-140 53q-39 0 -87.5 -9t-109.5 -26v-676l31 -31l90 -8v-92h-506v92l105 8l28 31v856q0 150 51.5 260.5t157.5 188.5q57 42 119.5 64t128.5 22q88 0 140.5 -40.5t52.5 -109.5q0 -42 -30.5 -74.5t-88.5 -52.5l-199 176q-40 -42 -60 -120.5
t-20 -206.5v-199q61 33 112 57t93.5 39t78 22t66.5 7q281 0 281 -340v-583q0 -92 -20.5 -167.5t-55.5 -135t-81 -103t-96.5 -72.5t-102.5 -43t-99 -14q-88 0 -140.5 40.5t-52.5 109.5q0 42 30.5 74.5t88.5 52.5l199 -176q40 42 60 120.5t20 206.5v631z" />
    <glyph glyph-name="u0268" unicode="&#x268;" horiz-adv-x="625" 
d="M36 560h165v278h-135v82l288 96h99v-456h157v-123h-157v-306l30 -31l115 -8v-92h-537v92l111 8l29 31v306h-165v123zM332 1483q67 0 110 -43q43 -42 43 -107q0 -69 -43 -112q-42 -43 -108 -43q-64 0 -107 43t-43 108q0 66 42 110q44 44 106 44z" />
    <glyph glyph-name="u0269" unicode="&#x269;" horiz-adv-x="753" 
d="M453 338q0 -62 3.5 -104t16 -67t36 -35.5t64.5 -10.5q18 0 54.5 6.5t81.5 23.5v-92q-44 -18 -84 -31.5t-78.5 -23t-77 -14t-78.5 -4.5q-59 0 -96 21t-58 60t-28.5 94t-7.5 123v554h-135v82l288 96h99v-678z" />
    <glyph glyph-name="u026A" unicode="&#x26a;" horiz-adv-x="632" 
d="M57 87l108 6l24 28v761l-24 22l-108 6v87h518v-87l-110 -6l-24 -22v-761l24 -28l110 -6v-87h-518v87z" />
    <glyph glyph-name="u026B" unicode="&#x26b;" horiz-adv-x="683" 
d="M571 909h111v-33q0 -115 -47 -179.5t-131 -64.5h-14t-14 1v-498l31 -33l119 -12v-90h-549v90l119 12l29 29v593q-11 4 -18 4q-37 0 -56.5 -28t-19.5 -82v-19h-113v33q0 118 46.5 181t131.5 63q7 0 14 -0.5t15 -1.5v461h-148v82l309 96h90v-731q5 -2 8.5 -2h6.5
q80 0 80 112v17z" />
    <glyph glyph-name="u026C" unicode="&#x26c;" horiz-adv-x="683" 
d="M99 759q0 -18 5 -34t20.5 -27t44.5 -18t76 -7v172q-44 -1 -72 -6.5t-44.5 -16.5t-23 -26.5t-6.5 -36.5zM97 0v90l119 12l29 29v442q-78 0 -128 14t-79 38.5t-40 58.5t-11 75q0 46 13.5 80.5t44 57.5t79.5 35t121 13v390h-148v82l309 96h90v-840h154v-100h-154v-438
l31 -33l119 -12v-90h-549z" />
    <glyph glyph-name="u026D" unicode="&#x26d;" horiz-adv-x="623" 
d="M446 -10q0 -128 19.5 -206.5t59.5 -120.5l199 176q58 -20 88.5 -52.5t30.5 -74.5q0 -69 -52.5 -109.5t-140.5 -40.5q-47 0 -99 14t-102.5 43t-96.5 72.5t-81 103t-55.5 135t-20.5 167.5v1238h-148v82l309 96h90v-1523z" />
    <glyph glyph-name="u026E" unicode="&#x26e;" horiz-adv-x="1365" 
d="M425 -59h136l29 -213l21 -24q15 -8 34.5 -14.5t41.5 -12t46 -8.5t47 -3q66 0 112 28.5t74.5 74t41 102.5t12.5 115q0 78 -14 137.5t-43 100t-74 61.5t-109 21q-22 0 -40 -1t-36 -3.5t-38 -6.5t-44 -9v106l322 493h-498v-750l31 -33l119 -12v-90h-549v90l119 12l29 29
v1204h-148v82l309 96h90v-518h797v-106l-317 -486q108 -19 180 -62t116 -100.5t62.5 -124t18.5 -130.5q0 -101 -36 -181t-103.5 -135.5t-164.5 -84.5t-219 -29q-69 0 -159 12.5t-196 41.5v331z" />
    <glyph glyph-name="u026F" unicode="&#x26f;" horiz-adv-x="1827" 
d="M801 116q-120 -69 -211.5 -104t-151.5 -35q-284 0 -284 340v549l-27 31l-108 8v92h503v-92l-88 -8l-28 -31v-490q0 -117 44.5 -169t143.5 -52q36 0 78 9.5t96 29.5v672l-26 31l-93 8v92h484v-92l-84 -8l-29 -35v-498q0 -109 43.5 -159t140.5 -50q79 0 172 35v676l-28 31
l-86 8v92h502v-92l-105 -8l-29 -31v-707h134v-82l-289 -96h-99v121q-110 -65 -191 -95t-144 -30q-157 0 -240 139z" />
    <glyph glyph-name="u0270" unicode="&#x270;" horiz-adv-x="1827" 
d="M801 116q-120 -69 -211.5 -104t-151.5 -35q-284 0 -284 340v549l-27 31l-108 8v92h503v-92l-88 -8l-28 -31v-490q0 -117 44.5 -169t143.5 -52q36 0 78 9.5t96 29.5v672l-26 31l-93 8v92h484v-92l-84 -8l-29 -35v-498q0 -109 43.5 -159t140.5 -50q79 0 172 35v676l-28 31
l-86 8v92h502v-92l-105 -8l-29 -31v-1204h134v-82l-289 -96h-99v618q-110 -65 -191 -95t-144 -30q-157 0 -240 139z" />
    <glyph glyph-name="u0271" unicode="&#x271;" horiz-adv-x="1793" 
d="M1421 621q0 117 -44.5 169t-143.5 52q-36 0 -78 -9.5t-96 -29.5v-672l26 -31l93 -8v-92h-484v92l84 8l29 35v498q0 109 -43.5 159t-140.5 50q-79 0 -172 -35v-676l28 -31l86 -8v-92h-502v92l105 8l29 31v707h-134v82l289 96h99v-121q110 65 191 95t144 30q157 0 240 -139
q120 69 211.5 104t151.5 35q284 0 284 -340v-583q0 -92 -20.5 -167.5t-55.5 -135t-81 -103t-96.5 -72.5t-102.5 -43t-99 -14q-88 0 -140.5 40.5t-52.5 109.5q0 42 30.5 74.5t88.5 52.5l199 -176q40 42 59 120.5t19 206.5v631z" />
    <glyph glyph-name="u0272" unicode="&#x272;" horiz-adv-x="1272" 
d="M230 838h-140v82l295 96h99v-121q117 65 202 95t148 30q141 0 209.5 -83.5t68.5 -256.5v-549l27 -31l108 -8v-92h-501v92l88 8l28 31v490q0 115 -43.5 168t-140.5 53q-72 0 -194 -35v-710q0 -92 -20.5 -167.5t-55.5 -135t-81 -103t-96.5 -72.5t-102.5 -43t-99 -14
q-88 0 -140.5 40.5t-52.5 109.5q0 42 30.5 74.5t88.5 52.5l199 -176q40 42 58 120.5t18 206.5v848z" />
    <glyph glyph-name="u0273" unicode="&#x273;" horiz-adv-x="1253" 
d="M1079 -10q0 -128 18 -206.5t58 -120.5l199 176q58 -20 88.5 -52.5t30.5 -74.5q0 -69 -52.5 -109.5t-140.5 -40.5q-71 0 -150 32t-146 97.5t-111 166.5t-44 239v524q0 115 -43.5 168t-140.5 53q-72 0 -194 -35v-676l28 -31l90 -8v-92h-506v92l105 8l29 31v707h-140v82
l295 96h99v-121q117 65 202 95t148 30q141 0 209.5 -83.5t68.5 -256.5v-690z" />
    <glyph glyph-name="u0274" unicode="&#x274;" horiz-adv-x="1226" 
d="M55 87l91 6l29 28v761l-20 22l-100 6v87h422v-40l428 -602v527l-26 22l-98 6v87h379v-87l-88 -6l-29 -22v-721l115 -161h-310l-537 756v-635l21 -28l100 -9v-84h-377v87z" />
    <glyph glyph-name="u0275" unicode="&#x275;" horiz-adv-x="1196" 
d="M606 1022q235 0 375 -143q139 -142 139 -385q0 -231 -145 -370q-146 -140 -385 -140q-231 0 -373 141q-141 142 -141 373q0 238 145 380q145 144 385 144zM596 92q109 0 171 92t70 265h-476q9 -170 70.5 -263.5t164.5 -93.5zM598 913q-104 0 -165.5 -91.5t-71.5 -257.5
h475q-9 148 -62 240q-63 109 -176 109z" />
    <glyph glyph-name="u0276" unicode="&#x276;" horiz-adv-x="1686" 
d="M628 901q-47 0 -93 -22t-83 -71t-60 -128t-23 -193q0 -82 16.5 -156t49.5 -130t82.5 -89t115.5 -33q75 0 125 40.5t80 102.5t42.5 136t12.5 141q0 77 -15.5 149.5t-47.5 128.5t-82 90t-120 34zM1578 997v-250h-129l-24 132l-21 17h-273v-328h166l22 21l15 107h106v-367
h-106l-15 107l-22 22h-166v-357h320l20 25l24 164h129v-290h-745v66q-63 -49 -142 -75t-172 -26q-116 0 -206.5 42t-152.5 114.5t-94 169t-32 205.5q0 120 36 216t101.5 163.5t157.5 103.5t205 36q90 0 164.5 -26t134.5 -73v81h699z" />
    <glyph glyph-name="u0277" unicode="&#x277;" horiz-adv-x="1594" 
d="M797 189q-30 -56 -62.5 -94.5t-71.5 -63.5t-86.5 -36t-106.5 -11q-89 0 -161.5 30t-124 85t-79.5 132t-28 171q0 140 41.5 254.5t129 195.5t223.5 125t326 44t326 -44t223.5 -125t129 -195.5t41.5 -254.5q0 -94 -28 -171t-79.5 -132t-124 -85t-161.5 -30q-59 0 -106.5 11
t-86.5 36t-71.5 63.5t-62.5 94.5zM797 913q-114 0 -197 -39t-136.5 -107.5t-79 -162t-25.5 -202.5q0 -71 12.5 -128t34 -97.5t49.5 -62.5t60 -22q79 0 117 102t38 303v117h254v-117q0 -201 38 -303t117 -102q31 0 59.5 22t50 62.5t34 97.5t12.5 128q0 109 -25.5 202.5
t-79 162t-136.5 107.5t-197 39z" />
    <glyph glyph-name="u0278" unicode="&#x278;" horiz-adv-x="1534" 
d="M893 1513v-516h18q132 0 233.5 -34.5t171.5 -99.5t106 -160t36 -216q0 -128 -41 -220t-112 -151t-167.5 -87.5t-207.5 -28.5h-37v-446h-252v446h-37q-111 0 -207.5 28t-167.5 87.5t-112 151.5t-41 220q0 126 37.5 221t108.5 159.5t172 97t229 32.5h18v516h252zM649 887
h-8q-89 0 -146.5 -37.5t-90.5 -96.5t-45.5 -131.5t-12.5 -142.5q0 -71 14 -137.5t47 -117.5t86.5 -82t131.5 -31h24v776zM885 111h24q78 0 131.5 31t86.5 82t47 117.5t14 137.5q0 70 -13 142.5t-46 131.5t-90 96.5t-146 37.5h-8v-776z" />
    <glyph glyph-name="u0279" unicode="&#x279;" horiz-adv-x="890" 
d="M823 997v-92l-109 -8l-29 -31v-707h148v-82l-301 -96h-99l9 209q-108 -114 -239 -208q-17 -3 -27.5 -4t-18.5 -1q-66 0 -135 35l26 283h107q23 -38 55.5 -56t77.5 -18q26 0 62.5 14.5t82.5 42.5v588l-30 31l-146 8v92h566z" />
    <glyph glyph-name="u027A" unicode="&#x27a;" horiz-adv-x="890" 
d="M823 1513v-92l-109 -8l-29 -31v-1223h148v-82l-301 -96h-99l9 209q-108 -114 -239 -208q-17 -3 -27.5 -4t-18.5 -1q-66 0 -135 35l26 283h107q23 -38 55.5 -56t77.5 -18q26 0 62.5 14.5t82.5 42.5v1104l-30 31l-146 8v92h566z" />
    <glyph glyph-name="u027B" unicode="&#x27b;" horiz-adv-x="862" 
d="M442 190q-108 -114 -239 -208q-17 -3 -27.5 -4t-18.5 -1q-66 0 -135 35l26 283h107q23 -38 55.5 -56t77.5 -18q26 0 62.5 14.5t82.5 42.5v588l-30 31l-146 8v92h566v-92l-109 -8l-29 -31v-876q0 -128 18 -206.5t58 -120.5l199 176q58 -20 88.5 -52.5t30.5 -74.5
q0 -69 -52.5 -109.5t-140.5 -40.5q-71 0 -150 32t-146 97.5t-111 166.5t-44 239q0 16 2 41t5 52z" />
    <glyph glyph-name="u027C" unicode="&#x27c;" horiz-adv-x="890" 
d="M67 -449v92l109 8l29 31v1156h-148v82l301 96h99l-9 -209q108 114 239 208q17 3 27.5 4t18.5 1q66 0 135 -35l-26 -283h-107q-23 38 -55.5 56t-77.5 18q-26 0 -62.5 -14.5t-82.5 -42.5v-1037l30 -31l146 -8v-92h-566z" />
    <glyph glyph-name="u027D" unicode="&#x27d;" horiz-adv-x="890" 
d="M457 -10q0 -128 17 -206.5t57 -120.5l199 176q58 -20 88.5 -52.5t30.5 -74.5q0 -69 -52.5 -109.5t-140.5 -40.5q-71 0 -150 32t-146 97.5t-111 166.5t-44 239v741h-148v82l301 96h99l-9 -209q108 114 239 208q17 3 27.5 4t18.5 1q66 0 135 -35l-26 -283h-107
q-23 38 -55.5 56t-77.5 18q-26 0 -62.5 -14.5t-82.5 -42.5v-729z" />
    <glyph glyph-name="u027E" unicode="&#x27e;" horiz-adv-x="869" 
d="M447 131l30 -31l146 -8v-92h-566v92l109 8l29 31v356q0 150 52.5 260.5t158.5 188.5q57 42 119.5 64t128.5 22q88 0 140.5 -40.5t52.5 -109.5q0 -42 -30.5 -74.5t-88.5 -52.5l-199 176q-40 -42 -61 -120.5t-21 -206.5v-463z" />
    <glyph glyph-name="u027F" unicode="&#x27f;" horiz-adv-x="842" 
d="M422 594q0 128 -21 206.5t-61 120.5l-199 -176q-58 20 -88.5 52.5t-30.5 74.5q0 69 52.5 109.5t140.5 40.5q66 0 128.5 -22t119.5 -64q106 -78 158.5 -188.5t52.5 -260.5v-805l29 -31l109 -8v-92h-566v92l146 8l30 31v912z" />
    <glyph glyph-name="u0280" unicode="&#x280;" horiz-adv-x="1146" 
d="M606 997q58 0 121 -10.5t114.5 -38t85 -76t33.5 -124.5q0 -109 -70 -170t-211 -82v-3q45 -6 84.5 -23t65.5 -41q41 -37 66.5 -94t51.5 -123q10 -27 25 -56t42 -45q19 -15 49 -19t81 -4v-88q-52 -5 -98 -7t-75 -2q-112 0 -183.5 29.5t-100.5 109.5q-5 15 -9.5 26.5t-9 26
t-10.5 35t-15 52.5q-17 57 -38.5 89.5t-46.5 48.5t-52.5 20t-55.5 4h-13v-311l24 -29l98 -5v-87h-502v87l96 5l24 29v761l-24 22l-96 6v87h549zM437 533q69 0 116.5 11t77.5 34t43 57.5t13 82.5q0 81 -48.5 129t-132.5 48h-69v-362z" />
    <glyph glyph-name="u0281" unicode="&#x281;" horiz-adv-x="1146" 
d="M57 0v87l96 6l24 22v761l-24 29l-96 5v87h502v-87l-98 -5l-24 -29v-311h13q28 0 55.5 4t52.5 20t46.5 48.5t38.5 89.5q9 32 15 52.5t10.5 35t9 26t9.5 26.5q29 80 100.5 109.5t183.5 29.5q29 0 75 -2t98 -7v-88q-51 0 -81 -4t-49 -19q-27 -16 -42 -45t-25 -56
q-26 -66 -51.5 -123t-66.5 -94q-26 -24 -65.5 -41t-84.5 -23v-3q141 -21 211 -82t70 -170q0 -76 -33.5 -124.5t-85 -76t-114.5 -38t-121 -10.5h-549zM437 102h69q84 0 132.5 48t48.5 129q0 48 -13 82.5t-43 57.5t-77.5 34t-116.5 11v-362z" />
    <glyph glyph-name="u0282" unicode="&#x282;" horiz-adv-x="915" 
d="M187 1q0 -41 6 -81t24 -75.5t52 -65.5t91 -51l125 111q64 -23 91.5 -56t27.5 -71q0 -32 -13 -59t-36.5 -47.5t-56.5 -32t-74 -11.5q-71 0 -132.5 29.5t-108 92t-73 159.5t-26.5 231v258h123l24 -176l21 -23q81 -43 172 -43q81 0 127.5 39.5t46.5 108.5q0 87 -177 167
q-30 14 -53 25t-40 19q-127 63 -179 124q-51 61 -51 146q0 137 109 221t293 84q78 0 154.5 -12.5t154.5 -38.5v-273h-123l-20 154l-25 23q-69 32 -135 32q-75 0 -115.5 -32.5t-40.5 -90.5q0 -48 32 -83q33 -36 159 -97l4 -2q295 -142 295 -289q0 -157 -112 -248
q-111 -90 -306 -90q-107 0 -235 26v-2z" />
    <glyph glyph-name="u0283" unicode="&#x283;" horiz-adv-x="823" 
d="M274 987q0 150 51 260.5t157 188.5q57 42 119.5 64t128.5 22q88 0 140.5 -40.5t52.5 -109.5q0 -42 -30.5 -74.5t-88.5 -52.5l-199 176q-40 -42 -60 -121t-20 -206v-997q0 -150 -51 -260.5t-157 -188.5q-57 -42 -119.5 -64t-128.5 -22q-88 0 -140.5 40.5t-52.5 109.5
q0 42 30.5 74.5t88.5 52.5l199 -176q40 42 60 121t20 206v997z" />
    <glyph glyph-name="u0284" unicode="&#x284;" horiz-adv-x="823" 
d="M274 0h-212v115h212v872q0 150 51 260.5t157 188.5q57 42 119.5 64t128.5 22q88 0 140.5 -40.5t52.5 -109.5q0 -42 -30.5 -74.5t-88.5 -52.5l-199 176q-40 -42 -60 -121t-20 -206v-979h205v-115h-212q-9 -89 -48 -168.5t-100 -139.5t-138.5 -95t-162.5 -35
q-88 0 -140.5 40.5t-52.5 109.5q0 42 30.5 74.5t88.5 52.5l199 -176q40 42 60 121t20 206v10z" />
    <glyph glyph-name="u0285" unicode="&#x285;" horiz-adv-x="850" 
d="M673 -10q0 -128 18 -206.5t58 -120.5l199 176q58 -20 88.5 -52.5t30.5 -74.5q0 -69 -52.5 -109.5t-140.5 -40.5q-47 0 -99 14t-102 43t-95.5 72.5t-80 103t-55 135t-20.5 167.5v497q0 128 -21 206.5t-61 120.5l-199 -176q-58 20 -88.5 52.5t-30.5 74.5q0 69 52.5 109.5
t140.5 40.5q66 0 128.5 -22t119.5 -64q106 -78 158.5 -188.5t52.5 -260.5z" />
    <glyph glyph-name="u0286" unicode="&#x286;" horiz-adv-x="943" 
d="M645 167q66 -26 117.5 -66.5t89.5 -90t61.5 -104.5t32.5 -111l-97 -24q-6 33 -21.5 73.5t-41 80.5t-61 75t-80.5 57q-6 -104 -41 -194.5t-90.5 -157t-127.5 -105t-154 -38.5q-69 0 -120 23t-85 59.5t-50.5 82t-16.5 89.5q0 77 25.5 143.5t78.5 117.5t135 83t195 40v787
q0 150 51 260.5t157 188.5q57 42 119.5 64t128.5 22q88 0 140.5 -40.5t52.5 -109.5q0 -42 -30.5 -74.5t-88.5 -52.5l-199 176q-40 -42 -60 -121t-20 -206v-927zM222 -338q55 0 89 28.5t52.5 82t24.5 130.5t6 175v22q-167 -17 -244.5 -92t-77.5 -192q0 -26 8.5 -53.5
t26.5 -50t46.5 -36.5t68.5 -14z" />
    <glyph glyph-name="u0287" unicode="&#x287;" horiz-adv-x="768" 
d="M596 160h133v-78l-151 -86l-107 -213h-129v254h-303v123h303v510q0 116 -37 157q-38 42 -133 42q-38 0 -70.5 -3.5t-62.5 -10.5v98q88 32 167.5 48.5t145.5 16.5q106 0 170 -45q42 -28 58 -67t16 -150v-596z" />
    <glyph glyph-name="u0288" unicode="&#x288;" horiz-adv-x="746" 
d="M172 848h-133v78l151 86l107 213h129v-254h303v-123h-303v-858q0 -128 16 -206.5t56 -120.5l199 176q58 -20 88.5 -52.5t30.5 -74.5q0 -69 -52.5 -109.5t-140.5 -40.5q-71 0 -150 32t-146 97.5t-111 166.5t-44 239v751z" />
    <glyph glyph-name="u0289" unicode="&#x289;" horiz-adv-x="1229" 
d="M-1 457v115h181v272h-133v82l289 96h98v-450h371v272h-133v82l291 96h94v-450h180v-115h-180v-326l28 -31l107 -8v-92h-387v113q-107 -70 -188.5 -100.5t-155.5 -30.5q-143 0 -212 85.5t-69 264.5v125h-181zM629 158q35 0 77 7.5t99 24.5v267h-371v-70
q0 -122 45.5 -175.5t149.5 -53.5z" />
    <glyph glyph-name="u028A" unicode="&#x28a;" horiz-adv-x="1232" 
d="M616 92q52 0 94.5 28t72.5 80t46.5 126.5t16.5 167.5q0 109 -30.5 210t-102.5 190v101h443v-110h-186q43 -50 73.5 -107t50 -114.5t28 -112t8.5 -97.5q0 -106 -38 -193t-106 -148.5t-162.5 -95t-207.5 -33.5t-207.5 33.5t-162.5 95t-106 148.5t-38 193q0 43 8.5 97.5
t28 112t49.5 114.5t74 107h-186v110h443v-101q-72 -89 -102.5 -190t-30.5 -210q0 -93 16.5 -167.5t46.5 -126.5t72.5 -80t94.5 -28z" />
    <glyph glyph-name="u028B" unicode="&#x28b;" horiz-adv-x="1263" 
d="M1026 663l-224 203q9 31 24.5 59t37 49.5t49 34t60.5 12.5q55 0 90 -32t58 -80q17 -35 29.5 -87t20.5 -106.5t11.5 -103t3.5 -75.5q0 -117 -24 -218t-78 -175.5t-140.5 -117t-210.5 -42.5q-148 0 -239 31.5t-140.5 92.5t-66 151.5t-16.5 209.5v237q0 49 -6 81.5t-20 52
t-37.5 28t-58.5 8.5q-21 0 -48 -1.5t-65 -7.5v95q85 33 149.5 46t118.5 13q73 0 116.5 -22.5t66 -64t29 -98.5t6.5 -126v-187q0 -95 6 -174t29.5 -136t69.5 -88.5t126 -31.5q73 0 128.5 27.5t93 79.5t56.5 127t19 171q0 21 -4.5 59.5t-19.5 105.5z" />
    <glyph glyph-name="u028C" unicode="&#x28c;" horiz-adv-x="1158" 
d="M1146 0h-520v94l107 10l22 27l-213 598l-233 -596l16 -29l104 -10v-94h-389v94l119 14l352 889h185l327 -891l123 -12v-94z" />
    <glyph glyph-name="u028D" unicode="&#x28d;" horiz-adv-x="1715" 
d="M1703 0h-508v94l100 14l23 29l-166 590l-239 -727h-205l-224 727l-180 -592l15 -29l108 -12v-94h-387v94l115 14l278 889h207l227 -735l244 735h205l264 -891l123 -12v-94z" />
    <glyph glyph-name="u028E" unicode="&#x28e;" horiz-adv-x="1158" 
d="M1146 0h-520v88l104 12l21 29l-221 579l-223 -577l18 -31l108 -12v-88h-393v88l111 18l395 961q74 176 175 276q103 101 206 101q72 0 124 -46q52 -45 52 -106q0 -45 -27.5 -82t-78.5 -63l-178 122q-42 -33 -82.5 -96t-77.5 -153l364 -914l123 -18v-88z" />
    <glyph glyph-name="u028F" unicode="&#x28f;" horiz-adv-x="1003" 
d="M464 997v-87l-87 -6l-14 -22l194 -352l187 340l-12 27l-90 13v87h359v-87l-92 -13l-278 -472v-308l23 -23l107 -7v-87h-508v87l101 7l24 23v252l-297 527l-101 14v87h484z" />
    <glyph glyph-name="u0290" unicode="&#x290;" horiz-adv-x="1149" 
d="M94 127l529 758h-332l-27 -29l-18 -170h-135v309h811v-106l-543 -774h379l30 32l29 189h135v-335q0 -41 6 -81t24 -75.5t52 -65.5t91 -51l125 111q64 -23 91.5 -56t27.5 -71q0 -32 -13 -59t-36.5 -47.5t-56.5 -32t-74 -11.5q-66 0 -124 25.5t-103 79t-74.5 136.5
t-36.5 197h-757v127z" />
    <glyph glyph-name="u0291" unicode="&#x291;" horiz-adv-x="1057" 
d="M838 346q-38 0 -70 -14.5t-60.5 -43.5t-55 -72t-53.5 -101h82q78 0 129.5 8t83 24.5t44.5 41.5t13 59q0 46 -31 72t-82 26zM94 0v127l529 758h-332l-27 -29l-18 -170h-135v309h811v-106l-543 -774h113q37 83 74.5 145t79 103.5t88.5 62t104 20.5q49 0 90 -14.5t70.5 -41
t46 -63t16.5 -79.5q0 -57 -19.5 -103t-64 -78t-117.5 -49.5t-179 -17.5h-130q-14 -35 -28.5 -74t-30.5 -83l-94 34q11 33 22.5 63.5t23.5 59.5h-350z" />
    <glyph glyph-name="u0292" unicode="&#x292;" horiz-adv-x="997" 
d="M57 -59h136l29 -213l21 -24q15 -8 34.5 -14.5t41.5 -12t46 -8.5t47 -3q66 0 112 28.5t74.5 74t41 102.5t12.5 115q0 78 -14 137.5t-43 100t-74 61.5t-109 21q-22 0 -40 -1t-36 -3.5t-38 -6.5t-44 -9v106l322 493h-298l-27 -29l-18 -170h-135v309h777v-106l-317 -486
q108 -19 180 -62t116 -100.5t62.5 -124t18.5 -130.5q0 -101 -36 -181t-103.5 -135.5t-164.5 -84.5t-219 -29q-69 0 -159 12.5t-196 41.5v331z" />
    <glyph glyph-name="u0293" unicode="&#x293;" horiz-adv-x="997" 
d="M688 -394q-117 -50 -276 -50q-75 0 -146.5 16.5t-126.5 53.5t-88.5 97.5t-33.5 147.5q0 50 19 95.5t54.5 80t86.5 55t115 20.5q115 0 200 -57t154 -159q6 39 6 80q0 78 -14 137.5t-43 100t-74 61.5t-109 21q-22 0 -40 -1t-36 -3.5t-38 -6.5t-44 -9v106l322 493h-298
l-27 -29l-18 -170h-135v309h777v-106l-317 -486q108 -19 180 -62t116 -100.5t62.5 -124t18.5 -130.5q0 -109 -41 -192.5t-119 -139.5q8 -21 17 -41.5t18 -42.5l-96 -31q-6 17 -12.5 33t-13.5 33v1zM412 -334q72 0 119 32.5t75 83.5q-30 56 -63.5 100.5t-72 75.5t-82.5 47.5
t-96 16.5q-41 0 -72 -12t-52 -32t-32 -48t-11 -59q0 -44 17.5 -81.5t53 -65t89.5 -43t127 -15.5z" />
    <glyph glyph-name="u0294" unicode="&#x294;" horiz-adv-x="953" 
d="M755 627q-117 -120 -291 -136v-356l31 -33l119 -12v-90h-549v90l119 12l29 29v527q29 -6 50 -7.5t34 -1.5q145 0 231 105q85 104 85 287q0 165 -77 274q-77 107 -191 107q-20 0 -52 -7v-217q-52 -39 -121 -39q-32 0 -59 10.5t-46.5 29t-30.5 44.5t-11 56q0 98 93 161
q95 62 245 62q230 0 379 -149t149 -382q0 -225 -136 -364zM464 633q1 -1 0 -1v1z" />
    <glyph glyph-name="u0295" unicode="&#x295;" horiz-adv-x="953" 
d="M198 627q-136 139 -136 364q0 233 149 382t379 149q150 0 245 -62q93 -63 93 -161q0 -30 -11 -56t-30.5 -44.5t-46.5 -29t-59 -10.5q-69 0 -121 39v217q-32 7 -52 7q-114 0 -191 -107q-77 -109 -77 -274q0 -183 85 -287q85 -105 231 -105q13 0 34 1.5t50 7.5v-527l29 -29
l119 -12v-90h-549v90l119 12l31 33v356q-174 16 -291 136zM489 633q-1 -1 0 -1v1z" />
    <glyph glyph-name="u0296" unicode="&#x296;" horiz-adv-x="953" 
d="M755 879q136 -139 136 -364q0 -233 -149 -382t-379 -149q-150 0 -245 62q-93 63 -93 161q0 30 11 56t30.5 44.5t46.5 29t59 10.5q69 0 121 -39v-217q32 -7 52 -7q114 0 191 107q77 109 77 274q0 183 -85 287q-86 105 -231 105q-13 0 -34 -1.5t-50 -7.5v527l-29 29
l-119 12v90h549v-90l-119 -12l-31 -33v-356q174 -16 291 -136zM464 873q1 1 0 1v-1z" />
    <glyph glyph-name="u0297" unicode="&#x297;" horiz-adv-x="975" 
d="M950 -336q-102 -55 -196 -81.5t-191 -26.5q-117 0 -208.5 55.5t-154.5 151.5t-95.5 225.5t-32.5 278.5q0 153 35.5 289t103.5 239t166 163t223 60q151 0 244 -63q94 -61 94 -160q0 -30 -11 -56t-30.5 -44.5t-46.5 -29t-59 -10.5q-69 0 -121 39v217q-32 7 -52 7
q-48 0 -96 -35t-86.5 -108.5t-62 -187t-23.5 -270.5q0 -133 20.5 -243.5t60.5 -189.5t99 -123t136 -44q66 0 137.5 23.5t146.5 69.5v-146z" />
    <glyph glyph-name="u0298" unicode="&#x298;" horiz-adv-x="1552" 
d="M778 1274q-177 0 -283 -159q-106 -157 -106 -425q0 -272 106 -435t279 -163t280 159q107 161 107 425q0 274 -105 436q-104 162 -278 162zM84 694q0 169 52.5 302.5t158.5 230.5q193 178 479 178q264 0 451 -160q118 -103 180.5 -246t62.5 -317q0 -164 -55 -299.5
t-164 -235.5q-94 -88 -212 -134t-249 -46q-317 0 -511 200q-193 199 -193 527zM773 860q67 0 115 -48q49 -48 49 -116t-48 -114q-49 -47 -116 -47q-66 0 -113 47t-47 114q0 70 46 116q46 48 114 48z" />
    <glyph glyph-name="u0299" unicode="&#x299;" horiz-adv-x="1052" 
d="M594 997q61 0 121 -10t108 -36t77.5 -71t29.5 -115q0 -40 -15.5 -78t-44 -69t-70.5 -53t-94 -30v-3q136 -6 208 -70t72 -176q0 -83 -34 -138t-88 -88t-122 -46.5t-136 -13.5h-549v87l94 6l24 28v761l-24 22l-94 6v87h537zM427 565q9 -1 22.5 -1.5t21.5 -0.5
q95 0 141.5 43t46.5 135q0 84 -45 122t-139 38h-48v-336zM427 97q17 -2 36.5 -2.5t35.5 -0.5q99 0 154.5 45t55.5 142q0 50 -15.5 84.5t-45 56.5t-71.5 31.5t-94 9.5h-56v-366z" />
    <glyph glyph-name="u029A" unicode="&#x29a;" horiz-adv-x="1148" 
d="M558 111q112 0 171 99t59 296q0 96 -16 171.5t-47 127.5t-75 79t-100 27q-39 0 -73 -10t-59.5 -30.5t-40.5 -51.5t-15 -72q0 -46 17 -78.5t44 -53.5t61 -30.5t69 -9.5h26t29 1t29 2t25 4v-124q-12 2 -28.5 4t-34.5 4t-36 3.5t-33 1.5q-32 0 -65 -8.5t-60.5 -29t-45 -53.5
t-17.5 -81q0 -46 18.5 -81t48.5 -59t69 -36t80 -12zM558 -20q-111 0 -202.5 15.5t-157.5 49.5t-102.5 88.5t-36.5 133.5q0 60 21.5 107t58.5 80.5t86.5 53.5t105.5 26v4q-51 13 -92.5 33.5t-71.5 48t-46.5 63.5t-16.5 80q0 55 19.5 95t52.5 69t77 47.5t92 29t97.5 14.5
t94.5 4q123 0 221.5 -37.5t168.5 -106.5t107.5 -165.5t37.5 -214.5q0 -114 -37.5 -209t-105 -164t-162 -107t-209.5 -38z" />
    <glyph glyph-name="u029B" unicode="&#x29b;" horiz-adv-x="1297" 
d="M1137 507v-85l-94 -7l-24 -21v-341q-75 -29 -169 -49t-198 -20q-131 0 -237.5 36.5t-181.5 104.5t-116 164t-41 215q0 126 45.5 222.5t124.5 162t185.5 99t228.5 33.5q32 0 66 -2t69 -6q22 71 61.5 131.5t92 104.5t117 68.5t138.5 24.5q88 0 140.5 -40.5t52.5 -109.5
q0 -42 -30.5 -74.5t-88.5 -52.5l-199 176q-32 -38 -46 -109.5t-14 -180.5v-257h-138l-33 181l-27 24q-26 8 -55 11t-46 3q-88 0 -155.5 -30t-113.5 -84t-69.5 -128.5t-23.5 -163.5q0 -87 22.5 -162.5t68.5 -131.5t116 -88t165 -32h15.5t21.5 1v300l-25 21l-117 7v85h512z
" />
    <glyph glyph-name="u029C" unicode="&#x29c;" horiz-adv-x="1254" 
d="M539 997v-87l-89 -6l-24 -22v-303h402v303l-24 22l-90 6v87h483v-87l-93 -6l-24 -22v-761l24 -28l93 -6v-87h-483v87l90 6l24 28v347h-402v-347l24 -28l89 -6v-87h-482v87l91 6l26 28v761l-26 22l-91 6v87h482z" />
    <glyph glyph-name="u029D" unicode="&#x29d;" horiz-adv-x="608" 
d="M223 838h-145v82l309 96h86v-870q31 2 61 3.5t56 3.5l5 -100q-27 -2 -59 -3t-67 -4q-11 -110 -43.5 -199t-85.5 -152.5t-126 -98t-166 -34.5q-43 0 -81.5 13t-67.5 38t-46 61.5t-17 84.5q0 82 32.5 141.5t86.5 101.5t123.5 69t144.5 44v723zM195 1329q0 34 11 62.5
t30.5 49t47.5 31.5t62 11q63 0 107 -45q43 -43 43 -111q0 -63 -45 -106q-44 -43 -109 -43q-63 0 -105 42q-42 43 -42 109zM-52 -241q0 -50 29.5 -73.5t70.5 -23.5q28 0 58 9.5t55 45t41.5 105.5t19.5 191q-57 -14 -106.5 -34t-87 -50t-59 -71.5t-21.5 -98.5z" />
    <glyph glyph-name="u029E" unicode="&#x29e;" horiz-adv-x="1159" 
d="M1088 995v-90l-107 -10l-28 -31v-1206h149v-80l-315 -96h-86v983h-45l-293 -342l14 -23l90 -10v-90h-418v90l134 16l233 260l-326 529l-120 10v90h393v-80l237 -383h101v336l-27 29l-102 8v90h516z" />
    <glyph glyph-name="u029F" unicode="&#x29f;" horiz-adv-x="913" 
d="M57 87l90 6l28 28v761l-19 22l-99 6v87h495v-87l-100 -6l-25 -22v-781h267l18 25l24 189h147v-315h-826v87z" />
    <glyph glyph-name="u02A0" unicode="&#x2a0;" horiz-adv-x="1314" 
d="M784 899q-33 6 -56.5 8t-45.5 2q-161 0 -245.5 -102t-84.5 -295q0 -171 75.5 -264.5t213.5 -93.5q67 0 143 14v731zM723 1022q41 0 91 -3q22 68 61 127t91 102.5t116.5 68.5t138.5 25q88 0 140.5 -40.5t52.5 -109.5q0 -42 -30.5 -74.5t-88.5 -52.5l-199 176
q-35 -42 -47.5 -120.5t-12.5 -206.5v-1231l31 -29l102 -8v-92h-546v94l131 8l30 29v403q-88 -49 -163 -72.5t-142 -23.5q-176 0 -290 133q-113 134 -113 344q0 263 169 408t478 145z" />
    <glyph glyph-name="u02A1" unicode="&#x2a1;" horiz-adv-x="953" 
d="M464 267v-132l31 -33l119 -12v-90h-549v90l119 12l29 29v136h-181v115h181v276q29 -6 50 -7.5t34 -1.5q145 0 231 105q85 104 85 287q0 165 -77 274q-77 107 -191 107q-20 0 -52 -7v-217q-52 -39 -121 -39q-32 0 -59 10.5t-46.5 29t-30.5 44.5t-11 56q0 98 93 161
q95 62 245 62q230 0 379 -149t149 -382q0 -225 -136 -364q-117 -120 -291 -136v-109h181v-115h-181zM464 633q1 -1 0 -1v1z" />
    <glyph glyph-name="u02A2" unicode="&#x2a2;" horiz-adv-x="953" 
d="M308 267v115h181v109q-174 16 -291 136q-136 139 -136 364q0 233 149 382t379 149q150 0 245 -62q93 -63 93 -161q0 -30 -11 -56t-30.5 -44.5t-46.5 -29t-59 -10.5q-69 0 -121 39v217q-32 7 -52 7q-114 0 -191 -107q-77 -109 -77 -274q0 -183 85 -287q85 -105 231 -105
q13 0 34 1.5t50 7.5v-276h181v-115h-181v-136l29 -29l119 -12v-90h-549v90l119 12l31 33v132h-181zM489 633q-1 -1 0 -1v1z" />
    <glyph glyph-name="u02A3" unicode="&#x2a3;" horiz-adv-x="1967" 
d="M797 195v684q-46 15 -83 22.5t-69 7.5q-134 0 -215 -106q-80 -107 -80 -285q0 -171 73 -266q73 -96 202 -96q34 0 76 9.5t96 29.5zM797 1335h-150v82l305 96h95v-518h828v-106l-543 -774h379l30 32l29 189h135v-336h-1108v115q-94 -69 -171.5 -101t-152.5 -32
q-173 0 -286 137q-111 138 -111 356q0 245 146 397q147 152 382 152q45 0 92 -5t101 -15v331zM1576 885h-482l-47 -51v-707z" />
    <glyph glyph-name="u02A4" unicode="&#x2a4;" horiz-adv-x="1917" 
d="M797 195v684q-46 15 -83 22.5t-69 7.5q-134 0 -215 -106q-80 -107 -80 -285q0 -171 73 -266q73 -96 202 -96q34 0 76 9.5t96 29.5zM977 -59h136l29 -213l21 -24q15 -8 34.5 -14.5t41.5 -12t46 -8.5t47 -3q66 0 112 28.5t74.5 74t41 102.5t12.5 115q0 78 -14 137.5
t-43 100t-74 61.5t-109 21q-22 0 -40 -1t-36 -3.5t-38 -6.5t-44 -9v106l322 493h-399l-50 -53v-701l28 -33l105 -8v-90h-383v115q-94 -69 -171.5 -101t-152.5 -32q-173 0 -286 137q-111 138 -111 356q0 245 146 397q147 152 382 152q45 0 92 -5t101 -15v331h-150v82l305 96
h95v-518h748v-106l-317 -486q108 -19 180 -62t116 -100.5t62.5 -124t18.5 -130.5q0 -101 -36 -181t-103.5 -135.5t-164.5 -84.5t-219 -29q-69 0 -159 12.5t-196 41.5v331z" />
    <glyph glyph-name="u02A5" unicode="&#x2a5;" horiz-adv-x="2010" 
d="M797 195v684q-46 15 -83 22.5t-69 7.5q-134 0 -215 -106q-80 -107 -80 -285q0 -171 73 -266q73 -96 202 -96q34 0 76 9.5t96 29.5zM1791 346q-38 0 -70 -14.5t-60.5 -43.5t-55 -72t-53.5 -101h82q78 0 129.5 8t83 24.5t44.5 41.5t13 59q0 46 -31 72t-82 26zM797 1335
h-150v82l305 96h95v-518h828v-106l-543 -774h113q37 83 74.5 145t79 103.5t88.5 62t104 20.5q49 0 90 -14.5t70.5 -41t46 -63t16.5 -79.5q0 -57 -19.5 -103t-64 -78t-117.5 -49.5t-179 -17.5h-130q-14 -35 -28.5 -74t-30.5 -83l-94 34q11 33 22.5 63.5t23.5 59.5h-600v115
q-94 -69 -171.5 -101t-152.5 -32q-173 0 -286 137q-111 138 -111 356q0 245 146 397q147 152 382 152q45 0 92 -5t101 -15v331zM1576 885h-482l-47 -51v-707z" />
    <glyph glyph-name="u02A6" unicode="&#x2a6;" horiz-adv-x="1464" 
d="M1358 973v-273h-123l-20 154l-25 23q-69 32 -135 32q-75 0 -115.5 -32.5t-40.5 -90.5q0 -48 32 -83q33 -36 159 -97l4 -2q295 -142 295 -289q0 -82 -29.5 -145t-104 -106t-201.5 -65t-322 -22q-124 0 -213.5 9.5t-151.5 30t-100.5 52t-59.5 75.5t-28 101t-7 127v476h-133
v78l151 86l107 213h129v-254h378q100 53 245 53q78 0 154.5 -12.5t154.5 -38.5zM426 408q0 -77 13 -135.5t47 -98t93.5 -59.5t152.5 -20q139 0 221.5 10t125.5 29t55.5 45.5t12.5 58.5q0 87 -177 167q-30 14 -53 25t-40 19q-127 63 -179 124q-51 61 -51 146q0 70 30 129
h-251v-440z" />
    <glyph glyph-name="u02A7" unicode="&#x2a7;" horiz-adv-x="1268" 
d="M719 987q0 150 51 260.5t157 188.5q57 42 119.5 64t128.5 22q88 0 140.5 -40.5t52.5 -109.5q0 -42 -30.5 -74.5t-88.5 -52.5l-199 176q-40 -42 -60 -121t-20 -206v-997q0 -150 -51 -260.5t-157 -188.5q-57 -42 -119.5 -64t-128.5 -22q-88 0 -140.5 40.5t-52.5 109.5
q0 42 30.5 74.5t88.5 52.5l199 -176q40 42 60 121t20 206v61q-85 -30 -162 -45.5t-141 -15.5q-77 0 -125 18.5t-74.5 53t-35.5 82.5t-9 108v596h-133v78l151 86l107 213h129v-254h293v16zM426 338q0 -116 37 -157q37 -42 133 -42q35 0 65 3t58 8v698h-293v-510z" />
    <glyph glyph-name="u02A8" unicode="&#x2a8;" horiz-adv-x="1600" 
d="M1256 145q46 0 84 8.5t65.5 23t42.5 35t15 44.5q0 13 -7.5 26.5t-22.5 24.5t-38.5 18.5t-54.5 7.5q-86 0 -164.5 -21t-153.5 -59q89 -108 234 -108zM940 537q0 -113 33 -197q86 44 176 68.5t191 24.5q53 0 96.5 -14.5t74 -38.5t47.5 -55.5t17 -65.5q0 -63 -32 -114
t-88.5 -86.5t-134 -55t-167.5 -19.5q-214 0 -346 129q-53 -35 -102.5 -58.5t-97.5 -38t-95.5 -20.5t-95.5 -6q-125 0 -184.5 65t-59.5 197v596h-133v78l151 86l107 213h129v-254h303v-123h-303v-510q0 -106 32.5 -152.5t107.5 -46.5q17 0 37.5 1.5t43.5 6.5t47 15.5t49 27.5
q-81 123 -81 297q0 234 148 382q149 149 380 149q151 0 244 -63q94 -61 94 -160q0 -30 -11 -56t-30.5 -44.5t-46.5 -29t-59 -10.5q-69 0 -121 39v217q-32 7 -52 7q-115 0 -191 -108q-77 -107 -77 -273z" />
    <glyph glyph-name="u02A9" unicode="&#x2a9;" horiz-adv-x="1857" 
d="M1487 621q0 115 -43.5 168t-140.5 53q-72 0 -194 -35v-676l28 -31l90 -8v-92h-506v92l105 8l29 31v717h-409v-713l33 -31l137 -10v-94h-553v94l103 10l29 33v711h-132v78l132 61q0 150 51 260.5t157 188.5q57 42 119.5 64t128.5 22q88 0 140.5 -40.5t52.5 -109.5
q0 -42 -30.5 -74.5t-88.5 -52.5l-199 176q-80 -83 -80 -311v-139h425l139 45h99v-121q117 65 202 95t148 30q141 0 209.5 -83.5t68.5 -256.5v-583q0 -92 -20.5 -167.5t-55.5 -135t-81 -103t-96.5 -72.5t-102.5 -43t-99 -14q-88 0 -140.5 40.5t-52.5 109.5q0 42 30.5 74.5
t88.5 52.5l199 -176q40 42 60 120.5t20 206.5v631z" />
    <glyph glyph-name="u02AA" unicode="&#x2aa;" horiz-adv-x="1379" 
d="M1273 973v-273h-123l-20 154l-25 23q-69 32 -135 32q-75 0 -115.5 -32.5t-40.5 -90.5q0 -48 32 -83q33 -36 159 -97l4 -2q295 -142 295 -289q0 -157 -112 -248q-111 -90 -306 -90q-41 0 -85.5 3.5t-97.5 13t-116.5 25t-140.5 39.5v-58h-399v90l119 12l29 29v1204h-148v82
l309 96h90v-1281q64 -43 129 -70.5t123.5 -43.5t107.5 -22t82 -6q81 0 127.5 39.5t46.5 108.5q0 87 -177 167q-30 14 -53 25t-40 19q-127 63 -179 124q-51 61 -51 146q0 137 109 221t293 84q78 0 154.5 -12.5t154.5 -38.5z" />
    <glyph glyph-name="u02AB" unicode="&#x2ab;" horiz-adv-x="1366" 
d="M47 0v90l119 12l29 29v1204h-148v82l309 96h90v-518h828v-106l-543 -774h379l30 32l29 189h135v-336h-1257zM975 885h-482l-47 -51v-707z" />
    </font>
</defs>
</svg>
