<svg xmlns="http://www.w3.org/2000/svg" viewBox="0 0 182 70"><g fill-rule="evenodd" clip-rule="evenodd" fill="#343434"><path d="M23.6 67.4l-10.7-3.8V47.9l10.7 3.7zM25.6 67.4l10.6-3.8V47.9l-10.6 3.7zM14 46.7l10.8-3 10 3.2-10 3.4z"/></g><g fill-rule="evenodd" clip-rule="evenodd" fill="#343434"><path d="M10.9 45.5L.2 41.7V26.1l10.7 3.6zM12.9 45.5l10.6-3.8V26.1l-10.6 3.6zM1.3 24.9l10.8-3 10 3.2-10 3.4z"/></g><g fill-rule="evenodd" clip-rule="evenodd" fill="#343434"><path d="M35.8 45.5l-10.7-3.8V26.1l10.7 3.6zM37.8 45.5l10.6-3.8V26.1l-10.6 3.6zM26.2 24.9l10.8-3 10 3.2-10 3.4z"/></g><g fill-rule="evenodd" clip-rule="evenodd" fill="#343434"><path d="M48.5 23.7l-10.7-3.8V4.2l10.7 3.6zM50.5 23.7l10.6-3.8V4.2L50.5 7.8zM38.9 3l10.8-3 10.1 3.2-10.1 3.4z"/></g><g fill-rule="evenodd" clip-rule="evenodd" fill="#343434"><path d="M73.4 23.7l-10.7-3.8V4.2l10.7 3.6zM75.4 23.7L86 19.9V4.2L75.4 7.8zM63.8 3l10.8-3 10.1 3.2-10.1 3.4z"/></g><g fill="#343434"><path d="M68 57.2l-3.6 12.5h-1.6L60 60.4l-2.6 9.3h-1.6l-3.7-12.5H54l2.7 9.3 2.6-9.3h1.4l2.8 9.3 2.8-9.3H68zM77.9 65.9l1.8.4c-.3 1.1-1 1.9-1.9 2.6-1 .7-2.1 1-3.4 1-1.7 0-3.1-.6-4.1-1.8-1.1-1.2-1.6-2.8-1.6-4.7 0-2 .5-3.6 1.6-4.8 1.1-1.2 2.5-1.8 4.1-1.8 1.6 0 2.9.6 3.9 1.7s1.5 2.8 1.5 5.1h-9c0 1.9.4 3.2 1.2 3.8.8.7 1.6 1 2.5 1 1.6 0 2.8-.8 3.4-2.5zm-.1-3.8c0-.7-.1-1.3-.3-1.9-.2-.5-.6-1-1.1-1.4-.5-.4-1.1-.6-1.8-.6-1 0-1.8.3-2.4 1-.7.7-1 1.6-1.1 2.8h6.7zM83.4 69.7h-.9V52.8h1.9v6.4c.9-1.6 2.1-2.4 3.7-2.4 1.4 0 2.6.6 3.6 1.7s1.4 2.8 1.4 4.9c0 1.9-.5 3.4-1.4 4.7-1 1.3-2.2 1.9-3.7 1.9-1.7 0-3-.8-3.9-2.4l-.7 2.1zm1-4.9c.1 1.3.5 2.2 1.2 2.8.7.6 1.4.9 2.2.9 1 0 1.8-.4 2.4-1.3.6-.9.9-2 .9-3.5 0-1.6-.3-2.9-.9-3.8-.6-.9-1.4-1.4-2.4-1.4-.8 0-1.5.3-2.2 1-.7.7-1 1.5-1.2 2.5v2.8zM98 66.4l1.8-.4c.4 1.6 1.7 2.3 3.9 2.3.8 0 1.5-.2 2-.5.6-.4.8-.9.8-1.5 0-1-.7-1.6-2.1-1.9l-2.6-.5c-1-.2-1.8-.6-2.5-1.2-.6-.6-.9-1.3-.9-2.3 0-1 .4-1.9 1.2-2.6.8-.7 1.9-1.1 3.4-1.1 2.7 0 4.4 1.1 5 3.2l-1.8.4c-.5-1.3-1.6-1.9-3.1-1.9-.8 0-1.4.2-1.9.5s-.8.8-.8 1.4c0 .9.6 1.5 1.9 1.7l2.4.4c2.5.5 3.8 1.7 3.8 3.7 0 1.1-.5 2.1-1.4 2.8-.9.7-2.2 1.1-3.8 1.1-2.7 0-4.6-1.2-5.3-3.6zM119 65.9l1.8.4c-.3 1.1-1 1.9-1.9 2.6-1 .7-2.1 1-3.4 1-1.7 0-3.1-.6-4.1-1.8-1.1-1.2-1.6-2.8-1.6-4.7 0-2 .5-3.6 1.6-4.8 1.1-1.2 2.5-1.8 4.1-1.8 1.6 0 2.9.6 3.9 1.7s1.5 2.8 1.5 5.1h-9c0 1.9.4 3.2 1.2 3.8.8.7 1.6 1 2.5 1 1.7 0 2.8-.8 3.4-2.5zm-.1-3.8c0-.7-.1-1.3-.3-1.9-.2-.5-.6-1-1.1-1.4-.5-.4-1.1-.6-1.8-.6-1 0-1.8.3-2.4 1-.7.7-1 1.6-1.1 2.8h6.7zM125.1 69.7h-1.9V57.2h1.7v2.9c.6-1.4 1.2-2.2 1.8-2.6.6-.4 1.2-.6 1.9-.6h.8v1.8h-.4c-1.1 0-2 .4-2.7 1.2-.7.8-1.1 1.8-1.1 3.1v6.7zM141.3 57.2L137 69.7h-2l-4.4-12.5h2.1l3.5 10.1 3.4-10.1h1.7zM144.9 52.8V55h-2.1v-2.2h2.1zm0 4.4v12.5H143V57.2h1.9zM155 65.3l1.7.3c-.2 1.4-.8 2.5-1.6 3.2-.8.8-1.9 1.2-3.2 1.2-1.7 0-3-.6-3.9-1.9-.9-1.3-1.3-2.8-1.3-4.6 0-1.9.5-3.5 1.4-4.7.9-1.3 2.2-1.9 3.9-1.9 1.4 0 2.4.4 3.3 1.2.8.8 1.3 1.9 1.5 3.1l-1.7.3c-.3-2.1-1.3-3.1-3-3.1-1.1 0-1.9.5-2.5 1.4-.6.9-.9 2.1-.9 3.5 0 1.6.3 2.8.9 3.7.6.9 1.4 1.3 2.4 1.3 1.6.1 2.6-.9 3-3zM167.7 65.9l1.8.4c-.3 1.1-1 1.9-1.9 2.6-1 .7-2.1 1-3.4 1-1.7 0-3.1-.6-4.1-1.8-1.1-1.2-1.6-2.8-1.6-4.7 0-2 .5-3.6 1.6-4.8 1.1-1.2 2.5-1.8 4.1-1.8 1.6 0 2.9.6 3.9 1.7s1.5 2.8 1.5 5.1h-9c0 1.9.4 3.2 1.2 3.8.8.7 1.6 1 2.5 1 1.6 0 2.8-.8 3.4-2.5zm-.1-3.8c0-.7-.1-1.3-.3-1.9-.2-.5-.6-1-1.1-1.4-.5-.4-1.1-.6-1.8-.6-1 0-1.8.3-2.4 1-.7.7-1 1.6-1.1 2.8h6.7zM170.8 66.4l1.9-.4c.4 1.6 1.7 2.3 3.9 2.3.8 0 1.5-.2 2-.5.6-.4.8-.9.8-1.5 0-1-.7-1.6-2.1-1.9l-2.6-.5c-1-.2-1.8-.6-2.5-1.2-.6-.6-.9-1.3-.9-2.3 0-1 .4-1.9 1.2-2.6.8-.7 1.9-1.1 3.4-1.1 2.7 0 4.4 1.1 5 3.2l-1.8.4c-.5-1.3-1.6-1.9-3.1-1.9-.8 0-1.4.2-1.9.5s-.8.8-.8 1.4c0 .9.6 1.5 1.9 1.7l2.4.4c2.5.5 3.8 1.7 3.8 3.7 0 1.1-.5 2.1-1.4 2.8-.9.7-2.2 1.1-3.8 1.1-2.9 0-4.7-1.2-5.4-3.6z"/></g><g fill-rule="evenodd" clip-rule="evenodd" fill="#343434"><path d="M127.1 30.6v-3c0-.5.3-.8.8-.8h13.4c.4 0 .8.3.8.8v2.6c0 .4-.4 1-1 1.9l-6.9 9.9c2.6-.1 5.3.3 7.6 1.6.5.3.7.7.7 1.2V48c0 .4-.5.9-1 .7-4.1-2.2-9.6-2.4-14.2 0-.5.2-1-.3-1-.7v-3c0-.5 0-1.3.5-2.1l8-11.5h-7c-.4-.1-.7-.4-.7-.8zM79.1 49.3H75c-.4 0-.7-.3-.7-.7V27.7c0-.4.4-.8.8-.8h3.8c.4 0 .7.3.7.7v2.7h.1c1-2.6 2.9-3.9 5.4-3.9 2.6 0 4.2 1.2 5.3 3.9 1-2.6 3.2-3.9 5.6-3.9 1.7 0 3.6.7 4.7 2.3 1.3 1.8 1 4.3 1 6.6v13.2c0 .4-.4.8-.8.8h-4.1c-.4 0-.7-.4-.7-.8V37.4c0-.9.1-3.1-.1-3.9-.3-1.4-1.2-1.8-2.4-1.8-1 0-2 .7-2.4 1.7-.4 1.1-.4 2.8-.4 4v11.1c0 .4-.4.8-.8.8h-4c-.4 0-.7-.4-.7-.8V37.4c0-2.3.4-5.8-2.5-5.8S80 34.9 80 37.4v11.1c-.1.4-.5.8-.9.8zM151.9 26.4c6 0 9.3 5.2 9.3 11.8 0 6.4-3.6 11.5-9.3 11.5-5.9 0-9.1-5.2-9.1-11.7 0-6.5 3.2-11.6 9.1-11.6zm0 4.9c-3 0-3.2 4.1-3.2 6.7 0 2.6 0 7.5 3.1 7.5s3.3-3.9 3.3-6.6c0-1.8-.1-3.9-.6-5.6-.4-1.5-1.3-2-2.6-2zM169.8 49.3h-4.1c-.4 0-.7-.4-.7-.8V27.6c0-.4.4-.7.8-.7h3.8c.4 0 .6.3.7.6v3.2h.1c1.1-2.9 2.7-4.2 5.6-4.2 1.8 0 3.6.7 4.8 2.5 1.1 1.7 1.1 4.5 1.1 6.5v13.2c0 .4-.4.7-.8.7H177c-.4 0-.7-.3-.7-.7V37.2c0-2.3.3-5.6-2.6-5.6-1 0-1.9.7-2.4 1.7-.6 1.3-.6 2.6-.6 4v11.3c-.1.3-.4.7-.9.7zM116.9 39.3c0 1.6 0 2.9-.8 4.3-.6 1.1-1.7 1.9-2.8 1.9-1.6 0-2.5-1.2-2.5-3 0-3.5 3.1-4.1 6.1-4.1v.9zm4.1 9.9c-.3.2-.7.3-1 .1-1.4-1.1-1.6-1.6-2.3-2.7-2.2 2.3-3.8 3-6.7 3-3.4 0-6.1-2.1-6.1-6.4 0-3.3 1.8-5.6 4.4-6.7 2.2-1 5.3-1.1 7.7-1.4v-.5c0-1 .1-2.1-.5-3-.5-.8-1.5-1.1-2.3-1.1-1.6 0-2.9.8-3.3 2.4-.1.4-.3.7-.7.7l-4-.4c-.3-.1-.7-.3-.6-.9.9-4.8 5.2-6.2 9.1-6.2 2 0 4.6.5 6.1 2 2 1.9 1.8 4.3 1.8 7v6.4c0 1.9.8 2.8 1.5 3.8.3.4.3.8 0 1.1-.8.8-2.3 2.1-3.1 2.8zM63.8 39.3c0 1.6 0 2.9-.8 4.3-.6 1.1-1.7 1.9-2.8 1.9-1.6 0-2.5-1.2-2.5-3 0-3.5 3.1-4.1 6.1-4.1v.9zm4.2 9.9c-.3.2-.7.3-1 .1-1.4-1.1-1.6-1.6-2.3-2.7-2.2 2.3-3.8 3-6.7 3-3.4 0-6.1-2.1-6.1-6.4 0-3.3 1.8-5.6 4.4-6.7 2.2-1 5.3-1.1 7.7-1.4v-.5c0-1 .1-2.1-.5-3-.5-.8-1.5-1.1-2.3-1.1-1.6 0-2.9.8-3.3 2.4-.1.4-.3.7-.7.7l-4-.4c-.3-.1-.7-.3-.6-.9.9-4.8 5.2-6.2 9.1-6.2 2 0 4.6.5 6.1 2 2 1.9 1.8 4.3 1.8 7v6.4c0 1.9.8 2.8 1.5 3.8.3.4.3.8 0 1.1-.8.8-2.3 2.1-3.1 2.8z"/></g></svg>