<svg xmlns="http://www.w3.org/2000/svg" viewBox="0 0 60 60"><circle fill="none" stroke="#259A47" stroke-width=".983" stroke-miterlimit="10" stroke-dasharray="3.9851,1.9925" cx="30" cy="30" r="29.5"/><g fill="#DEDEDD"><path fill-rule="evenodd" clip-rule="evenodd" d="M30.6 26.4h3.1v3.1h1.5c.7 0 1.5-.1 2.1-.4.3-.1.7-.3 1-.5-.4-.6-.7-1.3-.7-2-.1-1 .1-2.2.8-2.9l.3-.4.4.3c1 .8 1.8 1.9 1.9 3.1 1.2-.3 2.5-.3 3.6.3l.4.2-.2.4c-.9 1.7-2.7 2.2-4.5 2.1-2.7 6.6-8.4 9.7-15.4 9.7-3.6 0-6.9-1.4-8.8-4.6v-.1l-.3-.6c-.6-1.4-.9-3-.7-4.5v-.5h2.6V26h3.1v-3.1h6.1v-3.1h3.7v6.6z"/><path d="M40.5 27.6c.2-1.6-1-2.9-1.7-3.4-.9 1-1 3.6.4 4.7-.7.7-2.3 1.3-3.9 1.3H15.6c-.2 1.7.1 3.2.8 4.6l.2.4c.1.2.3.5.5.7.8.1 1.6.1 2.2.1 1.3 0 2.4-.2 3.3-.5.1 0 .3 0 .3.1s0 .3-.1.3-.2.1-.3.1c-.7.2-1.4.3-2.3.4h-.1-2.5c1.6 1.8 4.2 2.9 7.4 2.9 6.8 0 12.5-3 15.1-9.8 1.8.2 3.5-.3 4.3-1.8-1.3-.8-3-.6-3.9-.1z"/><path d="M40.5 27.6c.2-1.6-1-2.9-1.7-3.4-.9 1-1 3.6.4 4.7-.7.7-2.3 1.3-3.9 1.3H16.7c-.1 2.6.9 4.5 2.6 5.7 1.3 0 2.4-.2 3.3-.5.1 0 .3 0 .3.1s0 .3-.1.3-.2.1-.3.1c-.7.2-1.4.3-2.3.4 2.3 1.2 5.7 1.2 9.5-.3 4.3-1.7 8.3-4.8 11.1-8.4-.2-.1-.2 0-.3 0z"/><path d="M15.6 32.1c.1.9.4 1.7.8 2.5l.2.4c.1.2.3.5.5.7.8.1 1.6.1 2.2.1 1.3 0 2.4-.2 3.3-.5.1 0 .3 0 .3.1s0 .3-.1.3-.2.1-.3.1c-.7.2-1.4.3-2.3.4h-2.5c1.6 1.8 4.2 2.9 7.4 2.9 5.8 0 10.9-2.2 13.8-7.1H15.6z"/><path d="M16.9 32.1c.3 1.6 1.2 2.8 2.4 3.7 1.3 0 2.4-.2 3.3-.5.1 0 .3 0 .3.1s0 .3-.1.3-.2.1-.3.1c-.7.2-1.4.3-2.3.4 2.3 1.2 5.7 1.2 9.5-.3 2.3-.9 4.6-2.2 6.6-3.8H16.9z"/><g fill-rule="evenodd" clip-rule="evenodd"><path d="M20.4 27.2h.2v2.2h-.2v-2.2zm-.4 0h.2v2.2H20v-2.2zm-.4 0h.2v2.2h-.2v-2.2zm-.4 0h.2v2.2h-.2v-2.2zm-.4 0h.2v2.2h-.2v-2.2zm-.4 0h.2v2.2h-.2v-2.2zm-.2-.3h2.7v2.7h-2.7v-2.7zM23.5 24.1h.2v2.2h-.2v-2.2zm-.4 0h.2v2.2h-.2v-2.2zm-.4 0h.2v2.2h-.2v-2.2zm-.4 0h.2v2.2h-.2v-2.2zm-.4 0h.2v2.2h-.2v-2.2zm-.4 0h.2v2.2h-.2v-2.2zm-.2-.2H24v2.7h-2.7v-2.7zM23.5 27.2h.2v2.2h-.2v-2.2zm-.4 0h.2v2.2h-.2v-2.2zm-.4 0h.2v2.2h-.2v-2.2zm-.4 0h.2v2.2h-.2v-2.2zm-.4 0h.2v2.2h-.2v-2.2zm-.4 0h.2v2.2h-.2v-2.2zm-.2-.3H24v2.7h-2.7v-2.7zM26.6 27.2h.2v2.2h-.2v-2.2zm-.4 0h.2v2.2h-.2v-2.2zm-.4 0h.2v2.2h-.2v-2.2zm-.4 0h.2v2.2h-.2v-2.2zm-.4 0h.2v2.2H25v-2.2zm-.4 0h.2v2.2h-.2v-2.2zm-.3-.3H27v2.7h-2.7v-2.7zM26.6 24.1h.2v2.2h-.2v-2.2zm-.4 0h.2v2.2h-.2v-2.2zm-.4 0h.2v2.2h-.2v-2.2zm-.4 0h.2v2.2h-.2v-2.2zm-.4 0h.2v2.2H25v-2.2zm-.4 0h.2v2.2h-.2v-2.2zm-.3-.2H27v2.7h-2.7v-2.7zM29.6 27.2h.2v2.2h-.2v-2.2zm-.4 0h.2v2.2h-.2v-2.2zm-.4 0h.2v2.2h-.2v-2.2zm-.4 0h.2v2.2h-.2v-2.2zm-.4 0h.2v2.2H28v-2.2zm-.4 0h.2v2.2h-.2v-2.2zm-.2-.3h2.7v2.7h-2.7v-2.7zM29.6 24.1h.2v2.2h-.2v-2.2zm-.4 0h.2v2.2h-.2v-2.2zm-.4 0h.2v2.2h-.2v-2.2zm-.4 0h.2v2.2h-.2v-2.2zm-.4 0h.2v2.2H28v-2.2zm-.4 0h.2v2.2h-.2v-2.2zm-.2-.2h2.7v2.7h-2.7v-2.7zM29.6 21h.2v2.2h-.2V21zm-.4 0h.2v2.2h-.2V21zm-.4 0h.2v2.2h-.2V21zm-.4 0h.2v2.2h-.2V21zm-.4 0h.2v2.2H28V21zm-.4 0h.2v2.2h-.2V21zm-.2-.2h2.7v2.7h-2.7v-2.7zM32.7 27.2h.2v2.2h-.2v-2.2zm-.4 0h.2v2.2h-.2v-2.2zm-.4 0h.2v2.2h-.2v-2.2zm-.4 0h.2v2.2h-.2v-2.2zm-.4 0h.2v2.2h-.2v-2.2zm-.4 0h.2v2.2h-.2v-2.2zm-.2-.3h2.7v2.7h-2.7v-2.7z"/></g><path fill-rule="evenodd" clip-rule="evenodd" d="M23.8 33.9c.4 0 .7.3.7.7 0 .4-.3.7-.7.7-.4 0-.7-.3-.7-.7-.1-.4.3-.7.7-.7z"/><path fill-rule="evenodd" clip-rule="evenodd" d="M23.8 34.1h.2c-.1 0-.1.1-.1.2s.1.2.2.2.2 0 .2-.1v.2c0 .3-.2.5-.5.5s-.5-.2-.5-.5c-.1-.3.2-.5.5-.5z"/><path d="M25.7 39.2c-1.8-.9-2.8-2-3.4-3.3-.7.2-1.5.3-2.4.4h-2.5c1.7 1.7 3.7 2.9 7.5 3 .3-.1.5-.1.8-.1z"/><path d="M23 37c-.3-.3-.5-.8-.7-1.2-.7.2-1.5.3-2.4.4.7.4 1.6.7 3.1.8z"/></g></svg>