<svg xmlns="http://www.w3.org/2000/svg" viewBox="0 0 89.67 89.67"><defs><style>.cls-1{fill:#ff5959;}.cls-2{font-size:10.28px;font-family:Helvetica-Bold, Helvetica;font-weight:700;}.cls-2,.cls-3{fill:#fff;}</style></defs><title>Flask Icon</title><g id="Layer_2" data-name="Layer 2"><g id="Layer_1-2" data-name="Layer 1"><rect class="cls-1" width="89.67" height="89.67" rx="13.38" ry="13.38"/><text class="cls-2" transform="translate(31.7 77.35)">Flask</text><path class="cls-3" d="M32.74,55.08c-2.31-1.81-4.77-3.55-6.45-6a48.69,48.69,0,0,1-8.12-14.57c-1.13-3.42-1.51-7.08-3-10.36-1.52-2.39.26-5,2.87-5.75,1.16-.22,3.21-1.32.74-.54-2.21,1.62-2.43-1.48-.16-1.67a1.8,1.8,0,0,0,1.59-2.61c-1.66-1.09,4-2.28,1.17-3.89-3-3.22,4.18-3.84,2.41-.18-.42,2.81,5-.52,3.74,2.73,1.28,1.56,4.79.36,4.71,2.54,1.86.13,2.5,1.7,4.25,1.82,1.82.82,5.1,1.46,5.72,3.51-1.8,1.42-6-2.94-6.17,1,.54,5.83.41,11.83,2.54,17.37,1,3.36,3.45,6,5.66,8.62A24.76,24.76,0,0,0,52.17,53a32.54,32.54,0,0,0,8.1,2.51c1.13-.86,3.13-4.08,4.89-2.72.09,1.52-3.5,3.19-.17,3,2-.59,3.31,1.51,4.92-.39,1.48,1.76,6.17-1.12,5.11,2.47-1.43.92-3.51.36-4.94,1.63-2.36-1.18-4.24,1.05-6.85.77a50.29,50.29,0,0,1-8.79.73c-4.82-.38-9.75-.54-14.34-2.22a29.07,29.07,0,0,1-7.38-3.7Zm4.07,1.77a28.7,28.7,0,0,0,7.76,2.59C49,60,53.49,61,57.89,60.13c-2-.9-4.05.35-6-.64-2.38.51-4.94-.13-7.36-.45-2.75-1.23-5.72-2.07-8.3-3.66-3.22-1.18,1.67,1.51,2.54,1.73,2,1.14-2.21-.59-2.81-1.06-1.69-.95-1.9-.75-.17.21.35.2.69.42,1.06.59ZM32,53.46c2.45.91,0-1.72-1.13-1.57C30.38,51,29,50.48,30,50c-1.78.62-1.86-2.35-2.7-1.92-1.88-.59-.73-2.7-3-4-.2-1.36-2.22-2.54-2.87-4.59-.28-1.05-2.28-4.07-1.06-1.26,1,2.7,2.88,5,4.41,7.33,1.19,2.2,2.59,4.5,4.75,5.88.73.7,1.43,1.77,2.46,2Zm-7-7.74c.08-.37.45.8,0,0Zm10,8.82c.54-.24-.78-.31,0,0Zm1.33.48c-.14-.67-.61.37,0,0Zm1.66.69c.79-.75-1.22-.47,0,0Zm2.85,1.59c.48-.71-1.54-.27,0,0Zm-5.47-3.81c1.23-.79-1.59,0,0,0Zm1.25.62c0-.42-.44.19,0,0ZM42.78,58c1,.63,5.85,1.39,2.81.26-.51.11-5.63-1.45-2.81-.26Zm-9.89-7.7c-.1-.42-1.56-.47,0,0ZM35.79,52c.76-.53-1.57-.41,0,0Zm2.44,1.5c1.08-.41-1.76-.41,0,0ZM31.71,49c1.18.9,4.74.12,1.8-.54-1.34-.71-4.35-1.2-2.3.43l.5.11Zm8.17,5c.49-.83-2.05-.48,0,0ZM37.4,52c2.87.81-2.42-1.82-.71-.3l.38.17.33.13Zm5,2.88c2.72,0-2.46-.38,0,0ZM30.67,47.44c-.11-.51-.67,0,0,0ZM47,57.49c.07-.92-.89.68,0,0ZM35.31,50.28c-.17-.48-.85,0,0,0Zm-4.39-3.16c1.56-.09-2.14-.69,0,0Zm-5.2-3.36c-.19-.75-1.7-1.35,0,0Zm13.64,8.66c-.29-.33-.13.07,0,0Zm8.49,5.21c0-.5-.46.19,0,0Zm-9.24-6c.15-.64-1.33-.2,0,0Zm-6.33-4c1.16-.12-1.86-.79,0,0ZM43,54.29c1.81-.72-1.77-.35,0,0Zm-5.56-3.78c2.09.27-2.48-1.42-.46-.15l.46.15ZM44.68,55C46.63,53.8,46,57.7,48,55.3c2-1.44-1.7,1.78.73.26,1.76-1.18,4.36.56,6,1.12,1.18-.06,2.33,1,3.54.36,2.33-.63-4.55-.93-2.75-2-2.13.62-3.7-.74-4.75-2.1-2.39-.55-5.15-1.77-6.35-3.89-.49-.79.7.11-.42-1.19a17.34,17.34,0,0,1-3.13-4.29c-1.16-.62-1.29-2.43-1.41-.06,0-1.5-1.39-2.5-1.74-2.08,0-1.44,1.5-.72.45-1.78-.23-1.49-1-3-1.2-4.73-.35-.81,0-2.55-1.19-.71-.42,1.94-.14-2.39.51-1,.85-1.46-.31-1.28-.35-1.08.55-1.23.35-3-.15-2.31.3-1.3.47-4.8-.44-4.18.55-1.36,1-6.24-1.35-4.38a10.15,10.15,0,0,0-3.44.75c2.48,1.37-.25.49-1.26.28-.13,1.27-1.13.72-2.39.73,2,.25-1,2-2.12,1.35-1.49.71,1.28,2.49,0,3,.15.83-2.28-.3-2.09,1.61-1.45-.61-.2,2.27.53,1.3C25.71,31,25,32.48,25,33.92c-.4.84-2-2-.35-1.84-1.28-2.09-1.42-.75-2.49.21-.25.07,2.72,1.38.86,2,1.64.25,1.69,1.69,2,2.6,1,1,.78-1.13,2,.1-.75-1.1-4-3.1-1.37-2.46,0-1.11-.47-2,.32-2,.78-1.42-.82,3.5.94,1.69.49-.21.61-1.42,1.49.11,1.28,1.26.46,2.16-1.34,1,.32,1.09,2.41,1.48,2,3.19.42,1.5,1,.95,1.5.86.4,1.46.62.39.64-.31,1.82.39,1.39,1.47,2,2.22,1.25.57-1.8-3.84.36-1.32,2.26,2,.85,2.9-1.18,2.57,1.29-.1,1.7,1.74,3.31,1.67,1.47.7,2.46,3.38-.07,2.26-.88-.79-4-1.77-1.45-.26a60,60,0,0,1,6.46,3.1c1.62,1.15,2.31,2.48,2.93,2.74-1.36.65-4.09-.52-2.06-.88C40.24,51,38.82,50.38,40,52c1,.86,3.66.77,4.13.87-.4.88-1.08.95,0,1-1.23.65.39.76.51,1.13Zm-2.51-7.08c-.75-.78-.94-2.24-.13-1,.41.17,1.33,2.39.13,1Zm8.17,5.19c.47,0,0,.35,0,0ZM41,46c0-1.18.27.91,0,0Zm-.81-1.09c-.94-1.81,1.18.51,0,0Zm-9.84-6.79c.55-.15.27.94,0,0Zm7.83,4.24c.34-1.27.4,1.07,0,0Zm-5.53-3.85c-.39-.7.82.66,0,0ZM37.39,40c-.89-2,.63-1.09.2.33l-.2-.33ZM29.2,34.55c-.4-.65-1.05-2.57-.84-3.16.19,1,2,4.1.9,1.31C28,30.35,30.75,33.46,31,34c.13.58-.77-.16-.16,1.21-1.11-1.55-.66.86-1.67-.7ZM26.67,32.8c.1-1.52.58,1,0,0Zm1.14.39c.54-1.15.92,1.6,0,0Zm-2.74-2.12c-.94-.94-1.62-1.8,0-.58.64,0-1.43-2,.15-.63,1.66.3.82,2.73-.2,1.21Zm1.44,0c.55-.54.29.53,0,0Zm.89.28c-.83-1.55,1,.65,0,0Zm-1.76-1.68c-2.74-2.44,3.44,1.27.45.45l-.45-.45Zm7.85,4.56c-1.19-.71-.32-5,.09-2.07,1.15-.37-.06,1.52.79,1.5-.13,1.19-.52,1.62-.88.57Zm2.9,1.72c.12-1.29.24.88,0,0Zm-.5-.5c.13-.55,0,.65,0,0Zm-9.71-6.58c-1.76-2.43,5.11,2.46,1.13.62-.42-.11-.92-.15-1.13-.62Zm5.59,3c-.17-2,.37.34,0,0ZM36,34.53c.33-1.16,0,.77,0,0Zm-9.56-6.61c1-.22,4.33,1.84,1.31.59-.34-.37-1.05-.2-1.31-.59Zm9,4.47c.11-2.09.63-1.25,0,.3v-.3Zm-8.2-5.2c.43-.63-1.13-2.83.22-.79.59.47,1.7.78.72,1,1.54,1.36-.38.37-.94-.19ZM35,31.74c.29-2.38.26,1.39,0,0ZM26.33,25c.33-.14.17.43,0,0Zm2,1.2c.52-1.09,1,1.22,0,0Zm5.71,3.17c0-.42.11.61,0,0Zm-.33-.73c-.79-2,.74,1,0,0Zm-.49-1.28c-.13-.81.45,1,0,0ZM34,26.07c-.54-1,.69-4.22.82-2.2-.57,1.58-.17,2.46.23.34.74-1.66-.16,3.29-1.06,1.85Zm.81-4.85c.24-.29.05.35,0,0ZM33.49,48c-.32-.28,0,.18,0,0Zm2.8,1.41c1.56.4,1.55-.24.14-.43-.76-.7-3.14-1.45-1-.09.14.36.59.35.86.52Zm-5.53-3.67c.86.64,3.23,1.81,1.22.24.68-.79-1.3-1.21-.64-1.73-1.67-1-1.31-.93-.15-.9-2-.9.29-.83.18-1.29-.77-.15-3.83-1.36-2,.1-1.83-.93-.44.35-1,.21-1.87-.51,1.67,1.43-.3.94,1.07.85,2.89,2.18.45.9-.32.46,1.74,1.16,2.25,1.51Zm2.93,1.68c3.56,1.15-1.75-1.4,0,0Zm15,9.08c0-.71-.49.6,0,0Zm1.54.65c.82-.79,0,1.27,1.36-.19,0-1,0-1.67-1.52-.39-.41.23-.59,1.19.16.59ZM25.77,41.78c-.25-1-1.77-1,0,0Zm1.64,1.08c-.61-1-2.18-.92,0,0Zm9.36,5.64c.91.81,4.2.6,1.11.1-.46-.68-2.9-.51-1.11-.1Zm12.86,7.94c1.41-1.18-1.36.53,0,0Zm2.92,2c0-.38-.61.17,0,0Zm0-.53c1.56-1.65-1.51.1,0,0ZM21.72,38.4c-1.33-1.89-.82-2.74-2.1-4.29-.24-1.18-2.2-3.86-1-1,1.09,1.66,1.41,4.24,3.11,5.31Zm30.34,19c2.87-1.85-1.17-.81,0,0Zm2.19.86c1.43-1.23-.91-.26,0,0Zm-29-18.57c.41-.61-1.06-.08,0,0Zm28.52,18c1.39-.89-.32-.76-.25.08l.25-.08ZM35,45.79c0-.61-.73.05,0,0Zm1.16.67c-.37-.75-.57.12,0,0ZM56,58.28c1.78-1.28-1.08-.25-.37.24l.37-.24Zm-.68-.33c1.45-1.21-1.53.54,0,0Zm3.48,2.32c1-.65-1.18-.21,0,0Zm-32.65-21c1.3.29,5.21,3.21,2.91.2-1.18-.35-.47-3.24-1.68-2.73.81,1.35.66,1.92-1,1.07-2.13-1-1.2.51-.78.94-.57.13.75.49.58.5Zm-5.94-4.69c.23-1-2.15-5.31-1.13-2.18.37.66.33,1.9,1.13,2.18Zm10.91,6.72c-.67-.56,0-.08,0,0Zm1.65.39c0-1-1.83-.42,0,0Zm14.33,9c-.27-.7-1.08,0,0,0Zm.69.5c-.1-.39-.4.08,0,0Zm5.68,3.58c.55-.4-.68-.05,0,0ZM23.2,35.31c1.56-.6-1.67-.43,0,0ZM45.86,49.59c0-1-1,.25,0,0ZM22.58,33.87c1-.34-.93-.22,0,0Zm2.91,1.41c0-.33-.31.13,0,0ZM61,57.08c1.29-.26,4.23.66,4.71-.34-1.57,0-5.42-1.11-5.6.25l.34.05.55,0ZM26.42,35.52c0-1-.8,0,0,0Zm-7.66-5.31c-.35-2-1.32-.3,0,0Zm1.83.46c0-.63-1.67-.56,0,0Zm1,.51c-.3-.24-.24.31,0,0Zm6.57,4.21c.31-.28-.73-.21,0,0ZM20.94,30c-.18-1.48-2.12-.22,0,0Zm-3.75-2.43c-.05-.68-.36.26,0,0Zm.56-.42c-.09-.81-.48.1,0,0ZM20.83,29c1.3-.51-2.37-1.06-.27-.1l.27.1ZM62,54.45c.83-.76-1.06-.24,0,0ZM67,57c.33-1-.84.13,0,0ZM21.14,27.39c.14-1-1,.19,0,0Zm-4.38-2.93c-.24-1.35-.2-3.72,2-2.92-3,.6,2.08,3.73,1.44,1.26,1.26.06,2.47-.75,1.81.48,2.49-.27,4.21-2.43,6.62-2.13A26.24,26.24,0,0,0,34.61,20c1.66-.12,3.26-1.91,2.35-3a25.67,25.67,0,0,0-7.13.59c-2.77.58-5.29,1.67-8.08,2.14s.55,1-.23,1.15c-1.42.49,1.7.83-.18,1.35C20.16,22,19,21.6,19.45,20.38c-2.61.34-4.9,1.42-2.84,4.08Zm6.29-3.2c.61-2.25,3.28,1.86,1,.3a1.42,1.42,0,0,0-1-.3Zm.12-1.09c.88-.66.47.37,0,0Zm1.12,0c.08-1,2.57.55.41.37l-.41-.37Zm1.53-.62c.56-.66.16.58,0,0Zm.39-.26c.93-1.12,5.28-.72,2.1-.11-.85-.64-1.51.38-2.1.11Zm5.68-.88c-.14-3.06,2.82,1.09,0,0Zm1.61,0c.59-1.54,2.29-.62.27-.31,0,.17-.06.8-.27.31Zm-13,8.19c1.76-1.08-1.87-.94,0,0Zm1.3.36c.62-.66-1.34-.27,0,0ZM18,24.24c1-.77-1.19-.29,0,0Zm52,32.51c0-.9-.77.4,0,0Zm-5.28-3.6c.15-1-.68.09,0,0Zm6.73,4c1.41,0,4.26-.44,1.2-.44-.48.07-2.8.06-1.2.44ZM23,26.33c1.14-.08,1.78-1.25-.22-1.19-3.1-.32,2.74,1.06-.4.67-.42.28.59.6.62.52Zm1,.51c-.12-.73-.35.39,0,0Zm1.19-3.17c.49-.61-.68-.16,0,0Zm-3.79-6.33c2-.69,4.81-1.47,5.77.34-1-1.17-.39-2.33.53-.61,1.3,1.74,2-.79,1.11-1.37,1,1.2,2.06,1.77.65.08,1.54-1.85-3.08.24-4.14.22-.51.23-5.22,1.2-3.91,1.35Zm1.19-2.28c1.16-.87,4,.52,2.18-.87-.18-.16-4,1.05-2.18.87Zm4.22.17c1.35,0-.58-1.82,1-1-.26-.87-1.88-1-2.67-1.37-.45.79.91,2.37,1.64,2.35Zm-3.48-3.83c.47-.64-.82.32,0,0Zm1.73.41c2.18-.29-.56-.94-.44,0l.44,0ZM21.79,9.3c-1.54-2,2.89.34,1.33-1.77-1.32-1-2.58,1.18-1.33,1.77ZM41.53,19.93c.71-1.25-2.91-1.69-.47-.44.22.07.17.53.47.44Z"/></g></g></svg>