<svg xmlns="http://www.w3.org/2000/svg" viewBox="0 0 89.67 89.67"><defs><style>.cls-1{fill:#ff5959;}.cls-2{font-size:10.28px;font-family:Helvetica-Bold, Helvetica;font-weight:700;}.cls-2,.cls-3{fill:#fff;}</style></defs><title>React.js Icon</title><g id="Layer_2" data-name="Layer 2"><g id="Layer_1-2" data-name="Layer 1"><rect class="cls-1" width="89.67" height="89.67" rx="13.38" ry="13.38"/><text class="cls-2" transform="translate(25.13 77.35)">React.js</text><path class="cls-3" d="M63.49,24.53q-.92-.31-1.85-.58.15-.63.29-1.26c1.4-6.78.48-12.24-2.64-14S51.42,8.72,46.48,13q-.73.64-1.43,1.31-.47-.45-.95-.88c-5.18-4.6-10.37-6.53-13.48-4.73S26.75,15.59,28,22q.19,1,.42,1.9c-.73.21-1.44.43-2.12.67-6.07,2.12-9.94,5.43-9.94,8.87s4.16,7.12,10.48,9.28q.77.26,1.55.48-.25,1-.45,2c-1.2,6.31-.26,11.33,2.72,13s8.24,0,13.27-4.45q.6-.52,1.2-1.1.75.73,1.55,1.41c4.87,4.19,9.68,5.88,12.66,4.16s4.07-7.17,2.78-13.72q-.15-.75-.34-1.53l1.07-.33c6.57-2.18,10.85-5.7,10.85-9.3s-4-6.79-10.19-8.92Z"/><path class="cls-1" d="M62.07,40.42l-1,.3a57.47,57.47,0,0,0-2.9-7.26A57.45,57.45,0,0,0,61,26.31c.59.17,1.16.35,1.7.54,5.3,1.83,8.54,4.53,8.54,6.61s-3.49,5.09-9.17,7Zm-2.35,4.67A20.74,20.74,0,0,1,60,52.65c-.34,1.84-1,3.07-1.88,3.56-1.81,1-5.67-.31-9.84-3.9q-.72-.62-1.44-1.31a57.54,57.54,0,0,0,4.8-6.1,57.16,57.16,0,0,0,7.76-1.2q.18.71.31,1.39ZM35.9,56c-1.76.62-3.17.64-4,.15-1.81-1-2.56-5.07-1.53-10.47q.18-1,.42-1.9a57.58,57.58,0,0,0,7.72,1.12A59.59,59.59,0,0,0,43.41,51q-.53.52-1.09,1a20.74,20.74,0,0,1-6.42,4ZM27.63,40.41a20.74,20.74,0,0,1-6.69-3.55c-1.42-1.22-2.14-2.43-2.14-3.41,0-2.09,3.11-4.75,8.3-6.56q1-.34,2-.62a58.73,58.73,0,0,0,2.79,7.24,59.62,59.62,0,0,0-2.83,7.34Q28.34,40.65,27.63,40.41Zm2.77-18.87C29.33,16,30,11.89,31.85,10.84s6.16.47,10.63,4.44c.29.25.57.52.86.79a58.68,58.68,0,0,0-4.88,6,59.83,59.83,0,0,0-7.65,1.19q-.22-.88-.39-1.77Zm24.73,6.11q-.84-1.45-1.74-2.87c1.83.23,3.58.54,5.23.91a52.23,52.23,0,0,1-1.83,4.94q-.79-1.51-1.65-3ZM45,17.83a52.37,52.37,0,0,1,3.37,4.07q-3.39-.16-6.77,0c1.11-1.47,2.25-2.83,3.4-4.07ZM34.9,27.67q-.84,1.46-1.62,3c-.71-1.69-1.32-3.35-1.82-5,1.64-.37,3.38-.67,5.2-.89Q35.75,26.2,34.9,27.67ZM36.71,42.3a52.14,52.14,0,0,1-5.28-.85c.51-1.63,1.13-3.33,1.86-5.06q.78,1.5,1.63,3T36.71,42.3Zm8.41,6.95C44,48,42.8,46.61,41.67,45.12q1.65.06,3.35.06t3.46-.08A52.07,52.07,0,0,1,45.12,49.25ZM56.8,36.3a52,52,0,0,1,1.92,5,52,52,0,0,1-5.35.91q.91-1.44,1.76-2.92t1.66-3ZM53,38.12q-1.3,2.26-2.75,4.44c-1.7.12-3.46.18-5.25.18s-3.52-.06-5.19-.16Q38.35,40.4,37,38.13t-2.45-4.62q1.13-2.36,2.44-4.62h0q1.31-2.26,2.78-4.42c1.7-.13,3.45-.2,5.22-.2s3.52.07,5.23.2q1.46,2.16,2.76,4.41t2.47,4.6Q54.34,35.84,53,38.12Zm5.05-27.35c1.92,1.11,2.67,5.57,1.46,11.43q-.12.57-.26,1.14a58.66,58.66,0,0,0-7.66-1.21,57.52,57.52,0,0,0-4.85-6q.64-.62,1.32-1.21c4.23-3.68,8.19-5.14,10-4.1Z"/><path class="cls-3" d="M45,28.33a5.12,5.12,0,1,1-5.12,5.12A5.12,5.12,0,0,1,45,28.33"/></g></g></svg>