<svg xmlns="http://www.w3.org/2000/svg" viewBox="0 0 89.67 89.67"><defs><style>.cls-1{fill:#ff5959;}.cls-2{font-size:10.28px;font-family:Helvetica-Bold, Helvetica;font-weight:700;}.cls-2,.cls-4{fill:#fff;}.cls-3{letter-spacing:0.02em;}</style></defs><title>Node.js Icon</title><g id="Layer_2" data-name="Layer 2"><g id="Layer_1-2" data-name="Layer 1"><rect class="cls-1" width="89.67" height="89.67" rx="13.38" ry="13.38"/><text class="cls-2" transform="translate(26.17 77.35)">Nod<tspan class="cls-3" x="19.98" y="0">e</tspan><tspan x="25.9" y="0">.js</tspan></text><path class="cls-4" d="M62.33,27q0,4.89,0,9.78a.94.94,0,0,1-.52.9L55.1,41.52a.89.89,0,0,1-1,0l-6.7-3.87a1,1,0,0,1-.53-.92q0-3.84,0-7.68a1,1,0,0,1,.53-.92l6.68-3.85a.91.91,0,0,1,1,0l1.52.88c.37.21.56.1.56-.32q0-5.15,0-10.3a.73.73,0,0,1,.14-.42c.12-.16.32-.14.55,0L61.3,16l.53.29a.88.88,0,0,1,.5.85Q62.33,22.06,62.33,27ZM57.17,32.9c0-.42,0-.85,0-1.27A.33.33,0,0,0,57,31.3L54.78,30a.32.32,0,0,0-.36,0L52.21,31.3a.34.34,0,0,0-.19.32q0,1.27,0,2.54a.34.34,0,0,0,.19.32l2.18,1.26a.36.36,0,0,0,.41,0L57,34.49a.35.35,0,0,0,.2-.34C57.17,33.73,57.17,33.31,57.17,32.9Z"/><path class="cls-4" d="M28.11,32.79c0-1.3,0-2.59,0-3.89a.93.93,0,0,1,.5-.89l2.16-1.24,2-1.17,2.53-1.44a1,1,0,0,1,1.14.1c.74.44,1.5.86,2.25,1.29l1.76,1,2,1.13L43,28a.91.91,0,0,1,.48.87c0,2.59,0,5.18,0,7.76,0,.52-.33.75-.72,1l-3.1,1.8-2.25,1.28-1.31.75a.76.76,0,0,1-.76,0c-.68-.38-1.35-.78-2-1.17-.41-.24-.81-.5-1.22-.73-.76-.43-1.52-.84-2.27-1.28-.52-.3-1-.62-1.53-1a.52.52,0,0,1-.22-.46Q28.11,34.82,28.11,32.79Z"/><path class="cls-4" d="M9.28,34c0-1.74,0-3.48,0-5.22a.89.89,0,0,1,.49-.84l6.71-3.86a.94.94,0,0,1,1,0l6.67,3.84a1,1,0,0,1,.53.92q0,4.8,0,9.6c0,.3,0,.59,0,.89a.41.41,0,0,1-.66.38L20.89,37.9,20,37.42a.9.9,0,0,1-.49-.86c0-1.59,0-3.19,0-4.78a.91.91,0,0,0-.5-.87L17.42,30a.8.8,0,0,0-.84,0l-1.75,1a.83.83,0,0,0-.42.78c0,1.59,0,3.19,0,4.78a1,1,0,0,1-.54.93c-1.3.73-2.59,1.48-3.88,2.22-.4.23-.71,0-.71-.41q0-2.63,0-5.26Z"/><path class="cls-4" d="M65.76,32.78c0-1.27,0-2.54,0-3.81A1,1,0,0,1,66.3,28Q69.65,26.1,73,24.16a.89.89,0,0,1,1,0L80.65,28a.87.87,0,0,1,.48.84c0,.62,0,1.24,0,1.85a.74.74,0,0,1-.37.69l-4.15,2.41a.41.41,0,0,1-.63-.38c0-.61,0-1.22,0-1.83a.52.52,0,0,0-.29-.5l-2-1.16a.49.49,0,0,0-.55,0l-2,1.16a.52.52,0,0,0-.29.5c0,.75,0,1.51,0,2.26a.58.58,0,0,0,.33.57l6.69,3.84a.77.77,0,0,1,.31.34c.08.19,0,.35-.27.48L74.15,41.2l-.34.18a.87.87,0,0,1-.85,0L67.06,38l-.82-.47a.86.86,0,0,1-.48-.82C65.77,35.38,65.76,34.08,65.76,32.78Z"/><path class="cls-4" d="M52.7,49.15c0,1.18,0,2.35,0,3.53a1.59,1.59,0,0,1-.89,1.53c-1.29.73-2.58,1.47-3.87,2.22l-2.49,1.46a1.3,1.3,0,0,1-.64.12,1.21,1.21,0,0,1-.91-.27,1.84,1.84,0,0,0-.27-.16l-1.73-1-.11-.09c-.09-.09-.08-.16,0-.21l.46-.19a2.41,2.41,0,0,0,.46-.23.31.31,0,0,1,.4,0c.44.27.89.52,1.31.82a.55.55,0,0,0,.7,0c.51-.32,1-.62,1.55-.93l3.89-2.25c.22-.13.45-.24.68-.36a.32.32,0,0,0,.19-.31q0-3.65,0-7.3a.24.24,0,0,0-.14-.24L48.69,43.7,45.83,42c-.29-.17-.58-.33-.89-.48a.36.36,0,0,0-.29,0l-2.21,1.27-1.6.91-2.55,1.47a.27.27,0,0,0-.15.27q0,3.65,0,7.3a.31.31,0,0,0,.16.3c.61.35,1.21.7,1.83,1a1.11,1.11,0,0,0,.8.1.82.82,0,0,0,.57-.8q0-3.14,0-6.27c0-.34,0-.69,0-1s.07-.29.28-.29h.73c.18,0,.27.08.27.26,0,2.51,0,5,0,7.54a1.75,1.75,0,0,1-1.63,1.86,2.25,2.25,0,0,1-1.45-.23c-.76-.42-1.51-.84-2.25-1.29a1.18,1.18,0,0,1-.53-1q0-3.77,0-7.54a1.55,1.55,0,0,1,.89-1.31,13.62,13.62,0,0,0,1.26-.71l1.74-1c1-.56,1.9-1.12,2.86-1.67a5.31,5.31,0,0,1,.9-.38,1.13,1.13,0,0,1,.95.16l3.54,2.05c.87.5,1.74,1,2.63,1.5a1.74,1.74,0,0,1,.88.82,1.6,1.6,0,0,1,.14.59C52.71,46.66,52.7,47.9,52.7,49.15Z"/><path class="cls-4" d="M46.6,45.62a4.38,4.38,0,0,1,1.67.24,2.1,2.1,0,0,1,1.52,2c0,.22-.05.28-.28.28h-.71a.27.27,0,0,1-.29-.23,1.23,1.23,0,0,0-1.26-1.05,7.3,7.3,0,0,0-1.08,0,1.82,1.82,0,0,0-1,.28.72.72,0,0,0-.27.8.44.44,0,0,0,.23.23,7,7,0,0,0,1,.27q1,.18,2,.32a3,3,0,0,1,1.29.46,1.57,1.57,0,0,1,.69,1.25A2,2,0,0,1,49.55,52a2.59,2.59,0,0,1-.84.55,5.15,5.15,0,0,1-2.41.33,4.52,4.52,0,0,1-1.8-.44,1.93,1.93,0,0,1-1.09-1.29,3.07,3.07,0,0,1-.06-.73.25.25,0,0,1,.18-.17,7.5,7.5,0,0,1,.85,0c.13,0,.25.06.25.23a1.13,1.13,0,0,0,1,1.1,5.27,5.27,0,0,0,1.7.09,2.26,2.26,0,0,0,1.06-.28.74.74,0,0,0,.22-1.06,1.32,1.32,0,0,0-.64-.31c-.4-.09-.81-.12-1.22-.17a6.48,6.48,0,0,1-2.21-.49,1.67,1.67,0,0,1-1-1.13,2,2,0,0,1,.89-2.07A3.81,3.81,0,0,1,46.6,45.62Z"/><path class="cls-4" d="M75,32.77c0,.24,0,.47,0,.71a.22.22,0,0,1-.13.23l-1.2.69a.3.3,0,0,1-.34,0l-1.22-.7A.27.27,0,0,1,72,33.5c0-.5,0-1,0-1.49a.3.3,0,0,1,.13-.21l1.2-.69a.3.3,0,0,1,.34,0l1.2.69A.31.31,0,0,1,75,32C75,32.26,75,32.52,75,32.77Z"/></g></g></svg>